<svg width="190" height="225" viewBox="0 0 190 225" fill="none" xmlns="http://www.w3.org/2000/svg">
<g filter="url(#filter0_d_123_6)">
<rect x="8" y="177" width="175" height="40" rx="5" fill="#5AA897" fill-opacity="0.4" shape-rendering="crispEdges"/>
</g>
<path fill-rule="evenodd" clip-rule="evenodd" d="M94.9636 21.1523C85.1215 21.1523 77.1428 29.131 77.1428 38.9732V60.6168H112.784V38.9732C112.784 29.131 104.806 21.1523 94.9636 21.1523ZM94.9636 28.6141C89.7318 28.6141 85.4905 32.8553 85.4905 38.0873V49.138H104.437V38.0873C104.437 32.8553 100.195 28.6141 94.9636 28.6141Z" fill="#F8A488"/>
<path d="M36.8907 115.279C37.2998 111.359 40.6048 108.381 44.5468 108.381C48.7982 108.381 52.2446 111.827 52.2446 116.078V134.771C52.2446 139.559 48.3627 143.441 43.5743 143.441C38.4297 143.441 34.4167 138.988 34.9506 133.871L36.8907 115.279Z" fill="#F8F5F1"/>
<path fill-rule="evenodd" clip-rule="evenodd" d="M55.2134 116.078V134.771C55.2134 141.199 50.0023 146.41 43.5743 146.41C36.6683 146.41 31.2812 140.432 31.9979 133.563L33.938 114.971C34.5049 109.538 39.0845 105.412 44.5468 105.412C50.4379 105.412 55.2134 110.187 55.2134 116.078ZM44.5468 108.381C40.6048 108.381 37.2998 111.359 36.8907 115.279L34.9506 133.871C34.4167 138.988 38.4297 143.441 43.5743 143.441C48.3627 143.441 52.2446 139.559 52.2446 134.771V116.078C52.2446 111.827 48.7982 108.381 44.5468 108.381Z" fill="#F8A488"/>
<path d="M153.109 115.279C152.701 111.359 149.395 108.381 145.453 108.381C141.202 108.381 137.755 111.827 137.755 116.078V134.771C137.755 139.559 141.637 143.441 146.426 143.441C151.57 143.441 155.583 138.988 155.049 133.871L153.109 115.279Z" fill="#F8F5F1"/>
<path fill-rule="evenodd" clip-rule="evenodd" d="M134.787 116.078V134.771C134.787 141.199 139.998 146.41 146.426 146.41C153.332 146.41 158.718 140.432 158.001 133.563L156.061 114.971C155.496 109.538 150.915 105.412 145.453 105.412C139.562 105.412 134.787 110.187 134.787 116.078ZM145.453 108.381C149.395 108.381 152.701 111.359 153.109 115.279L155.049 133.871C155.583 138.988 151.57 143.441 146.426 143.441C141.637 143.441 137.755 139.559 137.755 134.771V116.078C137.755 111.827 141.202 108.381 145.453 108.381Z" fill="#F8A488"/>
<path d="M48.7073 77.8676C50.5155 56.3375 68.5182 39.7836 90.1239 39.7836H100.069C121.675 39.7836 139.678 56.3377 141.486 77.8676L146.695 139.893C148.004 155.476 135.709 168.848 120.07 168.848H70.1228C54.4843 168.848 42.1889 155.476 43.4977 139.893L48.7073 77.8676Z" fill="#F8F5F1"/>
<path fill-rule="evenodd" clip-rule="evenodd" d="M90.1238 36.8149H100.069C123.218 36.8149 142.507 54.5514 144.444 77.6192L149.653 139.644C151.108 156.959 137.446 171.816 120.07 171.816H70.1228C52.7467 171.816 39.0851 156.959 40.5395 139.644L45.7489 77.6192C47.6863 54.5512 66.9749 36.8149 90.1238 36.8149ZM90.1238 39.7836C68.5182 39.7836 50.5155 56.3375 48.7073 77.8676L43.4978 139.893C42.1889 155.476 54.4843 168.848 70.1228 168.848H120.07C135.709 168.848 148.004 155.476 146.695 139.893L141.486 77.8676C139.678 56.3377 121.675 39.7836 100.069 39.7836H90.1238Z" fill="#F8A488"/>
<path d="M75.328 68.1753C75.328 64.8961 77.9862 62.2378 81.2655 62.2378H108.928C112.207 62.2378 114.865 64.896 114.865 68.1753V74.1079C114.865 77.387 112.207 80.0454 108.928 80.0454H81.2655C77.9862 80.0454 75.328 77.387 75.328 74.1079V68.1753ZM65.372 153.082C68.08 156.691 72.393 159.024 77.2509 159.024H123.444C131.641 159.024 138.287 152.379 138.287 144.18V126.443C138.287 121.585 135.954 117.272 132.346 114.564C132.685 115.667 132.867 116.839 132.867 118.054V141.729C132.867 148.287 127.551 153.605 120.992 153.605H68.8621C67.6476 153.605 66.4756 153.422 65.372 153.082Z" fill="#F8A488"/>
<path fill-rule="evenodd" clip-rule="evenodd" d="M68.8621 103.21H120.992C129.19 103.21 135.836 109.856 135.836 118.054V141.729C135.836 149.926 129.19 156.573 120.992 156.573H68.8621C60.6642 156.573 54.0183 149.926 54.0183 141.729V118.054C54.0183 109.856 60.6642 103.21 68.8621 103.21ZM68.8621 106.179C62.3036 106.179 56.9871 111.495 56.9871 118.054V141.729C56.9871 148.287 62.3036 153.605 68.8621 153.605H120.992C127.551 153.605 132.867 148.287 132.867 141.729V118.054C132.867 111.495 127.551 106.179 120.992 106.179H68.8621Z" fill="#F8A488"/>
<path fill-rule="evenodd" clip-rule="evenodd" d="M55.3334 124.302C55.3334 123.482 55.9979 122.817 56.8177 122.817H133.375C134.195 122.817 134.86 123.482 134.86 124.302C134.86 125.122 134.195 125.786 133.375 125.786H56.8177C55.9979 125.786 55.3334 125.122 55.3334 124.302Z" fill="#F8A488"/>
<path d="M111.807 121.467C111.975 120.347 113.066 119.51 114.358 119.51H114.828C116.12 119.51 117.212 120.347 117.38 121.467L119.001 132.274C119.35 134.602 117.278 136.666 114.593 136.666C111.909 136.666 109.836 134.602 110.186 132.274L111.807 121.467Z" fill="#F8A488"/>
<path d="M17.8938 190.364H19.5756L23.5301 200.023H23.6665L27.6211 190.364H29.3029V202H27.9847V193.159H27.8711L24.2347 202H22.962L19.3256 193.159H19.212V202H17.8938V190.364ZM36.2745 202.205C35.7215 202.205 35.2196 202.1 34.7688 201.892C34.3181 201.68 33.9601 201.375 33.695 200.977C33.4298 200.576 33.2972 200.091 33.2972 199.523C33.2972 199.023 33.3957 198.617 33.5927 198.307C33.7897 197.992 34.0529 197.746 34.3825 197.568C34.712 197.39 35.0757 197.258 35.4734 197.17C35.8749 197.08 36.2783 197.008 36.6836 196.955C37.2139 196.886 37.6438 196.835 37.9734 196.801C38.3067 196.763 38.5491 196.701 38.7007 196.614C38.856 196.527 38.9336 196.375 38.9336 196.159V196.114C38.9336 195.553 38.7802 195.117 38.4734 194.807C38.1704 194.496 37.7101 194.341 37.0927 194.341C36.4525 194.341 35.9507 194.481 35.587 194.761C35.2234 195.042 34.9677 195.341 34.82 195.659L33.5472 195.205C33.7745 194.674 34.0775 194.261 34.4563 193.966C34.8389 193.667 35.2556 193.458 35.7063 193.341C36.1609 193.22 36.6079 193.159 37.0472 193.159C37.3275 193.159 37.6495 193.193 38.0132 193.261C38.3806 193.326 38.7347 193.46 39.0757 193.665C39.4204 193.869 39.7063 194.178 39.9336 194.591C40.1609 195.004 40.2745 195.557 40.2745 196.25V202H38.9336V200.818H38.8654C38.7745 201.008 38.623 201.21 38.4109 201.426C38.1988 201.642 37.9166 201.826 37.5643 201.977C37.212 202.129 36.7821 202.205 36.2745 202.205ZM36.4791 201C37.0094 201 37.4563 200.896 37.82 200.688C38.1874 200.479 38.4639 200.21 38.6495 199.881C38.8389 199.551 38.9336 199.205 38.9336 198.841V197.614C38.8768 197.682 38.7518 197.744 38.5586 197.801C38.3692 197.854 38.1495 197.902 37.8995 197.943C37.6533 197.981 37.4128 198.015 37.1779 198.045C36.9469 198.072 36.7594 198.095 36.6154 198.114C36.2669 198.159 35.9412 198.233 35.6382 198.335C35.3389 198.434 35.0965 198.583 34.9109 198.784C34.7291 198.981 34.6382 199.25 34.6382 199.591C34.6382 200.057 34.8105 200.409 35.1552 200.648C35.5037 200.883 35.945 201 36.4791 201ZM45.732 198.818L45.7092 197.159H45.982L49.8001 193.273H51.4592L47.3911 197.386H47.2774L45.732 198.818ZM44.482 202V190.364H45.8229V202H44.482ZM50.0274 202L46.6183 197.682L47.5729 196.75L51.732 202H50.0274ZM58.2448 202.182C57.4039 202.182 56.6785 201.996 56.0687 201.625C55.4626 201.25 54.9948 200.727 54.6653 200.057C54.3395 199.383 54.1766 198.598 54.1766 197.705C54.1766 196.811 54.3395 196.023 54.6653 195.341C54.9948 194.655 55.4531 194.121 56.0403 193.739C56.6312 193.352 57.3206 193.159 58.1084 193.159C58.563 193.159 59.0118 193.235 59.455 193.386C59.8982 193.538 60.3016 193.784 60.6653 194.125C61.0289 194.462 61.3187 194.909 61.5346 195.466C61.7505 196.023 61.8584 196.708 61.8584 197.523V198.091H55.1312V196.932H60.4948C60.4948 196.439 60.3963 196 60.1993 195.614C60.0062 195.227 59.7296 194.922 59.3698 194.699C59.0137 194.475 58.5933 194.364 58.1084 194.364C57.5743 194.364 57.1122 194.496 56.7221 194.761C56.3357 195.023 56.0384 195.364 55.83 195.784C55.6217 196.205 55.5175 196.655 55.5175 197.136V197.909C55.5175 198.568 55.6312 199.127 55.8584 199.585C56.0895 200.04 56.4096 200.386 56.8187 200.625C57.2278 200.86 57.7031 200.977 58.2448 200.977C58.5971 200.977 58.9153 200.928 59.1993 200.83C59.4872 200.727 59.7353 200.576 59.9437 200.375C60.152 200.17 60.313 199.917 60.4266 199.614L61.7221 199.977C61.5857 200.417 61.3565 200.803 61.0346 201.136C60.7126 201.466 60.3149 201.723 59.8414 201.909C59.3679 202.091 58.8357 202.182 58.2448 202.182ZM74.4864 202.205C73.9334 202.205 73.4315 202.1 72.9807 201.892C72.53 201.68 72.172 201.375 71.9068 200.977C71.6417 200.576 71.5091 200.091 71.5091 199.523C71.5091 199.023 71.6076 198.617 71.8046 198.307C72.0015 197.992 72.2648 197.746 72.5943 197.568C72.9239 197.39 73.2875 197.258 73.6853 197.17C74.0868 197.08 74.4902 197.008 74.8955 196.955C75.4258 196.886 75.8557 196.835 76.1853 196.801C76.5186 196.763 76.761 196.701 76.9125 196.614C77.0678 196.527 77.1455 196.375 77.1455 196.159V196.114C77.1455 195.553 76.9921 195.117 76.6853 194.807C76.3822 194.496 75.922 194.341 75.3046 194.341C74.6644 194.341 74.1625 194.481 73.7989 194.761C73.4353 195.042 73.1796 195.341 73.0318 195.659L71.7591 195.205C71.9864 194.674 72.2894 194.261 72.6682 193.966C73.0508 193.667 73.4675 193.458 73.9182 193.341C74.3728 193.22 74.8197 193.159 75.2591 193.159C75.5394 193.159 75.8614 193.193 76.225 193.261C76.5925 193.326 76.9466 193.46 77.2875 193.665C77.6322 193.869 77.9182 194.178 78.1455 194.591C78.3728 195.004 78.4864 195.557 78.4864 196.25V202H77.1455V200.818H77.0773C76.9864 201.008 76.8349 201.21 76.6228 201.426C76.4106 201.642 76.1284 201.826 75.7762 201.977C75.4239 202.129 74.994 202.205 74.4864 202.205ZM74.6909 201C75.2212 201 75.6682 200.896 76.0318 200.688C76.3993 200.479 76.6758 200.21 76.8614 199.881C77.0508 199.551 77.1455 199.205 77.1455 198.841V197.614C77.0887 197.682 76.9637 197.744 76.7705 197.801C76.5811 197.854 76.3614 197.902 76.1114 197.943C75.8652 197.981 75.6246 198.015 75.3898 198.045C75.1587 198.072 74.9712 198.095 74.8273 198.114C74.4788 198.159 74.1531 198.233 73.85 198.335C73.5508 198.434 73.3084 198.583 73.1228 198.784C72.9409 198.981 72.85 199.25 72.85 199.591C72.85 200.057 73.0224 200.409 73.3671 200.648C73.7156 200.883 74.1568 201 74.6909 201ZM89.1357 202V190.364H93.2038C94.0144 190.364 94.683 190.504 95.2095 190.784C95.736 191.061 96.1281 191.434 96.3857 191.903C96.6432 192.369 96.772 192.886 96.772 193.455C96.772 193.955 96.683 194.367 96.505 194.693C96.3307 195.019 96.0997 195.277 95.8118 195.466C95.5277 195.655 95.219 195.795 94.8857 195.886V196C95.2417 196.023 95.5997 196.148 95.9595 196.375C96.3194 196.602 96.6205 196.928 96.8629 197.352C97.1054 197.777 97.2266 198.295 97.2266 198.909C97.2266 199.492 97.094 200.017 96.8288 200.483C96.5637 200.949 96.1451 201.318 95.5732 201.591C95.0012 201.864 94.2569 202 93.3402 202H89.1357ZM90.5447 200.75H93.3402C94.2607 200.75 94.9141 200.572 95.3004 200.216C95.6906 199.856 95.8857 199.42 95.8857 198.909C95.8857 198.515 95.7853 198.152 95.5845 197.818C95.3838 197.481 95.0978 197.212 94.7266 197.011C94.3554 196.807 93.916 196.705 93.4084 196.705H90.5447V200.75ZM90.5447 195.477H93.1584C93.5826 195.477 93.9652 195.394 94.3061 195.227C94.6508 195.061 94.9235 194.826 95.1243 194.523C95.3288 194.22 95.4311 193.864 95.4311 193.455C95.4311 192.943 95.2531 192.509 94.897 192.153C94.541 191.794 93.9766 191.614 93.2038 191.614H90.5447V195.477ZM103.688 202.205C103.135 202.205 102.633 202.1 102.183 201.892C101.732 201.68 101.374 201.375 101.109 200.977C100.844 200.576 100.711 200.091 100.711 199.523C100.711 199.023 100.809 198.617 101.006 198.307C101.203 197.992 101.467 197.746 101.796 197.568C102.126 197.39 102.489 197.258 102.887 197.17C103.289 197.08 103.692 197.008 104.097 196.955C104.628 196.886 105.058 196.835 105.387 196.801C105.72 196.763 105.963 196.701 106.114 196.614C106.27 196.527 106.347 196.375 106.347 196.159V196.114C106.347 195.553 106.194 195.117 105.887 194.807C105.584 194.496 105.124 194.341 104.506 194.341C103.866 194.341 103.364 194.481 103.001 194.761C102.637 195.042 102.381 195.341 102.234 195.659L100.961 195.205C101.188 194.674 101.491 194.261 101.87 193.966C102.253 193.667 102.669 193.458 103.12 193.341C103.575 193.22 104.022 193.159 104.461 193.159C104.741 193.159 105.063 193.193 105.427 193.261C105.794 193.326 106.148 193.46 106.489 193.665C106.834 193.869 107.12 194.178 107.347 194.591C107.575 195.004 107.688 195.557 107.688 196.25V202H106.347V200.818H106.279C106.188 201.008 106.037 201.21 105.825 201.426C105.613 201.642 105.33 201.826 104.978 201.977C104.626 202.129 104.196 202.205 103.688 202.205ZM103.893 201C104.423 201 104.87 200.896 105.234 200.688C105.601 200.479 105.878 200.21 106.063 199.881C106.253 199.551 106.347 199.205 106.347 198.841V197.614C106.291 197.682 106.166 197.744 105.972 197.801C105.783 197.854 105.563 197.902 105.313 197.943C105.067 197.981 104.827 198.015 104.592 198.045C104.361 198.072 104.173 198.095 104.029 198.114C103.681 198.159 103.355 198.233 103.052 198.335C102.753 198.434 102.51 198.583 102.325 198.784C102.143 198.981 102.052 199.25 102.052 199.591C102.052 200.057 102.224 200.409 102.569 200.648C102.917 200.883 103.359 201 103.893 201ZM115.441 202.182C114.623 202.182 113.918 201.989 113.328 201.602C112.737 201.216 112.282 200.684 111.964 200.006C111.646 199.328 111.487 198.553 111.487 197.682C111.487 196.795 111.649 196.013 111.975 195.335C112.305 194.653 112.763 194.121 113.35 193.739C113.941 193.352 114.631 193.159 115.418 193.159C116.032 193.159 116.585 193.273 117.078 193.5C117.57 193.727 117.973 194.045 118.288 194.455C118.602 194.864 118.797 195.341 118.873 195.886H117.532C117.43 195.489 117.203 195.136 116.85 194.83C116.502 194.519 116.032 194.364 115.441 194.364C114.918 194.364 114.46 194.5 114.066 194.773C113.676 195.042 113.371 195.422 113.151 195.915C112.935 196.403 112.828 196.977 112.828 197.636C112.828 198.311 112.934 198.898 113.146 199.398C113.362 199.898 113.665 200.286 114.055 200.562C114.449 200.839 114.911 200.977 115.441 200.977C115.79 200.977 116.106 200.917 116.39 200.795C116.674 200.674 116.915 200.5 117.112 200.273C117.309 200.045 117.449 199.773 117.532 199.455H118.873C118.797 199.97 118.61 200.434 118.31 200.847C118.015 201.256 117.623 201.581 117.134 201.824C116.649 202.062 116.085 202.182 115.441 202.182ZM123.843 198.818L123.82 197.159H124.093L127.911 193.273H129.57L125.502 197.386H125.389L123.843 198.818ZM122.593 202V190.364H123.934V202H122.593ZM128.139 202L124.73 197.682L125.684 196.75L129.843 202H128.139ZM133.056 205.273V193.273H134.352V194.659H134.511C134.609 194.508 134.746 194.314 134.92 194.08C135.098 193.841 135.352 193.629 135.681 193.443C136.015 193.254 136.465 193.159 137.034 193.159C137.768 193.159 138.416 193.343 138.977 193.71C139.537 194.078 139.975 194.598 140.289 195.273C140.604 195.947 140.761 196.742 140.761 197.659C140.761 198.583 140.604 199.384 140.289 200.062C139.975 200.737 139.539 201.259 138.982 201.631C138.426 201.998 137.784 202.182 137.056 202.182C136.496 202.182 136.047 202.089 135.71 201.903C135.373 201.714 135.113 201.5 134.931 201.261C134.75 201.019 134.609 200.818 134.511 200.659H134.397V205.273H133.056ZM134.375 197.636C134.375 198.295 134.471 198.877 134.664 199.381C134.857 199.881 135.14 200.273 135.511 200.557C135.882 200.837 136.337 200.977 136.875 200.977C137.435 200.977 137.903 200.83 138.278 200.534C138.657 200.235 138.941 199.833 139.13 199.33C139.323 198.822 139.42 198.258 139.42 197.636C139.42 197.023 139.325 196.47 139.136 195.977C138.95 195.481 138.668 195.089 138.289 194.801C137.914 194.509 137.443 194.364 136.875 194.364C136.329 194.364 135.871 194.502 135.5 194.778C135.128 195.051 134.848 195.434 134.659 195.926C134.469 196.415 134.375 196.985 134.375 197.636ZM147.135 202.205C146.581 202.205 146.08 202.1 145.629 201.892C145.178 201.68 144.82 201.375 144.555 200.977C144.29 200.576 144.157 200.091 144.157 199.523C144.157 199.023 144.256 198.617 144.453 198.307C144.65 197.992 144.913 197.746 145.242 197.568C145.572 197.39 145.936 197.258 146.333 197.17C146.735 197.08 147.138 197.008 147.544 196.955C148.074 196.886 148.504 196.835 148.833 196.801C149.167 196.763 149.409 196.701 149.561 196.614C149.716 196.527 149.794 196.375 149.794 196.159V196.114C149.794 195.553 149.64 195.117 149.333 194.807C149.03 194.496 148.57 194.341 147.953 194.341C147.313 194.341 146.811 194.481 146.447 194.761C146.083 195.042 145.828 195.341 145.68 195.659L144.407 195.205C144.635 194.674 144.938 194.261 145.316 193.966C145.699 193.667 146.116 193.458 146.566 193.341C147.021 193.22 147.468 193.159 147.907 193.159C148.188 193.159 148.51 193.193 148.873 193.261C149.241 193.326 149.595 193.46 149.936 193.665C150.28 193.869 150.566 194.178 150.794 194.591C151.021 195.004 151.135 195.557 151.135 196.25V202H149.794V200.818H149.725C149.635 201.008 149.483 201.21 149.271 201.426C149.059 201.642 148.777 201.826 148.424 201.977C148.072 202.129 147.642 202.205 147.135 202.205ZM147.339 201C147.869 201 148.316 200.896 148.68 200.688C149.047 200.479 149.324 200.21 149.51 199.881C149.699 199.551 149.794 199.205 149.794 198.841V197.614C149.737 197.682 149.612 197.744 149.419 197.801C149.229 197.854 149.01 197.902 148.76 197.943C148.513 197.981 148.273 198.015 148.038 198.045C147.807 198.072 147.619 198.095 147.475 198.114C147.127 198.159 146.801 198.233 146.498 198.335C146.199 198.434 145.956 198.583 145.771 198.784C145.589 198.981 145.498 199.25 145.498 199.591C145.498 200.057 145.671 200.409 146.015 200.648C146.364 200.883 146.805 201 147.339 201ZM158.887 202.182C158.069 202.182 157.365 201.989 156.774 201.602C156.183 201.216 155.728 200.684 155.41 200.006C155.092 199.328 154.933 198.553 154.933 197.682C154.933 196.795 155.096 196.013 155.422 195.335C155.751 194.653 156.209 194.121 156.797 193.739C157.387 193.352 158.077 193.159 158.865 193.159C159.478 193.159 160.031 193.273 160.524 193.5C161.016 193.727 161.42 194.045 161.734 194.455C162.048 194.864 162.243 195.341 162.319 195.886H160.978C160.876 195.489 160.649 195.136 160.297 194.83C159.948 194.519 159.478 194.364 158.887 194.364C158.365 194.364 157.906 194.5 157.512 194.773C157.122 195.042 156.817 195.422 156.598 195.915C156.382 196.403 156.274 196.977 156.274 197.636C156.274 198.311 156.38 198.898 156.592 199.398C156.808 199.898 157.111 200.286 157.501 200.562C157.895 200.839 158.357 200.977 158.887 200.977C159.236 200.977 159.552 200.917 159.836 200.795C160.12 200.674 160.361 200.5 160.558 200.273C160.755 200.045 160.895 199.773 160.978 199.455H162.319C162.243 199.97 162.056 200.434 161.757 200.847C161.461 201.256 161.069 201.581 160.581 201.824C160.096 202.062 159.531 202.182 158.887 202.182ZM167.289 198.818L167.267 197.159H167.539L171.358 193.273H173.017L168.949 197.386H168.835L167.289 198.818ZM166.039 202V190.364H167.38V202H166.039ZM171.585 202L168.176 197.682L169.13 196.75L173.289 202H171.585Z" fill="#484545"/>
<defs>
<filter id="filter0_d_123_6" x="4" y="177" width="183" height="48" filterUnits="userSpaceOnUse" color-interpolation-filters="sRGB">
<feFlood flood-opacity="0" result="BackgroundImageFix"/>
<feColorMatrix in="SourceAlpha" type="matrix" values="0 0 0 0 0 0 0 0 0 0 0 0 0 0 0 0 0 0 127 0" result="hardAlpha"/>
<feOffset dy="4"/>
<feGaussianBlur stdDeviation="2"/>
<feComposite in2="hardAlpha" operator="out"/>
<feColorMatrix type="matrix" values="0 0 0 0 0 0 0 0 0 0 0 0 0 0 0 0 0 0 0.25 0"/>
<feBlend mode="normal" in2="BackgroundImageFix" result="effect1_dropShadow_123_6"/>
<feBlend mode="normal" in="SourceGraphic" in2="effect1_dropShadow_123_6" result="shape"/>
</filter>
</defs>
</svg>
