<svg width="190" height="228" viewBox="0 0 190 228" fill="none" xmlns="http://www.w3.org/2000/svg">
<g filter="url(#filter0_d_123_6)">
<rect x="11" y="180" width="169" height="40" rx="5" fill="#5AA897" fill-opacity="0.4" shape-rendering="crispEdges"/>
</g>
<path fill-rule="evenodd" clip-rule="evenodd" d="M94.9636 21.1523C85.1215 21.1523 77.1428 29.131 77.1428 38.9732V60.6168H112.784V38.9732C112.784 29.131 104.806 21.1523 94.9636 21.1523ZM94.9636 28.6141C89.7318 28.6141 85.4905 32.8553 85.4905 38.0873V49.138H104.437V38.0873C104.437 32.8553 100.195 28.6141 94.9636 28.6141Z" fill="#F8A488"/>
<path d="M36.8907 115.279C37.2998 111.359 40.6048 108.381 44.5468 108.381C48.7982 108.381 52.2446 111.827 52.2446 116.078V134.771C52.2446 139.559 48.3627 143.441 43.5743 143.441C38.4297 143.441 34.4167 138.988 34.9506 133.871L36.8907 115.279Z" fill="#F8F5F1"/>
<path fill-rule="evenodd" clip-rule="evenodd" d="M55.2134 116.078V134.771C55.2134 141.199 50.0023 146.41 43.5743 146.41C36.6683 146.41 31.2812 140.432 31.9979 133.563L33.938 114.971C34.5049 109.538 39.0845 105.412 44.5468 105.412C50.4379 105.412 55.2134 110.187 55.2134 116.078ZM44.5468 108.381C40.6048 108.381 37.2998 111.359 36.8907 115.279L34.9506 133.871C34.4167 138.988 38.4297 143.441 43.5743 143.441C48.3627 143.441 52.2446 139.559 52.2446 134.771V116.078C52.2446 111.827 48.7982 108.381 44.5468 108.381Z" fill="#F8A488"/>
<path d="M153.109 115.279C152.701 111.359 149.395 108.381 145.453 108.381C141.202 108.381 137.755 111.827 137.755 116.078V134.771C137.755 139.559 141.637 143.441 146.426 143.441C151.57 143.441 155.583 138.988 155.049 133.871L153.109 115.279Z" fill="#F8F5F1"/>
<path fill-rule="evenodd" clip-rule="evenodd" d="M134.787 116.078V134.771C134.787 141.199 139.998 146.41 146.426 146.41C153.332 146.41 158.718 140.432 158.001 133.563L156.061 114.971C155.496 109.538 150.915 105.412 145.453 105.412C139.562 105.412 134.787 110.187 134.787 116.078ZM145.453 108.381C149.395 108.381 152.701 111.359 153.109 115.279L155.049 133.871C155.583 138.988 151.57 143.441 146.426 143.441C141.637 143.441 137.755 139.559 137.755 134.771V116.078C137.755 111.827 141.202 108.381 145.453 108.381Z" fill="#F8A488"/>
<path d="M48.7073 77.8676C50.5155 56.3375 68.5182 39.7836 90.1239 39.7836H100.069C121.675 39.7836 139.678 56.3377 141.486 77.8676L146.695 139.893C148.004 155.476 135.709 168.848 120.07 168.848H70.1228C54.4843 168.848 42.1889 155.476 43.4977 139.893L48.7073 77.8676Z" fill="#F8F5F1"/>
<path fill-rule="evenodd" clip-rule="evenodd" d="M90.1238 36.8149H100.069C123.218 36.8149 142.507 54.5514 144.444 77.6192L149.653 139.644C151.108 156.959 137.446 171.816 120.07 171.816H70.1228C52.7467 171.816 39.0851 156.959 40.5395 139.644L45.7489 77.6192C47.6863 54.5512 66.9749 36.8149 90.1238 36.8149ZM90.1238 39.7836C68.5182 39.7836 50.5155 56.3375 48.7073 77.8676L43.4978 139.893C42.1889 155.476 54.4843 168.848 70.1228 168.848H120.07C135.709 168.848 148.004 155.476 146.695 139.893L141.486 77.8676C139.678 56.3377 121.675 39.7836 100.069 39.7836H90.1238Z" fill="#F8A488"/>
<path d="M75.328 68.1753C75.328 64.8961 77.9862 62.2378 81.2655 62.2378H108.928C112.207 62.2378 114.865 64.896 114.865 68.1753V74.1079C114.865 77.387 112.207 80.0454 108.928 80.0454H81.2655C77.9862 80.0454 75.328 77.387 75.328 74.1079V68.1753ZM65.372 153.082C68.08 156.691 72.393 159.024 77.2509 159.024H123.444C131.641 159.024 138.287 152.379 138.287 144.18V126.443C138.287 121.585 135.954 117.272 132.346 114.564C132.685 115.667 132.867 116.839 132.867 118.054V141.729C132.867 148.287 127.551 153.605 120.992 153.605H68.8621C67.6476 153.605 66.4756 153.422 65.372 153.082Z" fill="#F8A488"/>
<path fill-rule="evenodd" clip-rule="evenodd" d="M68.8621 103.21H120.992C129.19 103.21 135.836 109.856 135.836 118.054V141.729C135.836 149.926 129.19 156.573 120.992 156.573H68.8621C60.6642 156.573 54.0183 149.926 54.0183 141.729V118.054C54.0183 109.856 60.6642 103.21 68.8621 103.21ZM68.8621 106.179C62.3036 106.179 56.9871 111.495 56.9871 118.054V141.729C56.9871 148.287 62.3036 153.605 68.8621 153.605H120.992C127.551 153.605 132.867 148.287 132.867 141.729V118.054C132.867 111.495 127.551 106.179 120.992 106.179H68.8621Z" fill="#F8A488"/>
<path fill-rule="evenodd" clip-rule="evenodd" d="M55.3334 124.302C55.3334 123.482 55.9979 122.817 56.8177 122.817H133.375C134.195 122.817 134.86 123.482 134.86 124.302C134.86 125.122 134.195 125.786 133.375 125.786H56.8177C55.9979 125.786 55.3334 125.122 55.3334 124.302Z" fill="#F8A488"/>
<path d="M111.807 121.467C111.975 120.347 113.066 119.51 114.358 119.51H114.828C116.12 119.51 117.212 120.347 117.38 121.467L119.001 132.274C119.35 134.602 117.278 136.666 114.593 136.666C111.909 136.666 109.836 134.602 110.186 132.274L111.807 121.467Z" fill="#F8A488"/>
<path d="M17.8938 193.364H19.5756L23.5301 203.023H23.6665L27.6211 193.364H29.3029V205H27.9847V196.159H27.8711L24.2347 205H22.962L19.3256 196.159H19.212V205H17.8938V193.364ZM36.2745 205.205C35.7215 205.205 35.2196 205.1 34.7688 204.892C34.3181 204.68 33.9601 204.375 33.695 203.977C33.4298 203.576 33.2972 203.091 33.2972 202.523C33.2972 202.023 33.3957 201.617 33.5927 201.307C33.7897 200.992 34.0529 200.746 34.3825 200.568C34.712 200.39 35.0757 200.258 35.4734 200.17C35.8749 200.08 36.2783 200.008 36.6836 199.955C37.2139 199.886 37.6438 199.835 37.9734 199.801C38.3067 199.763 38.5491 199.701 38.7007 199.614C38.856 199.527 38.9336 199.375 38.9336 199.159V199.114C38.9336 198.553 38.7802 198.117 38.4734 197.807C38.1704 197.496 37.7101 197.341 37.0927 197.341C36.4525 197.341 35.9507 197.481 35.587 197.761C35.2234 198.042 34.9677 198.341 34.82 198.659L33.5472 198.205C33.7745 197.674 34.0775 197.261 34.4563 196.966C34.8389 196.667 35.2556 196.458 35.7063 196.341C36.1609 196.22 36.6079 196.159 37.0472 196.159C37.3275 196.159 37.6495 196.193 38.0132 196.261C38.3806 196.326 38.7347 196.46 39.0757 196.665C39.4204 196.869 39.7063 197.178 39.9336 197.591C40.1609 198.004 40.2745 198.557 40.2745 199.25V205H38.9336V203.818H38.8654C38.7745 204.008 38.623 204.21 38.4109 204.426C38.1988 204.642 37.9166 204.826 37.5643 204.977C37.212 205.129 36.7821 205.205 36.2745 205.205ZM36.4791 204C37.0094 204 37.4563 203.896 37.82 203.688C38.1874 203.479 38.4639 203.21 38.6495 202.881C38.8389 202.551 38.9336 202.205 38.9336 201.841V200.614C38.8768 200.682 38.7518 200.744 38.5586 200.801C38.3692 200.854 38.1495 200.902 37.8995 200.943C37.6533 200.981 37.4128 201.015 37.1779 201.045C36.9469 201.072 36.7594 201.095 36.6154 201.114C36.2669 201.159 35.9412 201.233 35.6382 201.335C35.3389 201.434 35.0965 201.583 34.9109 201.784C34.7291 201.981 34.6382 202.25 34.6382 202.591C34.6382 203.057 34.8105 203.409 35.1552 203.648C35.5037 203.883 35.945 204 36.4791 204ZM45.732 201.818L45.7092 200.159H45.982L49.8001 196.273H51.4592L47.3911 200.386H47.2774L45.732 201.818ZM44.482 205V193.364H45.8229V205H44.482ZM50.0274 205L46.6183 200.682L47.5729 199.75L51.732 205H50.0274ZM58.2448 205.182C57.4039 205.182 56.6785 204.996 56.0687 204.625C55.4626 204.25 54.9948 203.727 54.6653 203.057C54.3395 202.383 54.1766 201.598 54.1766 200.705C54.1766 199.811 54.3395 199.023 54.6653 198.341C54.9948 197.655 55.4531 197.121 56.0403 196.739C56.6312 196.352 57.3206 196.159 58.1084 196.159C58.563 196.159 59.0118 196.235 59.455 196.386C59.8982 196.538 60.3016 196.784 60.6653 197.125C61.0289 197.462 61.3187 197.909 61.5346 198.466C61.7505 199.023 61.8584 199.708 61.8584 200.523V201.091H55.1312V199.932H60.4948C60.4948 199.439 60.3963 199 60.1993 198.614C60.0062 198.227 59.7296 197.922 59.3698 197.699C59.0137 197.475 58.5933 197.364 58.1084 197.364C57.5743 197.364 57.1122 197.496 56.7221 197.761C56.3357 198.023 56.0384 198.364 55.83 198.784C55.6217 199.205 55.5175 199.655 55.5175 200.136V200.909C55.5175 201.568 55.6312 202.127 55.8584 202.585C56.0895 203.04 56.4096 203.386 56.8187 203.625C57.2278 203.86 57.7031 203.977 58.2448 203.977C58.5971 203.977 58.9153 203.928 59.1993 203.83C59.4872 203.727 59.7353 203.576 59.9437 203.375C60.152 203.17 60.313 202.917 60.4266 202.614L61.7221 202.977C61.5857 203.417 61.3565 203.803 61.0346 204.136C60.7126 204.466 60.3149 204.723 59.8414 204.909C59.3679 205.091 58.8357 205.182 58.2448 205.182ZM74.4864 205.205C73.9334 205.205 73.4315 205.1 72.9807 204.892C72.53 204.68 72.172 204.375 71.9068 203.977C71.6417 203.576 71.5091 203.091 71.5091 202.523C71.5091 202.023 71.6076 201.617 71.8046 201.307C72.0015 200.992 72.2648 200.746 72.5943 200.568C72.9239 200.39 73.2875 200.258 73.6853 200.17C74.0868 200.08 74.4902 200.008 74.8955 199.955C75.4258 199.886 75.8557 199.835 76.1853 199.801C76.5186 199.763 76.761 199.701 76.9125 199.614C77.0678 199.527 77.1455 199.375 77.1455 199.159V199.114C77.1455 198.553 76.9921 198.117 76.6853 197.807C76.3822 197.496 75.922 197.341 75.3046 197.341C74.6644 197.341 74.1625 197.481 73.7989 197.761C73.4353 198.042 73.1796 198.341 73.0318 198.659L71.7591 198.205C71.9864 197.674 72.2894 197.261 72.6682 196.966C73.0508 196.667 73.4675 196.458 73.9182 196.341C74.3728 196.22 74.8197 196.159 75.2591 196.159C75.5394 196.159 75.8614 196.193 76.225 196.261C76.5925 196.326 76.9466 196.46 77.2875 196.665C77.6322 196.869 77.9182 197.178 78.1455 197.591C78.3728 198.004 78.4864 198.557 78.4864 199.25V205H77.1455V203.818H77.0773C76.9864 204.008 76.8349 204.21 76.6228 204.426C76.4106 204.642 76.1284 204.826 75.7762 204.977C75.4239 205.129 74.994 205.205 74.4864 205.205ZM74.6909 204C75.2212 204 75.6682 203.896 76.0318 203.688C76.3993 203.479 76.6758 203.21 76.8614 202.881C77.0508 202.551 77.1455 202.205 77.1455 201.841V200.614C77.0887 200.682 76.9637 200.744 76.7705 200.801C76.5811 200.854 76.3614 200.902 76.1114 200.943C75.8652 200.981 75.6246 201.015 75.3898 201.045C75.1587 201.072 74.9712 201.095 74.8273 201.114C74.4788 201.159 74.1531 201.233 73.85 201.335C73.5508 201.434 73.3084 201.583 73.1228 201.784C72.9409 201.981 72.85 202.25 72.85 202.591C72.85 203.057 73.0224 203.409 73.3671 203.648C73.7156 203.883 74.1568 204 74.6909 204ZM89.1357 205V193.364H93.2038C94.0144 193.364 94.683 193.504 95.2095 193.784C95.736 194.061 96.1281 194.434 96.3857 194.903C96.6432 195.369 96.772 195.886 96.772 196.455C96.772 196.955 96.683 197.367 96.505 197.693C96.3307 198.019 96.0997 198.277 95.8118 198.466C95.5277 198.655 95.219 198.795 94.8857 198.886V199C95.2417 199.023 95.5997 199.148 95.9595 199.375C96.3194 199.602 96.6205 199.928 96.8629 200.352C97.1054 200.777 97.2266 201.295 97.2266 201.909C97.2266 202.492 97.094 203.017 96.8288 203.483C96.5637 203.949 96.1451 204.318 95.5732 204.591C95.0012 204.864 94.2569 205 93.3402 205H89.1357ZM90.5447 203.75H93.3402C94.2607 203.75 94.9141 203.572 95.3004 203.216C95.6906 202.856 95.8857 202.42 95.8857 201.909C95.8857 201.515 95.7853 201.152 95.5845 200.818C95.3838 200.481 95.0978 200.212 94.7266 200.011C94.3554 199.807 93.916 199.705 93.4084 199.705H90.5447V203.75ZM90.5447 198.477H93.1584C93.5826 198.477 93.9652 198.394 94.3061 198.227C94.6508 198.061 94.9235 197.826 95.1243 197.523C95.3288 197.22 95.4311 196.864 95.4311 196.455C95.4311 195.943 95.2531 195.509 94.897 195.153C94.541 194.794 93.9766 194.614 93.2038 194.614H90.5447V198.477ZM103.688 205.205C103.135 205.205 102.633 205.1 102.183 204.892C101.732 204.68 101.374 204.375 101.109 203.977C100.844 203.576 100.711 203.091 100.711 202.523C100.711 202.023 100.809 201.617 101.006 201.307C101.203 200.992 101.467 200.746 101.796 200.568C102.126 200.39 102.489 200.258 102.887 200.17C103.289 200.08 103.692 200.008 104.097 199.955C104.628 199.886 105.058 199.835 105.387 199.801C105.72 199.763 105.963 199.701 106.114 199.614C106.27 199.527 106.347 199.375 106.347 199.159V199.114C106.347 198.553 106.194 198.117 105.887 197.807C105.584 197.496 105.124 197.341 104.506 197.341C103.866 197.341 103.364 197.481 103.001 197.761C102.637 198.042 102.381 198.341 102.234 198.659L100.961 198.205C101.188 197.674 101.491 197.261 101.87 196.966C102.253 196.667 102.669 196.458 103.12 196.341C103.575 196.22 104.022 196.159 104.461 196.159C104.741 196.159 105.063 196.193 105.427 196.261C105.794 196.326 106.148 196.46 106.489 196.665C106.834 196.869 107.12 197.178 107.347 197.591C107.575 198.004 107.688 198.557 107.688 199.25V205H106.347V203.818H106.279C106.188 204.008 106.037 204.21 105.825 204.426C105.613 204.642 105.33 204.826 104.978 204.977C104.626 205.129 104.196 205.205 103.688 205.205ZM103.893 204C104.423 204 104.87 203.896 105.234 203.688C105.601 203.479 105.878 203.21 106.063 202.881C106.253 202.551 106.347 202.205 106.347 201.841V200.614C106.291 200.682 106.166 200.744 105.972 200.801C105.783 200.854 105.563 200.902 105.313 200.943C105.067 200.981 104.827 201.015 104.592 201.045C104.361 201.072 104.173 201.095 104.029 201.114C103.681 201.159 103.355 201.233 103.052 201.335C102.753 201.434 102.51 201.583 102.325 201.784C102.143 201.981 102.052 202.25 102.052 202.591C102.052 203.057 102.224 203.409 102.569 203.648C102.917 203.883 103.359 204 103.893 204ZM115.441 205.182C114.623 205.182 113.918 204.989 113.328 204.602C112.737 204.216 112.282 203.684 111.964 203.006C111.646 202.328 111.487 201.553 111.487 200.682C111.487 199.795 111.649 199.013 111.975 198.335C112.305 197.653 112.763 197.121 113.35 196.739C113.941 196.352 114.631 196.159 115.418 196.159C116.032 196.159 116.585 196.273 117.078 196.5C117.57 196.727 117.973 197.045 118.288 197.455C118.602 197.864 118.797 198.341 118.873 198.886H117.532C117.43 198.489 117.203 198.136 116.85 197.83C116.502 197.519 116.032 197.364 115.441 197.364C114.918 197.364 114.46 197.5 114.066 197.773C113.676 198.042 113.371 198.422 113.151 198.915C112.935 199.403 112.828 199.977 112.828 200.636C112.828 201.311 112.934 201.898 113.146 202.398C113.362 202.898 113.665 203.286 114.055 203.562C114.449 203.839 114.911 203.977 115.441 203.977C115.79 203.977 116.106 203.917 116.39 203.795C116.674 203.674 116.915 203.5 117.112 203.273C117.309 203.045 117.449 202.773 117.532 202.455H118.873C118.797 202.97 118.61 203.434 118.31 203.847C118.015 204.256 117.623 204.581 117.134 204.824C116.649 205.062 116.085 205.182 115.441 205.182ZM123.843 201.818L123.82 200.159H124.093L127.911 196.273H129.57L125.502 200.386H125.389L123.843 201.818ZM122.593 205V193.364H123.934V205H122.593ZM128.139 205L124.73 200.682L125.684 199.75L129.843 205H128.139ZM133.056 208.273V196.273H134.352V197.659H134.511C134.609 197.508 134.746 197.314 134.92 197.08C135.098 196.841 135.352 196.629 135.681 196.443C136.015 196.254 136.465 196.159 137.034 196.159C137.768 196.159 138.416 196.343 138.977 196.71C139.537 197.078 139.975 197.598 140.289 198.273C140.604 198.947 140.761 199.742 140.761 200.659C140.761 201.583 140.604 202.384 140.289 203.062C139.975 203.737 139.539 204.259 138.982 204.631C138.426 204.998 137.784 205.182 137.056 205.182C136.496 205.182 136.047 205.089 135.71 204.903C135.373 204.714 135.113 204.5 134.931 204.261C134.75 204.019 134.609 203.818 134.511 203.659H134.397V208.273H133.056ZM134.375 200.636C134.375 201.295 134.471 201.877 134.664 202.381C134.857 202.881 135.14 203.273 135.511 203.557C135.882 203.837 136.337 203.977 136.875 203.977C137.435 203.977 137.903 203.83 138.278 203.534C138.657 203.235 138.941 202.833 139.13 202.33C139.323 201.822 139.42 201.258 139.42 200.636C139.42 200.023 139.325 199.47 139.136 198.977C138.95 198.481 138.668 198.089 138.289 197.801C137.914 197.509 137.443 197.364 136.875 197.364C136.329 197.364 135.871 197.502 135.5 197.778C135.128 198.051 134.848 198.434 134.659 198.926C134.469 199.415 134.375 199.985 134.375 200.636ZM147.135 205.205C146.581 205.205 146.08 205.1 145.629 204.892C145.178 204.68 144.82 204.375 144.555 203.977C144.29 203.576 144.157 203.091 144.157 202.523C144.157 202.023 144.256 201.617 144.453 201.307C144.65 200.992 144.913 200.746 145.242 200.568C145.572 200.39 145.936 200.258 146.333 200.17C146.735 200.08 147.138 200.008 147.544 199.955C148.074 199.886 148.504 199.835 148.833 199.801C149.167 199.763 149.409 199.701 149.561 199.614C149.716 199.527 149.794 199.375 149.794 199.159V199.114C149.794 198.553 149.64 198.117 149.333 197.807C149.03 197.496 148.57 197.341 147.953 197.341C147.313 197.341 146.811 197.481 146.447 197.761C146.083 198.042 145.828 198.341 145.68 198.659L144.407 198.205C144.635 197.674 144.938 197.261 145.316 196.966C145.699 196.667 146.116 196.458 146.566 196.341C147.021 196.22 147.468 196.159 147.907 196.159C148.188 196.159 148.51 196.193 148.873 196.261C149.241 196.326 149.595 196.46 149.936 196.665C150.28 196.869 150.566 197.178 150.794 197.591C151.021 198.004 151.135 198.557 151.135 199.25V205H149.794V203.818H149.725C149.635 204.008 149.483 204.21 149.271 204.426C149.059 204.642 148.777 204.826 148.424 204.977C148.072 205.129 147.642 205.205 147.135 205.205ZM147.339 204C147.869 204 148.316 203.896 148.68 203.688C149.047 203.479 149.324 203.21 149.51 202.881C149.699 202.551 149.794 202.205 149.794 201.841V200.614C149.737 200.682 149.612 200.744 149.419 200.801C149.229 200.854 149.01 200.902 148.76 200.943C148.513 200.981 148.273 201.015 148.038 201.045C147.807 201.072 147.619 201.095 147.475 201.114C147.127 201.159 146.801 201.233 146.498 201.335C146.199 201.434 145.956 201.583 145.771 201.784C145.589 201.981 145.498 202.25 145.498 202.591C145.498 203.057 145.671 203.409 146.015 203.648C146.364 203.883 146.805 204 147.339 204ZM158.887 205.182C158.069 205.182 157.365 204.989 156.774 204.602C156.183 204.216 155.728 203.684 155.41 203.006C155.092 202.328 154.933 201.553 154.933 200.682C154.933 199.795 155.096 199.013 155.422 198.335C155.751 197.653 156.209 197.121 156.797 196.739C157.387 196.352 158.077 196.159 158.865 196.159C159.478 196.159 160.031 196.273 160.524 196.5C161.016 196.727 161.42 197.045 161.734 197.455C162.048 197.864 162.243 198.341 162.319 198.886H160.978C160.876 198.489 160.649 198.136 160.297 197.83C159.948 197.519 159.478 197.364 158.887 197.364C158.365 197.364 157.906 197.5 157.512 197.773C157.122 198.042 156.817 198.422 156.598 198.915C156.382 199.403 156.274 199.977 156.274 200.636C156.274 201.311 156.38 201.898 156.592 202.398C156.808 202.898 157.111 203.286 157.501 203.562C157.895 203.839 158.357 203.977 158.887 203.977C159.236 203.977 159.552 203.917 159.836 203.795C160.12 203.674 160.361 203.5 160.558 203.273C160.755 203.045 160.895 202.773 160.978 202.455H162.319C162.243 202.97 162.056 203.434 161.757 203.847C161.461 204.256 161.069 204.581 160.581 204.824C160.096 205.062 159.531 205.182 158.887 205.182ZM167.289 201.818L167.267 200.159H167.539L171.358 196.273H173.017L168.949 200.386H168.835L167.289 201.818ZM166.039 205V193.364H167.38V205H166.039ZM171.585 205L168.176 200.682L169.13 199.75L173.289 205H171.585Z" fill="#484545"/>
<defs>
<filter id="filter0_d_123_6" x="7" y="180" width="177" height="48" filterUnits="userSpaceOnUse" color-interpolation-filters="sRGB">
<feFlood flood-opacity="0" result="BackgroundImageFix"/>
<feColorMatrix in="SourceAlpha" type="matrix" values="0 0 0 0 0 0 0 0 0 0 0 0 0 0 0 0 0 0 127 0" result="hardAlpha"/>
<feOffset dy="4"/>
<feGaussianBlur stdDeviation="2"/>
<feComposite in2="hardAlpha" operator="out"/>
<feColorMatrix type="matrix" values="0 0 0 0 0 0 0 0 0 0 0 0 0 0 0 0 0 0 0.25 0"/>
<feBlend mode="normal" in2="BackgroundImageFix" result="effect1_dropShadow_123_6"/>
<feBlend mode="normal" in="SourceGraphic" in2="effect1_dropShadow_123_6" result="shape"/>
</filter>
</defs>
</svg>
