<svg width="156" height="201" viewBox="0 0 156 201" fill="none" xmlns="http://www.w3.org/2000/svg">
<g filter="url(#filter0_d_123_4)">
<path d="M4 155C4 152.239 6.23858 150 9 150H147C149.761 150 152 152.239 152 155V188C152 190.761 149.761 193 147 193H9C6.23858 193 4 190.761 4 188V155Z" fill="#5AA897" fill-opacity="0.4" shape-rendering="crispEdges"/>
</g>
<path d="M14.2632 165.364H15.945L19.8995 175.023H20.0359L23.9904 165.364H25.6722V177H24.3541V168.159H24.2404L20.6041 177H19.3313L15.695 168.159H15.5813V177H14.2632V165.364ZM32.6439 177.205C32.0909 177.205 31.589 177.1 31.1382 176.892C30.6875 176.68 30.3295 176.375 30.0643 175.977C29.7992 175.576 29.6666 175.091 29.6666 174.523C29.6666 174.023 29.7651 173.617 29.9621 173.307C30.159 172.992 30.4223 172.746 30.7518 172.568C31.0814 172.39 31.445 172.258 31.8428 172.17C32.2443 172.08 32.6477 172.008 33.053 171.955C33.5833 171.886 34.0132 171.835 34.3428 171.801C34.6761 171.763 34.9185 171.701 35.07 171.614C35.2253 171.527 35.303 171.375 35.303 171.159V171.114C35.303 170.553 35.1496 170.117 34.8428 169.807C34.5397 169.496 34.0795 169.341 33.4621 169.341C32.8219 169.341 32.32 169.481 31.9564 169.761C31.5928 170.042 31.3371 170.341 31.1893 170.659L29.9166 170.205C30.1439 169.674 30.4469 169.261 30.8257 168.966C31.2083 168.667 31.625 168.458 32.0757 168.341C32.5303 168.22 32.9772 168.159 33.4166 168.159C33.6969 168.159 34.0189 168.193 34.3825 168.261C34.75 168.326 35.1041 168.46 35.445 168.665C35.7897 168.869 36.0757 169.178 36.303 169.591C36.5303 170.004 36.6439 170.557 36.6439 171.25V177H35.303V175.818H35.2348C35.1439 176.008 34.9924 176.21 34.7803 176.426C34.5681 176.642 34.2859 176.826 33.9337 176.977C33.5814 177.129 33.1515 177.205 32.6439 177.205ZM32.8484 176C33.3787 176 33.8257 175.896 34.1893 175.688C34.5568 175.479 34.8333 175.21 35.0189 174.881C35.2083 174.551 35.303 174.205 35.303 173.841V172.614C35.2462 172.682 35.1212 172.744 34.928 172.801C34.7386 172.854 34.5189 172.902 34.2689 172.943C34.0227 172.981 33.7822 173.015 33.5473 173.045C33.3162 173.072 33.1287 173.095 32.9848 173.114C32.6363 173.159 32.3106 173.233 32.0075 173.335C31.7083 173.434 31.4659 173.583 31.2803 173.784C31.0984 173.981 31.0075 174.25 31.0075 174.591C31.0075 175.057 31.1799 175.409 31.5246 175.648C31.8731 175.883 32.3143 176 32.8484 176ZM42.1013 173.818L42.0786 172.159H42.3513L46.1695 168.273H47.8286L43.7604 172.386H43.6468L42.1013 173.818ZM40.8513 177V165.364H42.1922V177H40.8513ZM46.3968 177L42.9877 172.682L43.9422 171.75L48.1013 177H46.3968ZM54.6142 177.182C53.7733 177.182 53.0479 176.996 52.438 176.625C51.832 176.25 51.3642 175.727 51.0346 175.057C50.7089 174.383 50.546 173.598 50.546 172.705C50.546 171.811 50.7089 171.023 51.0346 170.341C51.3642 169.655 51.8225 169.121 52.4096 168.739C53.0005 168.352 53.6899 168.159 54.4778 168.159C54.9324 168.159 55.3812 168.235 55.8244 168.386C56.2676 168.538 56.671 168.784 57.0346 169.125C57.3983 169.462 57.688 169.909 57.904 170.466C58.1199 171.023 58.2278 171.708 58.2278 172.523V173.091H51.5005V171.932H56.8642C56.8642 171.439 56.7657 171 56.5687 170.614C56.3755 170.227 56.099 169.922 55.7392 169.699C55.3831 169.475 54.9627 169.364 54.4778 169.364C53.9437 169.364 53.4816 169.496 53.0915 169.761C52.7051 170.023 52.4077 170.364 52.1994 170.784C51.9911 171.205 51.8869 171.655 51.8869 172.136V172.909C51.8869 173.568 52.0005 174.127 52.2278 174.585C52.4589 175.04 52.779 175.386 53.188 175.625C53.5971 175.86 54.0725 175.977 54.6142 175.977C54.9665 175.977 55.2846 175.928 55.5687 175.83C55.8566 175.727 56.1047 175.576 56.313 175.375C56.5214 175.17 56.6824 174.917 56.796 174.614L58.0915 174.977C57.9551 175.417 57.7259 175.803 57.404 176.136C57.082 176.466 56.6843 176.723 56.2108 176.909C55.7373 177.091 55.2051 177.182 54.6142 177.182ZM70.8558 177.205C70.3027 177.205 69.8008 177.1 69.3501 176.892C68.8993 176.68 68.5414 176.375 68.2762 175.977C68.0111 175.576 67.8785 175.091 67.8785 174.523C67.8785 174.023 67.977 173.617 68.174 173.307C68.3709 172.992 68.6342 172.746 68.9637 172.568C69.2933 172.39 69.6569 172.258 70.0546 172.17C70.4562 172.08 70.8596 172.008 71.2649 171.955C71.7952 171.886 72.2251 171.835 72.5546 171.801C72.888 171.763 73.1304 171.701 73.2819 171.614C73.4372 171.527 73.5149 171.375 73.5149 171.159V171.114C73.5149 170.553 73.3615 170.117 73.0546 169.807C72.7516 169.496 72.2914 169.341 71.674 169.341C71.0338 169.341 70.5319 169.481 70.1683 169.761C69.8046 170.042 69.549 170.341 69.4012 170.659L68.1285 170.205C68.3558 169.674 68.6588 169.261 69.0376 168.966C69.4202 168.667 69.8368 168.458 70.2876 168.341C70.7421 168.22 71.1891 168.159 71.6285 168.159C71.9088 168.159 72.2308 168.193 72.5944 168.261C72.9618 168.326 73.316 168.46 73.6569 168.665C74.0016 168.869 74.2876 169.178 74.5149 169.591C74.7421 170.004 74.8558 170.557 74.8558 171.25V177H73.5149V175.818H73.4467C73.3558 176.008 73.2043 176.21 72.9921 176.426C72.78 176.642 72.4978 176.826 72.1455 176.977C71.7933 177.129 71.3633 177.205 70.8558 177.205ZM71.0603 176C71.5906 176 72.0376 175.896 72.4012 175.688C72.7687 175.479 73.0452 175.21 73.2308 174.881C73.4202 174.551 73.5149 174.205 73.5149 173.841V172.614C73.458 172.682 73.333 172.744 73.1399 172.801C72.9505 172.854 72.7308 172.902 72.4808 172.943C72.2346 172.981 71.994 173.015 71.7592 173.045C71.5281 173.072 71.3406 173.095 71.1967 173.114C70.8482 173.159 70.5224 173.233 70.2194 173.335C69.9202 173.434 69.6777 173.583 69.4921 173.784C69.3103 173.981 69.2194 174.25 69.2194 174.591C69.2194 175.057 69.3918 175.409 69.7365 175.648C70.0849 175.883 70.5262 176 71.0603 176ZM85.505 177V165.364H89.5732C90.3838 165.364 91.0524 165.504 91.5789 165.784C92.1054 166.061 92.4975 166.434 92.755 166.903C93.0126 167.369 93.1414 167.886 93.1414 168.455C93.1414 168.955 93.0524 169.367 92.8743 169.693C92.7001 170.019 92.469 170.277 92.1812 170.466C91.8971 170.655 91.5884 170.795 91.255 170.886V171C91.6111 171.023 91.969 171.148 92.3289 171.375C92.6887 171.602 92.9899 171.928 93.2323 172.352C93.4747 172.777 93.5959 173.295 93.5959 173.909C93.5959 174.492 93.4634 175.017 93.1982 175.483C92.9331 175.949 92.5145 176.318 91.9425 176.591C91.3706 176.864 90.6262 177 89.7096 177H85.505ZM86.9141 175.75H89.7096C90.63 175.75 91.2834 175.572 91.6698 175.216C92.06 174.856 92.255 174.42 92.255 173.909C92.255 173.515 92.1547 173.152 91.9539 172.818C91.7531 172.481 91.4672 172.212 91.0959 172.011C90.7247 171.807 90.2853 171.705 89.7778 171.705H86.9141V175.75ZM86.9141 170.477H89.5278C89.952 170.477 90.3346 170.394 90.6755 170.227C91.0202 170.061 91.2929 169.826 91.4937 169.523C91.6982 169.22 91.8005 168.864 91.8005 168.455C91.8005 167.943 91.6225 167.509 91.2664 167.153C90.9103 166.794 90.3459 166.614 89.5732 166.614H86.9141V170.477ZM100.058 177.205C99.5046 177.205 99.0027 177.1 98.552 176.892C98.1012 176.68 97.7433 176.375 97.4781 175.977C97.2129 175.576 97.0804 175.091 97.0804 174.523C97.0804 174.023 97.1789 173.617 97.3758 173.307C97.5728 172.992 97.8361 172.746 98.1656 172.568C98.4951 172.39 98.8588 172.258 99.2565 172.17C99.658 172.08 100.061 172.008 100.467 171.955C100.997 171.886 101.427 171.835 101.757 171.801C102.09 171.763 102.332 171.701 102.484 171.614C102.639 171.527 102.717 171.375 102.717 171.159V171.114C102.717 170.553 102.563 170.117 102.257 169.807C101.953 169.496 101.493 169.341 100.876 169.341C100.236 169.341 99.7338 169.481 99.3701 169.761C99.0065 170.042 98.7508 170.341 98.6031 170.659L97.3304 170.205C97.5576 169.674 97.8607 169.261 98.2395 168.966C98.622 168.667 99.0387 168.458 99.4895 168.341C99.944 168.22 100.391 168.159 100.83 168.159C101.111 168.159 101.433 168.193 101.796 168.261C102.164 168.326 102.518 168.46 102.859 168.665C103.203 168.869 103.489 169.178 103.717 169.591C103.944 170.004 104.058 170.557 104.058 171.25V177H102.717V175.818H102.649C102.558 176.008 102.406 176.21 102.194 176.426C101.982 176.642 101.7 176.826 101.347 176.977C100.995 177.129 100.565 177.205 100.058 177.205ZM100.262 176C100.792 176 101.239 175.896 101.603 175.688C101.971 175.479 102.247 175.21 102.433 174.881C102.622 174.551 102.717 174.205 102.717 173.841V172.614C102.66 172.682 102.535 172.744 102.342 172.801C102.152 172.854 101.933 172.902 101.683 172.943C101.436 172.981 101.196 173.015 100.961 173.045C100.73 173.072 100.542 173.095 100.399 173.114C100.05 173.159 99.7243 173.233 99.4213 173.335C99.122 173.434 98.8796 173.583 98.694 173.784C98.5122 173.981 98.4213 174.25 98.4213 174.591C98.4213 175.057 98.5936 175.409 98.9383 175.648C99.2868 175.883 99.7281 176 100.262 176ZM114.447 170.227L113.242 170.568C113.167 170.367 113.055 170.172 112.907 169.983C112.763 169.79 112.566 169.631 112.316 169.506C112.066 169.381 111.746 169.318 111.356 169.318C110.822 169.318 110.377 169.441 110.021 169.688C109.668 169.93 109.492 170.239 109.492 170.614C109.492 170.947 109.614 171.21 109.856 171.403C110.098 171.597 110.477 171.758 110.992 171.886L112.288 172.205C113.068 172.394 113.65 172.684 114.032 173.074C114.415 173.46 114.606 173.958 114.606 174.568C114.606 175.068 114.462 175.515 114.174 175.909C113.89 176.303 113.492 176.614 112.981 176.841C112.47 177.068 111.875 177.182 111.197 177.182C110.307 177.182 109.57 176.989 108.987 176.602C108.403 176.216 108.034 175.652 107.879 174.909L109.151 174.591C109.273 175.061 109.502 175.413 109.839 175.648C110.18 175.883 110.625 176 111.174 176C111.799 176 112.295 175.867 112.663 175.602C113.034 175.333 113.22 175.011 113.22 174.636C113.22 174.333 113.114 174.08 112.901 173.875C112.689 173.667 112.364 173.511 111.924 173.409L110.47 173.068C109.67 172.879 109.083 172.585 108.708 172.188C108.337 171.786 108.151 171.284 108.151 170.682C108.151 170.189 108.29 169.754 108.566 169.375C108.847 168.996 109.227 168.699 109.708 168.483C110.193 168.267 110.742 168.159 111.356 168.159C112.22 168.159 112.898 168.348 113.39 168.727C113.886 169.106 114.239 169.606 114.447 170.227ZM119.634 173.818L119.612 172.159H119.884L123.703 168.273H125.362L121.294 172.386H121.18L119.634 173.818ZM118.384 177V165.364H119.725V177H118.384ZM123.93 177L120.521 172.682L121.475 171.75L125.634 177H123.93ZM132.147 177.182C131.306 177.182 130.581 176.996 129.971 176.625C129.365 176.25 128.897 175.727 128.568 175.057C128.242 174.383 128.079 173.598 128.079 172.705C128.079 171.811 128.242 171.023 128.568 170.341C128.897 169.655 129.356 169.121 129.943 168.739C130.534 168.352 131.223 168.159 132.011 168.159C132.465 168.159 132.914 168.235 133.358 168.386C133.801 168.538 134.204 168.784 134.568 169.125C134.931 169.462 135.221 169.909 135.437 170.466C135.653 171.023 135.761 171.708 135.761 172.523V173.091H129.034V171.932H134.397C134.397 171.439 134.299 171 134.102 170.614C133.909 170.227 133.632 169.922 133.272 169.699C132.916 169.475 132.496 169.364 132.011 169.364C131.477 169.364 131.015 169.496 130.625 169.761C130.238 170.023 129.941 170.364 129.733 170.784C129.524 171.205 129.42 171.655 129.42 172.136V172.909C129.42 173.568 129.534 174.127 129.761 174.585C129.992 175.04 130.312 175.386 130.721 175.625C131.13 175.86 131.606 175.977 132.147 175.977C132.5 175.977 132.818 175.928 133.102 175.83C133.39 175.727 133.638 175.576 133.846 175.375C134.055 175.17 134.215 174.917 134.329 174.614L135.625 174.977C135.488 175.417 135.259 175.803 134.937 176.136C134.615 176.466 134.217 176.723 133.744 176.909C133.27 177.091 132.738 177.182 132.147 177.182ZM143.356 168.273V169.409H138.833V168.273H143.356ZM140.152 166.182H141.493V174.5C141.493 174.879 141.547 175.163 141.657 175.352C141.771 175.538 141.915 175.663 142.089 175.727C142.267 175.788 142.455 175.818 142.652 175.818C142.799 175.818 142.921 175.811 143.015 175.795C143.11 175.777 143.186 175.761 143.243 175.75L143.515 176.955C143.424 176.989 143.297 177.023 143.135 177.057C142.972 177.095 142.765 177.114 142.515 177.114C142.136 177.114 141.765 177.032 141.402 176.869C141.042 176.706 140.743 176.458 140.504 176.125C140.269 175.792 140.152 175.371 140.152 174.864V166.182Z" fill="#484545"/>
<path d="M119.227 143.789H36.8203C31.0547 143.789 26.0625 139.688 24.9844 134.063L10.8281 76.2188C10.6875 75.6094 11.0625 74.9766 11.6719 74.8125C12.3047 74.6719 12.914 75.0469 13.0781 75.6562L27.2344 133.547C28.125 138.164 32.1562 141.469 36.8203 141.469H119.227C123.867 141.469 127.898 138.164 128.812 133.594L142.969 75.6562C143.109 75.0469 143.742 74.6719 144.375 74.8125C144.984 74.9531 145.359 75.5859 145.219 76.2188L131.062 134.109C130.506 136.839 129.024 139.293 126.868 141.057C124.711 142.82 122.012 143.785 119.227 143.789Z" fill="#5AA897"/>
<path d="M78 133.594C75.4453 133.594 73.3828 131.531 73.3828 128.977V88.9687C73.3828 86.4141 75.4453 84.3516 78 84.3516C80.5547 84.3516 82.6172 86.4141 82.6172 88.9687V128.977C82.6172 131.508 80.5547 133.594 78 133.594ZM78 86.6719C76.7344 86.6719 75.7031 87.7031 75.7031 88.9687V128.977C75.7031 130.242 76.7344 131.273 78 131.273C79.2656 131.273 80.2969 130.242 80.2969 128.977V88.9687C80.3003 88.6662 80.2433 88.3659 80.1291 88.0857C80.0149 87.8055 79.8458 87.5509 79.6318 87.3369C79.4179 87.1229 79.1633 86.9539 78.883 86.8397C78.6028 86.7255 78.3026 86.6684 78 86.6719ZM61.7812 133.594C60.6289 133.598 59.517 133.169 58.6661 132.392C57.8152 131.615 57.2874 130.546 57.1875 129.398L53.6016 89.5547C53.4844 88.3359 53.8594 87.1406 54.6563 86.1797C55.4531 85.2422 56.5547 84.6562 57.7969 84.5391C60.3281 84.3047 62.5781 86.2031 62.8125 88.7344L66.3984 128.578C66.5156 129.797 66.1406 130.992 65.3438 131.953C64.5469 132.891 63.4453 133.477 62.2031 133.594C62.0625 133.57 61.9219 133.594 61.7812 133.594ZM58.1719 86.8125H57.9844C57.375 86.8594 56.8125 87.1641 56.4375 87.6328C56.0391 88.1016 55.8516 88.7109 55.8984 89.3203L59.4844 129.164C59.6016 130.336 60.6094 131.273 61.7812 131.273H61.9922C62.6034 131.218 63.168 130.923 63.5631 130.454C63.9581 129.984 64.1517 129.377 64.1016 128.766L60.5156 88.9219C60.3984 87.7266 59.3672 86.8125 58.1719 86.8125ZM45.1172 133.594C42.8438 133.594 40.9219 131.953 40.5703 129.703L34.2656 90.1641C34.0781 88.9453 34.3594 87.7266 35.0859 86.7187C35.8125 85.7109 36.8906 85.0547 38.1094 84.8672C40.6406 84.4687 42.9844 86.1797 43.3828 88.6875L49.6875 128.227C50.0859 130.734 48.375 133.102 45.8438 133.5C45.6094 133.57 45.3516 133.594 45.1172 133.594ZM38.8125 87.1172C38.6953 87.1172 38.5781 87.1172 38.4375 87.1406C37.8281 87.2344 37.2891 87.5625 36.9375 88.0547C36.5859 88.5469 36.4219 89.1562 36.5391 89.7656L42.8438 129.328C43.0312 130.57 44.2031 131.461 45.4922 131.25C46.7578 131.062 47.6016 129.867 47.4141 128.602L41.1094 89.0625C41.0171 88.5196 40.7361 88.0267 40.3159 87.6708C39.8956 87.3148 39.3632 87.1188 38.8125 87.1172ZM94.2422 133.594C94.1016 133.594 93.9609 133.594 93.8203 133.57C92.5781 133.453 91.4766 132.867 90.6797 131.93C89.8828 130.992 89.5078 129.797 89.625 128.555L93.2109 88.7109C93.4453 86.1797 95.7188 84.3047 98.2266 84.5156C99.4688 84.6328 100.57 85.2187 101.367 86.1562C102.164 87.0937 102.539 88.2891 102.422 89.5312L98.8359 129.375C98.625 131.789 96.6328 133.594 94.2422 133.594ZM97.8281 86.8125C96.6562 86.8125 95.625 87.7266 95.5078 88.9219L91.9219 128.766C91.875 129.375 92.0625 129.984 92.4375 130.453C92.8359 130.922 93.375 131.227 94.0078 131.273H94.2187C95.3906 131.273 96.3984 130.359 96.5156 129.164L100.102 89.3203C100.152 88.7086 99.9581 88.1019 99.5631 87.6322C99.168 87.1625 98.6034 86.8679 97.9922 86.8125H97.8281ZM110.883 133.594C110.648 133.594 110.391 133.57 110.156 133.523C108.938 133.336 107.859 132.68 107.133 131.672C106.406 130.664 106.125 129.445 106.313 128.227L112.617 88.6875C113.016 86.1797 115.383 84.4687 117.891 84.8672C120.398 85.2656 122.133 87.6328 121.734 90.1406L115.43 129.703C115.266 130.79 114.717 131.782 113.882 132.496C113.046 133.211 111.982 133.6 110.883 133.594ZM117.188 87.1172C116.062 87.1172 115.078 87.9375 114.914 89.0625L108.609 128.625C108.516 129.234 108.656 129.844 109.008 130.336C109.359 130.828 109.898 131.156 110.508 131.25C110.808 131.3 111.115 131.29 111.412 131.22C111.708 131.15 111.988 131.022 112.234 130.843C112.481 130.664 112.689 130.438 112.847 130.178C113.006 129.918 113.111 129.629 113.156 129.328L119.461 89.7891C119.51 89.4889 119.499 89.182 119.428 88.8861C119.358 88.5902 119.23 88.3111 119.051 88.0649C118.872 87.8188 118.647 87.6104 118.387 87.4518C118.128 87.2931 117.84 87.1874 117.539 87.1406C117.445 87.1172 117.328 87.1172 117.188 87.1172ZM144.305 77.1094H11.9531C6.91406 77.1094 3 73.1953 3 68.4141V65.4844C3 60.6797 6.91406 56.7891 11.7188 56.7891H28.1719C28.4765 56.7891 28.7686 56.9101 28.9839 57.1254C29.1993 57.3408 29.3203 57.6329 29.3203 57.9375C29.3203 58.2421 29.1993 58.5342 28.9839 58.7496C28.7686 58.9649 28.4765 59.0859 28.1719 59.0859H11.7188C8.17969 59.0859 5.29688 61.9453 5.29688 65.4844V68.4141C5.29688 71.9297 8.17969 74.8125 11.7188 74.8125H144.305C147.82 74.8125 150.703 71.9531 150.703 68.4141V65.4844C150.703 61.9688 147.844 59.0859 144.305 59.0859H127.852C127.547 59.0859 127.255 58.9649 127.039 58.7496C126.824 58.5342 126.703 58.2421 126.703 57.9375C126.703 57.6329 126.824 57.3408 127.039 57.1254C127.255 56.9101 127.547 56.7891 127.852 56.7891H144.305C149.109 56.7891 153 60.7031 153 65.4844V68.4141C153 73.1953 149.086 77.1094 144.305 77.1094Z" fill="#5AA897"/>
<path d="M111.375 59.0859H44.625C44.3204 59.0859 44.0283 58.9649 43.8129 58.7496C43.5976 58.5342 43.4766 58.2421 43.4766 57.9375C43.4766 57.6329 43.5976 57.3408 43.8129 57.1254C44.0283 56.9101 44.3204 56.7891 44.625 56.7891H111.352C111.984 56.7891 112.5 57.3047 112.5 57.9375C112.523 58.5703 112.008 59.0859 111.375 59.0859Z" fill="#5AA897"/>
<path d="M31.8554 74.9339C30.6601 74.9339 29.4882 74.6995 28.3866 74.2073C27.3319 73.7607 26.3788 73.1046 25.5851 72.2787C24.7914 71.4528 24.1737 70.4743 23.7694 69.4027C22.9491 67.2698 22.996 64.9261 23.9569 62.8402L47.1366 11.7933C47.8294 10.2811 48.9423 9.00001 50.3426 8.10247C51.743 7.20492 53.3718 6.72879 55.0351 6.73078C56.371 6.77766 57.4491 6.98859 58.5038 7.45734C60.6601 8.39484 62.3007 10.1058 63.1444 12.262C63.9648 14.3948 63.8944 16.7386 62.9569 18.8245L39.7538 69.8948C39.0571 71.4022 37.9427 72.6782 36.5427 73.5713C35.1428 74.4645 33.516 74.9374 31.8554 74.9339ZM54.9882 9.05109C52.5272 9.05109 50.2538 10.5042 49.2226 12.7542L26.0429 63.8011C25.3397 65.3245 25.2929 67.0355 25.9022 68.5823C26.5116 70.1761 27.7069 71.4183 29.3007 72.098C32.4179 73.4573 36.2616 71.9808 37.6444 68.9339L60.8241 17.887C61.5272 16.3636 61.5741 14.6527 60.9648 13.1058C60.6633 12.3217 60.207 11.6063 59.6231 11.0023C59.0393 10.3983 58.3398 9.91804 57.5663 9.59015C56.7929 9.23859 55.996 9.09797 54.9882 9.05109Z" fill="#F6B64E"/>
<path d="M124.971 70.8654C121.877 70.8654 119.346 68.3341 119.346 65.2404C119.346 62.1466 121.877 59.6154 124.971 59.6154C128.065 59.6154 130.596 62.1466 130.596 65.2404C130.596 68.3341 128.065 70.8654 124.971 70.8654ZM124.971 61.9123C123.143 61.9123 121.666 63.3888 121.666 65.2404C121.666 67.0685 123.143 68.5451 124.971 68.5451C126.799 68.5451 128.276 67.0685 128.276 65.2404C128.276 63.4123 126.799 61.9123 124.971 61.9123Z" fill="#34495C"/>
<path d="M124.279 74.9339C120.88 74.9339 117.787 72.9417 116.38 69.8714L93.2007 18.848C92.2398 16.7386 92.1694 14.4183 92.9898 12.262L94.0679 12.6839L92.9898 12.262C93.8335 10.0823 95.4741 8.39484 97.6304 7.45734C98.6616 7.01202 99.7632 6.77765 101.052 6.73077C104.498 6.73077 107.591 8.72296 108.974 11.7933L132.154 62.8401C133.115 64.9495 133.185 67.2698 132.341 69.4026C131.498 71.5589 129.857 73.2698 127.724 74.2073C126.646 74.6995 125.474 74.9339 124.279 74.9339ZM101.099 9.05109C100.115 9.09796 99.3179 9.23859 98.5444 9.59015C96.9741 10.2698 95.7554 11.512 95.146 13.1058C94.5601 14.6761 94.6069 16.3636 95.2866 17.887L118.466 68.9339C119.498 71.1839 121.771 72.637 124.255 72.637C125.146 72.637 125.99 72.4495 126.81 72.098C127.584 71.7701 128.283 71.2898 128.867 70.6858C129.451 70.0818 129.907 69.3664 130.209 68.5823C130.818 67.012 130.771 65.3245 130.068 63.8011L106.888 12.7542C106.382 11.6449 105.567 10.7053 104.54 10.0484C103.513 9.39141 102.318 9.04511 101.099 9.05109Z" fill="#F6B64E"/>
<path d="M30.7404 70.8654C27.6466 70.8654 25.1154 68.3341 25.1154 65.2404C25.1154 62.1466 27.6466 59.6154 30.7404 59.6154C33.8341 59.6154 36.3654 62.1466 36.3654 65.2404C36.3654 68.3341 33.8341 70.8654 30.7404 70.8654ZM30.7404 61.9123C28.9123 61.9123 27.4357 63.3888 27.4357 65.2404C27.4357 67.0685 28.9123 68.5451 30.7404 68.5451C32.5685 68.5451 34.0451 67.0685 34.0451 65.2404C34.0451 63.4123 32.5685 61.9123 30.7404 61.9123Z" fill="#34495C"/>
<defs>
<filter id="filter0_d_123_4" x="0" y="150" width="156" height="51" filterUnits="userSpaceOnUse" color-interpolation-filters="sRGB">
<feFlood flood-opacity="0" result="BackgroundImageFix"/>
<feColorMatrix in="SourceAlpha" type="matrix" values="0 0 0 0 0 0 0 0 0 0 0 0 0 0 0 0 0 0 127 0" result="hardAlpha"/>
<feOffset dy="4"/>
<feGaussianBlur stdDeviation="2"/>
<feComposite in2="hardAlpha" operator="out"/>
<feColorMatrix type="matrix" values="0 0 0 0 0 0 0 0 0 0 0 0 0 0 0 0 0 0 0.25 0"/>
<feBlend mode="normal" in2="BackgroundImageFix" result="effect1_dropShadow_123_4"/>
<feBlend mode="normal" in="SourceGraphic" in2="effect1_dropShadow_123_4" result="shape"/>
</filter>
</defs>
</svg>
