<svg width="183" height="198" viewBox="0 0 183 198" fill="none" xmlns="http://www.w3.org/2000/svg">
<g filter="url(#filter0_d_123_4)">
<path d="M4 155C4 152.239 6.23858 150 9 150H174C176.761 150 179 152.239 179 155V185C179 187.761 176.761 190 174 190H9C6.23858 190 4 187.761 4 185V155Z" fill="#5AA897" fill-opacity="0.4" shape-rendering="crispEdges"/>
</g>
<path d="M27.2632 163.364H28.945L32.8995 173.023H33.0359L36.9904 163.364H38.6722V175H37.3541V166.159H37.2404L33.6041 175H32.3313L28.695 166.159H28.5813V175H27.2632V163.364ZM45.6439 175.205C45.0909 175.205 44.589 175.1 44.1382 174.892C43.6875 174.68 43.3295 174.375 43.0643 173.977C42.7992 173.576 42.6666 173.091 42.6666 172.523C42.6666 172.023 42.7651 171.617 42.9621 171.307C43.159 170.992 43.4223 170.746 43.7518 170.568C44.0814 170.39 44.445 170.258 44.8428 170.17C45.2443 170.08 45.6477 170.008 46.053 169.955C46.5833 169.886 47.0132 169.835 47.3428 169.801C47.6761 169.763 47.9185 169.701 48.07 169.614C48.2253 169.527 48.303 169.375 48.303 169.159V169.114C48.303 168.553 48.1496 168.117 47.8428 167.807C47.5397 167.496 47.0795 167.341 46.4621 167.341C45.8219 167.341 45.32 167.481 44.9564 167.761C44.5928 168.042 44.3371 168.341 44.1893 168.659L42.9166 168.205C43.1439 167.674 43.4469 167.261 43.8257 166.966C44.2083 166.667 44.625 166.458 45.0757 166.341C45.5303 166.22 45.9772 166.159 46.4166 166.159C46.6969 166.159 47.0189 166.193 47.3825 166.261C47.75 166.326 48.1041 166.46 48.445 166.665C48.7897 166.869 49.0757 167.178 49.303 167.591C49.5303 168.004 49.6439 168.557 49.6439 169.25V175H48.303V173.818H48.2348C48.1439 174.008 47.9924 174.21 47.7803 174.426C47.5681 174.642 47.2859 174.826 46.9337 174.977C46.5814 175.129 46.1515 175.205 45.6439 175.205ZM45.8484 174C46.3787 174 46.8257 173.896 47.1893 173.688C47.5568 173.479 47.8333 173.21 48.0189 172.881C48.2083 172.551 48.303 172.205 48.303 171.841V170.614C48.2462 170.682 48.1212 170.744 47.928 170.801C47.7386 170.854 47.5189 170.902 47.2689 170.943C47.0227 170.981 46.7822 171.015 46.5473 171.045C46.3162 171.072 46.1287 171.095 45.9848 171.114C45.6363 171.159 45.3106 171.233 45.0075 171.335C44.7083 171.434 44.4659 171.583 44.2803 171.784C44.0984 171.981 44.0075 172.25 44.0075 172.591C44.0075 173.057 44.1799 173.409 44.5246 173.648C44.8731 173.883 45.3143 174 45.8484 174ZM55.1013 171.818L55.0786 170.159H55.3513L59.1695 166.273H60.8286L56.7604 170.386H56.6468L55.1013 171.818ZM53.8513 175V163.364H55.1922V175H53.8513ZM59.3968 175L55.9877 170.682L56.9422 169.75L61.1013 175H59.3968ZM67.6142 175.182C66.7733 175.182 66.0479 174.996 65.438 174.625C64.832 174.25 64.3642 173.727 64.0346 173.057C63.7089 172.383 63.546 171.598 63.546 170.705C63.546 169.811 63.7089 169.023 64.0346 168.341C64.3642 167.655 64.8225 167.121 65.4096 166.739C66.0005 166.352 66.6899 166.159 67.4778 166.159C67.9324 166.159 68.3812 166.235 68.8244 166.386C69.2676 166.538 69.671 166.784 70.0346 167.125C70.3983 167.462 70.688 167.909 70.904 168.466C71.1199 169.023 71.2278 169.708 71.2278 170.523V171.091H64.5005V169.932H69.8642C69.8642 169.439 69.7657 169 69.5687 168.614C69.3755 168.227 69.099 167.922 68.7392 167.699C68.3831 167.475 67.9627 167.364 67.4778 167.364C66.9437 167.364 66.4816 167.496 66.0915 167.761C65.7051 168.023 65.4077 168.364 65.1994 168.784C64.9911 169.205 64.8869 169.655 64.8869 170.136V170.909C64.8869 171.568 65.0005 172.127 65.2278 172.585C65.4589 173.04 65.779 173.386 66.188 173.625C66.5971 173.86 67.0725 173.977 67.6142 173.977C67.9665 173.977 68.2846 173.928 68.5687 173.83C68.8566 173.727 69.1047 173.576 69.313 173.375C69.5214 173.17 69.6824 172.917 69.796 172.614L71.0915 172.977C70.9551 173.417 70.7259 173.803 70.404 174.136C70.082 174.466 69.6843 174.723 69.2108 174.909C68.7373 175.091 68.2051 175.182 67.6142 175.182ZM83.8558 175.205C83.3027 175.205 82.8008 175.1 82.3501 174.892C81.8993 174.68 81.5414 174.375 81.2762 173.977C81.0111 173.576 80.8785 173.091 80.8785 172.523C80.8785 172.023 80.977 171.617 81.174 171.307C81.3709 170.992 81.6342 170.746 81.9637 170.568C82.2933 170.39 82.6569 170.258 83.0546 170.17C83.4562 170.08 83.8596 170.008 84.2649 169.955C84.7952 169.886 85.2251 169.835 85.5546 169.801C85.888 169.763 86.1304 169.701 86.2819 169.614C86.4372 169.527 86.5149 169.375 86.5149 169.159V169.114C86.5149 168.553 86.3615 168.117 86.0546 167.807C85.7516 167.496 85.2914 167.341 84.674 167.341C84.0338 167.341 83.5319 167.481 83.1683 167.761C82.8046 168.042 82.549 168.341 82.4012 168.659L81.1285 168.205C81.3558 167.674 81.6588 167.261 82.0376 166.966C82.4202 166.667 82.8368 166.458 83.2876 166.341C83.7421 166.22 84.1891 166.159 84.6285 166.159C84.9088 166.159 85.2308 166.193 85.5944 166.261C85.9618 166.326 86.316 166.46 86.6569 166.665C87.0016 166.869 87.2876 167.178 87.5149 167.591C87.7421 168.004 87.8558 168.557 87.8558 169.25V175H86.5149V173.818H86.4467C86.3558 174.008 86.2043 174.21 85.9921 174.426C85.78 174.642 85.4978 174.826 85.1455 174.977C84.7933 175.129 84.3633 175.205 83.8558 175.205ZM84.0603 174C84.5906 174 85.0376 173.896 85.4012 173.688C85.7687 173.479 86.0452 173.21 86.2308 172.881C86.4202 172.551 86.5149 172.205 86.5149 171.841V170.614C86.458 170.682 86.333 170.744 86.1399 170.801C85.9505 170.854 85.7308 170.902 85.4808 170.943C85.2346 170.981 84.994 171.015 84.7592 171.045C84.5281 171.072 84.3406 171.095 84.1967 171.114C83.8482 171.159 83.5224 171.233 83.2194 171.335C82.9202 171.434 82.6777 171.583 82.4921 171.784C82.3103 171.981 82.2194 172.25 82.2194 172.591C82.2194 173.057 82.3918 173.409 82.7365 173.648C83.0849 173.883 83.5262 174 84.0603 174ZM98.505 175V163.364H102.573C103.384 163.364 104.052 163.504 104.579 163.784C105.105 164.061 105.497 164.434 105.755 164.903C106.013 165.369 106.141 165.886 106.141 166.455C106.141 166.955 106.052 167.367 105.874 167.693C105.7 168.019 105.469 168.277 105.181 168.466C104.897 168.655 104.588 168.795 104.255 168.886V169C104.611 169.023 104.969 169.148 105.329 169.375C105.689 169.602 105.99 169.928 106.232 170.352C106.475 170.777 106.596 171.295 106.596 171.909C106.596 172.492 106.463 173.017 106.198 173.483C105.933 173.949 105.515 174.318 104.943 174.591C104.371 174.864 103.626 175 102.71 175H98.505ZM99.9141 173.75H102.71C103.63 173.75 104.283 173.572 104.67 173.216C105.06 172.856 105.255 172.42 105.255 171.909C105.255 171.515 105.155 171.152 104.954 170.818C104.753 170.481 104.467 170.212 104.096 170.011C103.725 169.807 103.285 169.705 102.778 169.705H99.9141V173.75ZM99.9141 168.477H102.528C102.952 168.477 103.335 168.394 103.675 168.227C104.02 168.061 104.293 167.826 104.494 167.523C104.698 167.22 104.8 166.864 104.8 166.455C104.8 165.943 104.622 165.509 104.266 165.153C103.91 164.794 103.346 164.614 102.573 164.614H99.9141V168.477ZM113.058 175.205C112.505 175.205 112.003 175.1 111.552 174.892C111.101 174.68 110.743 174.375 110.478 173.977C110.213 173.576 110.08 173.091 110.08 172.523C110.08 172.023 110.179 171.617 110.376 171.307C110.573 170.992 110.836 170.746 111.166 170.568C111.495 170.39 111.859 170.258 112.257 170.17C112.658 170.08 113.061 170.008 113.467 169.955C113.997 169.886 114.427 169.835 114.757 169.801C115.09 169.763 115.332 169.701 115.484 169.614C115.639 169.527 115.717 169.375 115.717 169.159V169.114C115.717 168.553 115.563 168.117 115.257 167.807C114.953 167.496 114.493 167.341 113.876 167.341C113.236 167.341 112.734 167.481 112.37 167.761C112.007 168.042 111.751 168.341 111.603 168.659L110.33 168.205C110.558 167.674 110.861 167.261 111.239 166.966C111.622 166.667 112.039 166.458 112.489 166.341C112.944 166.22 113.391 166.159 113.83 166.159C114.111 166.159 114.433 166.193 114.796 166.261C115.164 166.326 115.518 166.46 115.859 166.665C116.203 166.869 116.489 167.178 116.717 167.591C116.944 168.004 117.058 168.557 117.058 169.25V175H115.717V173.818H115.649C115.558 174.008 115.406 174.21 115.194 174.426C114.982 174.642 114.7 174.826 114.347 174.977C113.995 175.129 113.565 175.205 113.058 175.205ZM113.262 174C113.792 174 114.239 173.896 114.603 173.688C114.971 173.479 115.247 173.21 115.433 172.881C115.622 172.551 115.717 172.205 115.717 171.841V170.614C115.66 170.682 115.535 170.744 115.342 170.801C115.152 170.854 114.933 170.902 114.683 170.943C114.436 170.981 114.196 171.015 113.961 171.045C113.73 171.072 113.542 171.095 113.399 171.114C113.05 171.159 112.724 171.233 112.421 171.335C112.122 171.434 111.88 171.583 111.694 171.784C111.512 171.981 111.421 172.25 111.421 172.591C111.421 173.057 111.594 173.409 111.938 173.648C112.287 173.883 112.728 174 113.262 174ZM127.447 168.227L126.242 168.568C126.167 168.367 126.055 168.172 125.907 167.983C125.763 167.79 125.566 167.631 125.316 167.506C125.066 167.381 124.746 167.318 124.356 167.318C123.822 167.318 123.377 167.441 123.021 167.688C122.668 167.93 122.492 168.239 122.492 168.614C122.492 168.947 122.614 169.21 122.856 169.403C123.098 169.597 123.477 169.758 123.992 169.886L125.288 170.205C126.068 170.394 126.65 170.684 127.032 171.074C127.415 171.46 127.606 171.958 127.606 172.568C127.606 173.068 127.462 173.515 127.174 173.909C126.89 174.303 126.492 174.614 125.981 174.841C125.47 175.068 124.875 175.182 124.197 175.182C123.307 175.182 122.57 174.989 121.987 174.602C121.403 174.216 121.034 173.652 120.879 172.909L122.151 172.591C122.273 173.061 122.502 173.413 122.839 173.648C123.18 173.883 123.625 174 124.174 174C124.799 174 125.295 173.867 125.663 173.602C126.034 173.333 126.22 173.011 126.22 172.636C126.22 172.333 126.114 172.08 125.901 171.875C125.689 171.667 125.364 171.511 124.924 171.409L123.47 171.068C122.67 170.879 122.083 170.585 121.708 170.188C121.337 169.786 121.151 169.284 121.151 168.682C121.151 168.189 121.29 167.754 121.566 167.375C121.847 166.996 122.227 166.699 122.708 166.483C123.193 166.267 123.742 166.159 124.356 166.159C125.22 166.159 125.898 166.348 126.39 166.727C126.886 167.106 127.239 167.606 127.447 168.227ZM132.634 171.818L132.612 170.159H132.884L136.703 166.273H138.362L134.294 170.386H134.18L132.634 171.818ZM131.384 175V163.364H132.725V175H131.384ZM136.93 175L133.521 170.682L134.475 169.75L138.634 175H136.93ZM145.147 175.182C144.306 175.182 143.581 174.996 142.971 174.625C142.365 174.25 141.897 173.727 141.568 173.057C141.242 172.383 141.079 171.598 141.079 170.705C141.079 169.811 141.242 169.023 141.568 168.341C141.897 167.655 142.356 167.121 142.943 166.739C143.534 166.352 144.223 166.159 145.011 166.159C145.465 166.159 145.914 166.235 146.358 166.386C146.801 166.538 147.204 166.784 147.568 167.125C147.931 167.462 148.221 167.909 148.437 168.466C148.653 169.023 148.761 169.708 148.761 170.523V171.091H142.034V169.932H147.397C147.397 169.439 147.299 169 147.102 168.614C146.909 168.227 146.632 167.922 146.272 167.699C145.916 167.475 145.496 167.364 145.011 167.364C144.477 167.364 144.015 167.496 143.625 167.761C143.238 168.023 142.941 168.364 142.733 168.784C142.524 169.205 142.42 169.655 142.42 170.136V170.909C142.42 171.568 142.534 172.127 142.761 172.585C142.992 173.04 143.312 173.386 143.721 173.625C144.13 173.86 144.606 173.977 145.147 173.977C145.5 173.977 145.818 173.928 146.102 173.83C146.39 173.727 146.638 173.576 146.846 173.375C147.055 173.17 147.215 172.917 147.329 172.614L148.625 172.977C148.488 173.417 148.259 173.803 147.937 174.136C147.615 174.466 147.217 174.723 146.744 174.909C146.27 175.091 145.738 175.182 145.147 175.182ZM156.356 166.273V167.409H151.833V166.273H156.356ZM153.152 164.182H154.493V172.5C154.493 172.879 154.547 173.163 154.657 173.352C154.771 173.538 154.915 173.663 155.089 173.727C155.267 173.788 155.455 173.818 155.652 173.818C155.799 173.818 155.921 173.811 156.015 173.795C156.11 173.777 156.186 173.761 156.243 173.75L156.515 174.955C156.424 174.989 156.297 175.023 156.135 175.057C155.972 175.095 155.765 175.114 155.515 175.114C155.136 175.114 154.765 175.032 154.402 174.869C154.042 174.706 153.743 174.458 153.504 174.125C153.269 173.792 153.152 173.371 153.152 172.864V164.182Z" fill="#484545"/>
<path d="M132.227 143.789H49.8203C44.0547 143.789 39.0625 139.688 37.9844 134.063L23.8281 76.2188C23.6875 75.6094 24.0625 74.9766 24.6719 74.8125C25.3047 74.6719 25.914 75.0469 26.0781 75.6562L40.2344 133.547C41.125 138.164 45.1562 141.469 49.8203 141.469H132.227C136.867 141.469 140.898 138.164 141.812 133.594L155.969 75.6562C156.109 75.0469 156.742 74.6719 157.375 74.8125C157.984 74.9531 158.359 75.5859 158.219 76.2188L144.062 134.109C143.506 136.839 142.024 139.293 139.868 141.056C137.711 142.82 135.012 143.785 132.227 143.789V143.789Z" fill="#5AA897"/>
<path d="M91 133.594C88.4453 133.594 86.3828 131.531 86.3828 128.977V88.9687C86.3828 86.4141 88.4453 84.3516 91 84.3516C93.5547 84.3516 95.6172 86.4141 95.6172 88.9687V128.977C95.6172 131.508 93.5547 133.594 91 133.594ZM91 86.6719C89.7344 86.6719 88.7031 87.7031 88.7031 88.9687V128.977C88.7031 130.242 89.7344 131.273 91 131.273C92.2656 131.273 93.2969 130.242 93.2969 128.977V88.9687C93.3003 88.6662 93.2433 88.3659 93.1291 88.0857C93.0149 87.8055 92.8458 87.5509 92.6318 87.3369C92.4179 87.1229 92.1633 86.9539 91.883 86.8397C91.6028 86.7255 91.3026 86.6684 91 86.6719V86.6719ZM74.7812 133.594C73.6289 133.598 72.517 133.169 71.6661 132.392C70.8152 131.615 70.2874 130.546 70.1875 129.398L66.6016 89.5547C66.4844 88.3359 66.8594 87.1406 67.6563 86.1797C68.4531 85.2422 69.5547 84.6562 70.7969 84.5391C73.3281 84.3047 75.5781 86.2031 75.8125 88.7344L79.3984 128.578C79.5156 129.797 79.1406 130.992 78.3438 131.953C77.5469 132.891 76.4453 133.477 75.2031 133.594C75.0625 133.57 74.9219 133.594 74.7812 133.594ZM71.1719 86.8125H70.9844C70.375 86.8594 69.8125 87.1641 69.4375 87.6328C69.0391 88.1016 68.8516 88.7109 68.8984 89.3203L72.4844 129.164C72.6016 130.336 73.6094 131.273 74.7812 131.273H74.9922C75.6034 131.218 76.168 130.923 76.5631 130.454C76.9581 129.984 77.1517 129.377 77.1016 128.766L73.5156 88.9219C73.3984 87.7266 72.3672 86.8125 71.1719 86.8125ZM58.1172 133.594C55.8437 133.594 53.9219 131.953 53.5703 129.703L47.2656 90.1641C47.0781 88.9453 47.3594 87.7266 48.0859 86.7187C48.8125 85.7109 49.8906 85.0547 51.1094 84.8672C53.6406 84.4687 55.9844 86.1797 56.3828 88.6875L62.6875 128.227C63.0859 130.734 61.375 133.102 58.8438 133.5C58.6094 133.57 58.3516 133.594 58.1172 133.594V133.594ZM51.8125 87.1172C51.6953 87.1172 51.5781 87.1172 51.4375 87.1406C50.8281 87.2344 50.2891 87.5625 49.9375 88.0547C49.5859 88.5469 49.4219 89.1562 49.5391 89.7656L55.8438 129.328C56.0312 130.57 57.2031 131.461 58.4922 131.25C59.7578 131.062 60.6016 129.867 60.4141 128.602L54.1094 89.0625C54.0171 88.5196 53.7361 88.0267 53.3159 87.6708C52.8956 87.3148 52.3632 87.1188 51.8125 87.1172V87.1172ZM107.242 133.594C107.102 133.594 106.961 133.594 106.82 133.57C105.578 133.453 104.477 132.867 103.68 131.93C102.883 130.992 102.508 129.797 102.625 128.555L106.211 88.7109C106.445 86.1797 108.719 84.3047 111.227 84.5156C112.469 84.6328 113.57 85.2187 114.367 86.1562C115.164 87.0937 115.539 88.2891 115.422 89.5312L111.836 129.375C111.625 131.789 109.633 133.594 107.242 133.594ZM110.828 86.8125C109.656 86.8125 108.625 87.7266 108.508 88.9219L104.922 128.766C104.875 129.375 105.062 129.984 105.437 130.453C105.836 130.922 106.375 131.227 107.008 131.273H107.219C108.391 131.273 109.398 130.359 109.516 129.164L113.102 89.3203C113.152 88.7086 112.958 88.1019 112.563 87.6322C112.168 87.1625 111.603 86.8679 110.992 86.8125H110.828ZM123.883 133.594C123.648 133.594 123.391 133.57 123.156 133.523C121.938 133.336 120.859 132.68 120.133 131.672C119.406 130.664 119.125 129.445 119.313 128.227L125.617 88.6875C126.016 86.1797 128.383 84.4687 130.891 84.8672C133.398 85.2656 135.133 87.6328 134.734 90.1406L128.43 129.703C128.266 130.79 127.717 131.782 126.882 132.496C126.046 133.211 124.982 133.6 123.883 133.594V133.594ZM130.188 87.1172C129.063 87.1172 128.078 87.9375 127.914 89.0625L121.609 128.625C121.516 129.234 121.656 129.844 122.008 130.336C122.359 130.828 122.898 131.156 123.508 131.25C123.808 131.3 124.115 131.29 124.412 131.22C124.708 131.15 124.988 131.022 125.234 130.843C125.481 130.664 125.689 130.438 125.847 130.178C126.006 129.918 126.111 129.629 126.156 129.328L132.461 89.7891C132.51 89.4889 132.499 89.182 132.428 88.8861C132.358 88.5902 132.23 88.3111 132.051 88.0649C131.872 87.8188 131.647 87.6104 131.387 87.4518C131.128 87.2931 130.84 87.1874 130.539 87.1406C130.445 87.1172 130.328 87.1172 130.188 87.1172V87.1172ZM157.305 77.1094H24.9531C19.9141 77.1094 16 73.1953 16 68.4141V65.4844C16 60.6797 19.9141 56.7891 24.7188 56.7891H41.1719C41.4765 56.7891 41.7686 56.9101 41.9839 57.1254C42.1993 57.3408 42.3203 57.6329 42.3203 57.9375C42.3203 58.2421 42.1993 58.5342 41.9839 58.7496C41.7686 58.9649 41.4765 59.0859 41.1719 59.0859H24.7188C21.1797 59.0859 18.2969 61.9453 18.2969 65.4844V68.4141C18.2969 71.9297 21.1797 74.8125 24.7188 74.8125H157.305C160.82 74.8125 163.703 71.9531 163.703 68.4141V65.4844C163.703 61.9688 160.844 59.0859 157.305 59.0859H140.852C140.547 59.0859 140.255 58.9649 140.039 58.7496C139.824 58.5342 139.703 58.2421 139.703 57.9375C139.703 57.6329 139.824 57.3408 140.039 57.1254C140.255 56.9101 140.547 56.7891 140.852 56.7891H157.305C162.109 56.7891 166 60.7031 166 65.4844V68.4141C166 73.1953 162.086 77.1094 157.305 77.1094V77.1094Z" fill="#5AA897"/>
<path d="M124.375 59.0859H57.625C57.3204 59.0859 57.0283 58.9649 56.8129 58.7496C56.5976 58.5342 56.4766 58.2421 56.4766 57.9375C56.4766 57.6329 56.5976 57.3408 56.8129 57.1254C57.0283 56.9101 57.3204 56.7891 57.625 56.7891H124.352C124.984 56.7891 125.5 57.3047 125.5 57.9375C125.523 58.5703 125.008 59.0859 124.375 59.0859V59.0859Z" fill="#5AA897"/>
<path d="M44.8554 74.9339C43.6601 74.9339 42.4882 74.6995 41.3866 74.2073C40.3319 73.7607 39.3788 73.1046 38.5851 72.2787C37.7914 71.4528 37.1737 70.4743 36.7694 69.4027C35.9491 67.2698 35.996 64.9261 36.9569 62.8402L60.1366 11.7933C60.8294 10.2811 61.9423 9.00001 63.3426 8.10247C64.743 7.20492 66.3718 6.72879 68.0351 6.73078C69.371 6.77766 70.4491 6.98859 71.5038 7.45734C73.6601 8.39484 75.3007 10.1058 76.1444 12.262C76.9648 14.3948 76.8944 16.7386 75.9569 18.8245L52.7538 69.8948C52.0571 71.4022 50.9427 72.6782 49.5427 73.5713C48.1428 74.4645 46.516 74.9374 44.8554 74.9339V74.9339ZM67.9882 9.05109C65.5272 9.05109 63.2538 10.5042 62.2226 12.7542L39.0429 63.8011C38.3397 65.3245 38.2929 67.0355 38.9022 68.5823C39.5116 70.1761 40.7069 71.4183 42.3007 72.098C45.4179 73.4573 49.2616 71.9808 50.6444 68.9339L73.8241 17.887C74.5272 16.3636 74.5741 14.6527 73.9648 13.1058C73.6633 12.3217 73.207 11.6063 72.6231 11.0023C72.0393 10.3983 71.3398 9.91804 70.5663 9.59015C69.7929 9.23859 68.996 9.09797 67.9882 9.05109V9.05109Z" fill="#F6B64E"/>
<path d="M137.971 70.8654C134.877 70.8654 132.346 68.3341 132.346 65.2404C132.346 62.1466 134.877 59.6154 137.971 59.6154C141.065 59.6154 143.596 62.1466 143.596 65.2404C143.596 68.3341 141.065 70.8654 137.971 70.8654ZM137.971 61.9123C136.143 61.9123 134.666 63.3888 134.666 65.2404C134.666 67.0685 136.143 68.5451 137.971 68.5451C139.799 68.5451 141.276 67.0685 141.276 65.2404C141.276 63.4123 139.799 61.9123 137.971 61.9123V61.9123Z" fill="#34495C"/>
<path d="M137.279 74.9339C133.88 74.9339 130.787 72.9417 129.38 69.8714L106.201 18.848C105.24 16.7386 105.169 14.4183 105.99 12.262L107.068 12.6839L105.99 12.262C106.834 10.0823 108.474 8.39484 110.63 7.45734C111.662 7.01202 112.763 6.77765 114.052 6.73077C117.498 6.73077 120.591 8.72296 121.974 11.7933L145.154 62.8402C146.115 64.9495 146.185 67.2698 145.341 69.4026C144.498 71.5589 142.857 73.2698 140.724 74.2073C139.646 74.6995 138.474 74.9339 137.279 74.9339V74.9339ZM114.099 9.05109C113.115 9.09796 112.318 9.23859 111.544 9.59015C109.974 10.2698 108.755 11.512 108.146 13.1058C107.56 14.6761 107.607 16.3636 108.287 17.887L131.466 68.9339C132.498 71.1839 134.771 72.637 137.255 72.637C138.146 72.637 138.99 72.4495 139.81 72.098C140.584 71.7701 141.283 71.2898 141.867 70.6858C142.451 70.0818 142.907 69.3664 143.209 68.5823C143.818 67.012 143.771 65.3245 143.068 63.8011L119.888 12.7542C119.382 11.6449 118.567 10.7053 117.54 10.0484C116.513 9.39141 115.318 9.04511 114.099 9.05109Z" fill="#F6B64E"/>
<path d="M43.7404 70.8654C40.6466 70.8654 38.1154 68.3341 38.1154 65.2404C38.1154 62.1466 40.6466 59.6154 43.7404 59.6154C46.8341 59.6154 49.3654 62.1466 49.3654 65.2404C49.3654 68.3341 46.8341 70.8654 43.7404 70.8654ZM43.7404 61.9123C41.9123 61.9123 40.4357 63.3888 40.4357 65.2404C40.4357 67.0685 41.9123 68.5451 43.7404 68.5451C45.5685 68.5451 47.0451 67.0685 47.0451 65.2404C47.0451 63.4123 45.5685 61.9123 43.7404 61.9123V61.9123Z" fill="#34495C"/>
<defs>
<filter id="filter0_d_123_4" x="0" y="150" width="183" height="48" filterUnits="userSpaceOnUse" color-interpolation-filters="sRGB">
<feFlood flood-opacity="0" result="BackgroundImageFix"/>
<feColorMatrix in="SourceAlpha" type="matrix" values="0 0 0 0 0 0 0 0 0 0 0 0 0 0 0 0 0 0 127 0" result="hardAlpha"/>
<feOffset dy="4"/>
<feGaussianBlur stdDeviation="2"/>
<feComposite in2="hardAlpha" operator="out"/>
<feColorMatrix type="matrix" values="0 0 0 0 0 0 0 0 0 0 0 0 0 0 0 0 0 0 0.25 0"/>
<feBlend mode="normal" in2="BackgroundImageFix" result="effect1_dropShadow_123_4"/>
<feBlend mode="normal" in="SourceGraphic" in2="effect1_dropShadow_123_4" result="shape"/>
</filter>
</defs>
</svg>
