<svg width="194" height="194" viewBox="0 0 194 194" fill="none" xmlns="http://www.w3.org/2000/svg">
<g clip-path="url(#clip0_40_208)">
<path d="M193 70.7797C192.587 70.2469 192.059 69.8146 191.455 69.5153C190.851 69.216 190.188 69.0576 189.514 69.0519H186.482L176.146 17.5207C175.877 16.2799 175.192 15.168 174.206 14.3689C173.219 13.5697 171.99 13.131 170.72 13.1254H125.251V10.4579C125.251 9.15549 124.734 7.90645 123.813 6.98553C122.892 6.06461 121.643 5.54724 120.341 5.54724H73.4169C72.1145 5.54724 70.8655 6.06461 69.9445 6.98553C69.0236 7.90645 68.5062 9.15549 68.5062 10.4579V13.1557H23.0375C21.7888 13.1885 20.5873 13.6395 19.6255 14.4365C18.6636 15.2334 17.9971 16.3302 17.7328 17.551L7.39625 69.0822H4.365C3.69112 69.0879 3.0273 69.2463 2.42349 69.5456C1.81969 69.8449 1.29163 70.2772 0.879059 70.8101C0.460654 71.3249 0.164221 71.9278 0.0119803 72.5735C-0.14026 73.2192 -0.144357 73.891 -3.70294e-06 74.5385L23.1587 179.753C23.6912 182.213 25.0486 184.417 27.006 186C28.9633 187.582 31.4027 188.448 33.9197 188.453H160.08C162.6 188.443 165.041 187.577 167.002 185.996C168.963 184.415 170.328 182.213 170.872 179.753L194 74.5385C194.133 73.8772 194.112 73.1942 193.938 72.5424C193.765 71.8906 193.444 71.2875 193 70.7797ZM125.494 16.1566H170.962C171.544 16.1513 172.11 16.3477 172.563 16.7125C173.016 17.0773 173.329 17.5878 173.448 18.1572L183.694 69.0519H178.45L169.083 22.3404C169.002 22.0173 168.814 21.7311 168.55 21.5277C168.286 21.3242 167.961 21.2155 167.628 21.2188H125.494V16.1566ZM71.5072 10.4579C71.5031 10.206 71.5497 9.95579 71.6442 9.72224C71.7387 9.4887 71.8792 9.27654 72.0574 9.09839C72.2355 8.92023 72.4477 8.77972 72.6812 8.6852C72.9148 8.59068 73.165 8.54408 73.4169 8.54818H120.583C120.835 8.54408 121.085 8.59068 121.319 8.6852C121.552 8.77972 121.764 8.92023 121.943 9.09839C122.121 9.27654 122.261 9.4887 122.356 9.72224C122.45 9.95579 122.497 10.206 122.493 10.4579V26.8266C122.497 27.0785 122.45 27.3287 122.356 27.5622C122.261 27.7958 122.121 28.0079 121.943 28.1861C121.764 28.3643 121.552 28.5048 121.319 28.5993C121.085 28.6938 120.835 28.7404 120.583 28.7363H73.4169C73.165 28.7404 72.9148 28.6938 72.6812 28.5993C72.4477 28.5048 72.2355 28.3643 72.0574 28.1861C71.8792 28.0079 71.7387 27.7958 71.6442 27.5622C71.5497 27.3287 71.5031 27.0785 71.5072 26.8266V10.4579ZM73.4169 31.6766H120.583C121.875 31.6767 123.115 31.1677 124.034 30.2598C124.953 29.352 125.478 28.1185 125.494 26.8266V24.2501H166.416L175.509 69.1732H18.5816L27.5844 24.2501H68.5062V26.9479C68.5379 28.2291 69.0692 29.4472 69.9867 30.3421C70.9042 31.2369 72.1352 31.7376 73.4169 31.7372V31.6766ZM20.6731 18.1876C20.7923 17.6181 21.105 17.1076 21.5582 16.7428C22.0114 16.3781 22.577 16.1816 23.1587 16.1869H68.6275V21.2188H26.3719C26.0277 21.2256 25.6961 21.3494 25.4317 21.5698C25.1672 21.7902 24.9857 22.094 24.9169 22.4313L15.5503 69.0519H10.4275L20.6731 18.1876ZM190.969 73.9019L167.962 179.147C167.556 180.935 166.556 182.533 165.124 183.678C163.692 184.824 161.914 185.449 160.08 185.452H33.9197C32.0861 185.449 30.3077 184.824 28.8759 183.678C27.444 182.533 26.4436 180.935 26.0384 179.147L3.03125 73.9019C2.99137 73.6995 2.99794 73.4907 3.05044 73.2912C3.10295 73.0916 3.20003 72.9066 3.33437 72.7501C3.47084 72.5738 3.64524 72.4305 3.84464 72.3308C4.04404 72.2311 4.26333 72.1775 4.48625 72.1741H189.392C189.615 72.1775 189.835 72.2311 190.034 72.3308C190.233 72.4305 190.408 72.5738 190.544 72.7501C190.7 72.8955 190.82 73.0755 190.893 73.2756C190.967 73.4756 190.993 73.6901 190.969 73.9019Z" fill="#2B4B8C"/>
<path d="M120.613 8.5481H73.4169C72.3622 8.5481 71.5072 9.40309 71.5072 10.4578V26.8568C71.5072 27.9115 72.3622 28.7665 73.4169 28.7665H120.613C121.668 28.7665 122.523 27.9115 122.523 26.8568V10.4578C122.523 9.40309 121.668 8.5481 120.613 8.5481Z" fill="#F8F5F1"/>
<path d="M122.493 10.4578V26.8265C122.497 27.0785 122.45 27.3286 122.356 27.5622C122.261 27.7957 122.121 28.0079 121.943 28.186C121.764 28.3642 121.552 28.5047 121.319 28.5992C121.085 28.6937 120.835 28.7403 120.583 28.7362H114.521C115.339 28.7362 115.976 27.8875 115.976 26.8265V10.4578C115.976 9.39685 115.339 8.5481 114.521 8.5481H120.583C120.835 8.544 121.085 8.5906 121.319 8.68512C121.552 8.77964 121.764 8.92015 121.943 9.09831C122.121 9.27646 122.261 9.48862 122.356 9.72216C122.45 9.95571 122.497 10.2059 122.493 10.4578Z" fill="#2B4B8C"/>
<path d="M79.4794 28.7362H73.4169C73.165 28.7403 72.9148 28.6937 72.6813 28.5992C72.4477 28.5047 72.2356 28.3642 72.0574 28.186C71.8793 28.0079 71.7387 27.7957 71.6442 27.5622C71.5497 27.3286 71.5031 27.0785 71.5072 26.8265V10.4578C71.5031 10.2059 71.5497 9.95571 71.6442 9.72216C71.7387 9.48862 71.8793 9.27646 72.0574 9.09831C72.2356 8.92015 72.4477 8.77964 72.6813 8.68512C72.9148 8.5906 73.165 8.544 73.4169 8.5481H79.4794C78.661 8.5481 78.0244 9.39685 78.0244 10.4578V26.8265C78.0244 27.8875 78.8125 28.7362 79.4794 28.7362Z" fill="#2B4B8C"/>
<path d="M124.383 96.7274L124.386 96.7274C124.48 95.1998 123.985 93.6942 123.003 92.5202C122.021 91.3462 120.627 90.5928 119.107 90.415C117.586 90.2371 116.056 90.6483 114.829 91.5639C113.603 92.4796 112.774 93.8302 112.512 95.3383L112.51 95.3514L112.509 95.3645L104.446 162.987C104.446 162.988 104.446 162.989 104.446 162.99C104.345 163.776 104.404 164.574 104.62 165.336C104.837 166.099 105.205 166.81 105.704 167.426C105.704 167.426 105.704 167.425 105.703 167.425L124.383 96.7274ZM124.383 96.7274L116.321 164.382C116.321 164.383 116.321 164.383 116.321 164.383C116.15 165.834 115.452 167.171 114.361 168.141C113.269 169.111 111.858 169.646 110.397 169.644L124.383 96.7274ZM190.27 73.056L190.278 73.066L190.286 73.0755C190.371 73.1747 190.433 73.2919 190.466 73.4183C190.499 73.5432 190.503 73.6738 190.479 73.8006C190.479 73.8021 190.478 73.8037 190.478 73.8052L167.474 179.036C167.474 179.037 167.474 179.037 167.474 179.038C167.093 180.715 166.155 182.214 164.812 183.288C163.468 184.363 161.8 184.949 160.08 184.952H33.9204C32.2001 184.949 30.5316 184.363 29.1882 183.288C27.8453 182.214 26.9068 180.715 26.5264 179.038C26.5263 179.037 26.5262 179.037 26.5261 179.036L3.51968 73.9162L3.51695 73.9037L3.51358 73.8914C3.47542 73.7516 3.47301 73.6045 3.50656 73.4636C3.54011 73.3227 3.60856 73.1925 3.7056 73.0849L3.71864 73.0705L3.73052 73.055C3.82915 72.927 3.95778 72.8251 4.10506 72.7585C4.25235 72.6919 4.41376 72.6625 4.57507 72.673L4.59127 72.674H4.6075H189.51C189.656 72.6768 189.8 72.7122 189.932 72.7779C190.064 72.844 190.18 72.9391 190.27 73.056ZM51.6051 169.578L51.6052 169.578L51.6183 169.575C53.1743 169.3 54.5608 168.427 55.481 167.142C56.4012 165.858 56.782 164.264 56.542 162.702L56.5421 162.702L56.5405 162.693L44.8102 95.0394C44.8101 95.0388 44.81 95.0382 44.8099 95.0375C44.682 94.2611 44.4006 93.5178 43.9823 92.8513C43.5637 92.1841 43.0163 91.6071 42.372 91.154C41.7278 90.7009 40.9998 90.3808 40.2304 90.2123C39.4615 90.044 38.6668 90.0305 37.8927 90.1726C36.3343 90.4502 34.9468 91.3278 34.0283 92.617C33.5691 93.257 33.2443 93.9834 33.0734 94.7523C32.9028 95.5204 32.8892 96.3151 33.0335 97.0886C33.0337 97.0897 33.0339 97.0908 33.0342 97.092L44.7032 164.682L44.7031 164.682L44.7049 164.691C45.0028 166.239 45.887 167.611 47.1729 168.521C48.4588 169.432 50.0468 169.81 51.6051 169.578ZM84.2687 169.613H84.2976L84.3263 169.61C85.1062 169.52 85.86 169.274 86.543 168.887C87.2237 168.501 87.8203 167.983 88.2978 167.363C88.796 166.754 89.1646 166.05 89.3808 165.293C89.5974 164.535 89.6564 163.74 89.5543 162.958C89.5541 162.958 89.554 162.957 89.5539 162.956L81.4915 95.3342L81.491 95.3303C81.2923 93.7673 80.4884 92.3447 79.252 91.368C78.0158 90.3913 76.4457 89.9385 74.8793 90.1069C74.097 90.1906 73.3394 90.4301 72.6511 90.8113C71.9628 91.1924 71.3577 91.7074 70.8716 92.326L70.8701 92.3278C69.8999 93.5742 69.4502 95.148 69.6155 96.7189L69.6163 96.7257L77.6795 164.353L77.6796 164.354C77.8568 165.802 78.5561 167.134 79.6461 168.103C80.7362 169.071 82.1421 169.608 83.6001 169.613H83.6019H84.2687ZM160.962 97.0818L160.968 97.0822C161.227 95.5262 160.862 93.9307 159.951 92.6425C159.041 91.3543 157.659 90.4774 156.106 90.2026L156.098 90.2013C154.541 89.9503 152.947 90.3177 151.657 91.2252C150.366 92.1327 149.482 93.5084 149.192 95.0589L149.19 95.0655L137.46 162.723L137.459 162.726C137.199 164.285 137.563 165.884 138.473 167.177C139.382 168.47 140.764 169.353 142.319 169.636L142.341 169.64L142.363 169.642C142.708 169.673 143.056 169.674 143.401 169.644C144.798 169.635 146.148 169.135 147.214 168.231C148.286 167.323 149.002 166.066 149.236 164.681C149.236 164.68 149.236 164.68 149.236 164.68L160.962 97.0818Z" fill="#2B4B8C" fill-opacity="0.75" stroke="#F8F5F1"/>
<path d="M3.71383 73.0756L3.72203 73.066L3.72975 73.0561C3.82027 72.9391 3.93597 72.8441 4.06824 72.7779C4.1995 72.7123 4.34375 72.6768 4.49044 72.6741H14.0999C13.9996 72.859 13.9282 73.0587 13.8887 73.2664C13.8342 73.5525 13.8414 73.8469 13.9098 74.13L34.1238 179.231C34.3916 181.027 35.2703 182.676 36.612 183.9C37.0587 184.308 37.5475 184.66 38.0678 184.952H33.9204C32.2001 184.949 30.5316 184.363 29.1882 183.288C27.8453 182.214 26.9068 180.715 26.5264 179.038C26.5263 179.038 26.5262 179.037 26.5261 179.036L3.52181 73.8053C3.52152 73.8037 3.52123 73.8022 3.52094 73.8007C3.49666 73.6739 3.5011 73.5433 3.53397 73.4184C3.56723 73.292 3.62873 73.1748 3.71383 73.0756Z" fill="#2B4B8C" stroke="#F8F5F1"/>
<path d="M190.486 73.7702L190.483 73.7826L190.48 73.7951L167.474 179.036C167.474 179.037 167.474 179.038 167.474 179.038C167.093 180.715 166.155 182.214 164.812 183.288C163.468 184.363 161.8 184.949 160.08 184.952H155.932C156.452 184.66 156.941 184.308 157.388 183.9C158.73 182.676 159.608 181.027 159.876 179.231L180.09 74.0087C180.159 73.7257 180.166 73.4313 180.111 73.1452C180.072 72.9375 180 72.7378 179.9 72.5529H189.51C189.656 72.5556 189.8 72.5911 189.932 72.6567L190.155 72.2109L189.932 72.6567C190.064 72.7229 190.18 72.8179 190.27 72.9349L190.282 72.9498L190.294 72.9637C190.391 73.0713 190.46 73.2015 190.493 73.3424C190.527 73.4834 190.525 73.6305 190.486 73.7702Z" fill="#2B4B8C" stroke="#F8F5F1"/>
<path d="M156.018 90.6344C154.59 90.4041 153.128 90.7411 151.944 91.5736C150.761 92.4061 149.949 93.668 149.683 95.0903L137.952 162.748C137.715 164.186 138.057 165.66 138.904 166.847C139.75 168.034 141.032 168.838 142.469 169.083C142.791 169.112 143.116 169.112 143.439 169.083C144.726 169.08 145.97 168.621 146.952 167.789C147.933 166.957 148.59 165.805 148.804 164.536L160.474 97C160.601 96.2894 160.586 95.5607 160.43 94.8559C160.275 94.151 159.981 93.4838 159.567 92.8925C159.153 92.3011 158.627 91.7973 158.018 91.4098C157.409 91.0223 156.729 90.7588 156.018 90.6344ZM145.803 164.082C145.756 164.405 145.643 164.715 145.473 164.994C145.303 165.273 145.077 165.515 144.811 165.704C144.545 165.894 144.243 166.028 143.924 166.098C143.605 166.168 143.275 166.173 142.954 166.113C142.631 166.067 142.321 165.955 142.045 165.782C141.768 165.61 141.53 165.382 141.347 165.112C140.962 164.578 140.799 163.915 140.893 163.263L152.623 95.6056C152.729 95.0302 153.032 94.5095 153.48 94.1333C153.928 93.7571 154.494 93.5489 155.079 93.5444H155.503C155.825 93.5958 156.133 93.7106 156.41 93.8822C156.686 94.0538 156.926 94.2787 157.115 94.5439C157.304 94.809 157.439 95.1091 157.51 95.4267C157.582 95.7443 157.59 96.073 157.534 96.3938L145.803 164.082ZM122.735 92.635C122.061 91.7918 121.153 91.1663 120.124 90.8369C119.096 90.5075 117.993 90.4889 116.954 90.7835C115.915 91.078 114.987 91.6725 114.284 92.4925C113.581 93.3126 113.137 94.3217 113.005 95.3935L104.942 163.021C104.849 163.74 104.904 164.471 105.101 165.17C105.299 165.868 105.637 166.519 106.094 167.083C106.994 168.209 108.3 168.938 109.731 169.113H110.398C111.736 169.115 113.028 168.625 114.029 167.737C115.029 166.848 115.668 165.623 115.824 164.294L123.887 96.6363C124.047 95.2027 123.633 93.7641 122.735 92.635ZM112.853 163.96C112.816 164.285 112.715 164.599 112.556 164.884C112.397 165.169 112.183 165.421 111.927 165.623C111.67 165.826 111.377 165.976 111.063 166.065C110.748 166.155 110.419 166.181 110.095 166.143C109.769 166.109 109.453 166.01 109.166 165.853C108.878 165.695 108.625 165.481 108.422 165.224C108.218 164.967 108.069 164.672 107.981 164.356C107.894 164.04 107.87 163.71 107.913 163.384L115.976 95.7572C116.059 95.1166 116.386 94.5327 116.888 94.1264C117.39 93.7201 118.03 93.5226 118.673 93.5747C119.318 93.6497 119.906 93.9766 120.31 94.4841C120.725 95.0066 120.92 95.6694 120.856 96.3331L112.853 163.96ZM56.0478 162.748L44.3169 95.0903C44.1999 94.3787 43.9421 93.6976 43.5588 93.0868C43.1755 92.4759 42.6743 91.9476 42.0844 91.5328C41.4945 91.1179 40.8279 90.8247 40.1234 90.6705C39.419 90.5162 38.6908 90.504 37.9816 90.6344C36.5513 90.8888 35.2779 91.6942 34.435 92.8775C34.015 93.4629 33.7178 94.1272 33.5615 94.8306C33.4053 95.5339 33.393 96.2615 33.5256 96.9697L45.2566 164.597C45.53 166.005 46.3329 167.256 47.5001 168.09C48.6673 168.925 50.11 169.28 51.5313 169.083C52.9647 168.831 54.2416 168.025 55.0865 166.84C55.9314 165.655 56.2766 164.185 56.0478 162.748ZM51.0463 166.113C50.7255 166.169 50.3968 166.161 50.0792 166.089C49.7616 166.017 49.4615 165.883 49.1963 165.694C48.9312 165.505 48.7062 165.265 48.5347 164.988C48.3631 164.711 48.2483 164.403 48.1969 164.082L36.375 96.4544C36.3187 96.1337 36.3267 95.8049 36.3986 95.4874C36.4705 95.1698 36.6049 94.8696 36.7939 94.6045C36.9829 94.3393 37.2227 94.1144 37.4995 93.9428C37.7763 93.7712 38.0844 93.6564 38.4059 93.605H38.8303C39.4135 93.6047 39.9777 93.8119 40.422 94.1895C40.8663 94.5672 41.1617 95.0907 41.2553 95.6663L52.9863 163.324C53.0847 163.949 52.9379 164.588 52.5764 165.108C52.2149 165.627 51.6667 165.987 51.0463 166.113ZM89.0581 163.021L80.995 95.3935C80.8128 93.9603 80.0757 92.6559 78.9421 91.7604C77.8085 90.8648 76.3689 90.4497 74.9325 90.6041C74.2166 90.6807 73.5232 90.8999 72.8933 91.2487C72.2634 91.5975 71.7096 92.0689 71.2647 92.635C70.3739 93.7794 69.961 95.2243 70.1128 96.6666L78.1759 164.324C78.3384 165.65 78.9792 166.872 79.9782 167.759C80.9772 168.647 82.2657 169.139 83.6019 169.144H84.2688C84.9822 169.061 85.6717 168.836 86.2966 168.482C86.9214 168.128 87.4688 167.652 87.9063 167.083C88.3677 166.521 88.7081 165.871 88.9064 165.172C89.1046 164.473 89.1562 163.741 89.0581 163.021ZM85.5722 165.233C85.1506 165.735 84.5553 166.06 83.905 166.143C83.5822 166.181 83.2552 166.154 82.9427 166.065C82.6303 165.975 82.3388 165.825 82.085 165.622C81.8312 165.419 81.6203 165.167 81.4644 164.882C81.3085 164.597 81.2108 164.284 81.1769 163.96L73.1138 96.3331C73.0693 96.0061 73.0921 95.6734 73.1807 95.3555C73.2693 95.0375 73.4219 94.741 73.6291 94.4841C74.0394 93.9841 74.6246 93.6589 75.2659 93.5747H75.5691C76.1784 93.5785 76.7652 93.8059 77.2178 94.2139C77.6705 94.6218 77.9575 95.1818 78.0244 95.7875L86.0875 163.384C86.1302 163.711 86.1066 164.044 86.018 164.361C85.9295 164.679 85.7779 164.976 85.5722 165.233Z" fill="#F8F5F1"/>
</g>
<defs>
<clipPath id="clip0_40_208">
<rect width="194" height="194" fill="white"/>
</clipPath>
</defs>
</svg>
