<svg width="183" height="220" viewBox="0 0 183 220" fill="none" xmlns="http://www.w3.org/2000/svg">
<path fill-rule="evenodd" clip-rule="evenodd" d="M89.3035 86.9293V168.508L89.2491 168.562L25.8044 141.429L25.75 141.337V59.7635L25.8044 59.8614L89.2437 86.9945L89.3035 86.9293Z" fill="#FCD062"/>
<path fill-rule="evenodd" clip-rule="evenodd" d="M152.852 59.7364L152.797 59.8343L89.3579 86.9674V168.541L152.797 141.408L152.852 141.31V59.7364Z" fill="#F8AA3A"/>
<path fill-rule="evenodd" clip-rule="evenodd" d="M152.797 59.769L89.3579 32.6359H89.2491L25.8044 59.769V59.8342L89.2437 86.9674L152.797 59.769Z" fill="#F8C253"/>
<path d="M116.072 129.179L100.217 135.965M131.933 133.241L116.072 140.021L100.217 146.813L131.933 133.241Z" stroke="#34485C" stroke-linecap="round" stroke-linejoin="round"/>
<path fill-rule="evenodd" clip-rule="evenodd" d="M25.75 59.8125L4 81.5625L67.6187 108.75L89.3687 87L25.75 59.8125ZM111.119 10.875L89.3687 32.625L152.987 59.8125L174.737 38.0625L111.119 10.875ZM152.987 59.8125L174.737 81.5625L111.119 108.75L89.3687 87L152.987 59.8125ZM67.6187 10.875L89.3687 32.625L25.75 59.8125L4 38.0625L67.6187 10.875Z" fill="#F8B84E"/>
<g filter="url(#filter0_d_123_2)">
<rect x="4" y="172" width="175" height="40" rx="5" fill="#5AA897" fill-opacity="0.4" shape-rendering="crispEdges"/>
</g>
<path d="M43.1669 198V186.364H47.2351C48.0457 186.364 48.7143 186.504 49.2408 186.784C49.7673 187.061 50.1593 187.434 50.4169 187.903C50.6745 188.369 50.8033 188.886 50.8033 189.455C50.8033 189.955 50.7143 190.367 50.5362 190.693C50.362 191.019 50.1309 191.277 49.843 191.466C49.5589 191.655 49.2502 191.795 48.9169 191.886V192C49.273 192.023 49.6309 192.148 49.9908 192.375C50.3506 192.602 50.6518 192.928 50.8942 193.352C51.1366 193.777 51.2578 194.295 51.2578 194.909C51.2578 195.492 51.1252 196.017 50.8601 196.483C50.5949 196.949 50.1764 197.318 49.6044 197.591C49.0324 197.864 48.2881 198 47.3714 198H43.1669ZM44.576 196.75H47.3714C48.2919 196.75 48.9453 196.572 49.3317 196.216C49.7218 195.856 49.9169 195.42 49.9169 194.909C49.9169 194.515 49.8165 194.152 49.6158 193.818C49.415 193.481 49.129 193.212 48.7578 193.011C48.3866 192.807 47.9472 192.705 47.4396 192.705H44.576V196.75ZM44.576 191.477H47.1896C47.6139 191.477 47.9964 191.394 48.3374 191.227C48.6821 191.061 48.9548 190.826 49.1555 190.523C49.3601 190.22 49.4624 189.864 49.4624 189.455C49.4624 188.943 49.2843 188.509 48.9283 188.153C48.5722 187.794 48.0078 187.614 47.2351 187.614H44.576V191.477ZM60.4913 194.432V189.273H61.8322V198H60.4913V196.523H60.4004C60.1959 196.966 59.8777 197.343 59.4459 197.653C59.0141 197.96 58.4686 198.114 57.8095 198.114C57.2641 198.114 56.7792 197.994 56.355 197.756C55.9307 197.513 55.5974 197.15 55.355 196.665C55.1125 196.176 54.9913 195.561 54.9913 194.818V189.273H56.3322V194.727C56.3322 195.364 56.5103 195.871 56.8663 196.25C57.2262 196.629 57.6845 196.818 58.2413 196.818C58.5747 196.818 58.9137 196.733 59.2584 196.562C59.6069 196.392 59.8985 196.131 60.1334 195.778C60.372 195.426 60.4913 194.977 60.4913 194.432ZM65.8882 198V189.273H67.2291V198H65.8882ZM66.57 187.818C66.3087 187.818 66.0833 187.729 65.8939 187.551C65.7083 187.373 65.6155 187.159 65.6155 186.909C65.6155 186.659 65.7083 186.445 65.8939 186.267C66.0833 186.089 66.3087 186 66.57 186C66.8314 186 67.0549 186.089 67.2405 186.267C67.4299 186.445 67.5246 186.659 67.5246 186.909C67.5246 187.159 67.4299 187.373 67.2405 187.551C67.0549 187.729 66.8314 187.818 66.57 187.818ZM72.626 186.364V198H71.2851V186.364H72.626ZM79.9774 198.182C79.2501 198.182 78.6081 197.998 78.0513 197.631C77.4945 197.259 77.0589 196.737 76.7445 196.062C76.4301 195.384 76.2729 194.583 76.2729 193.659C76.2729 192.742 76.4301 191.947 76.7445 191.273C77.0589 190.598 77.4964 190.078 78.057 189.71C78.6176 189.343 79.2653 189.159 80.0001 189.159C80.5683 189.159 81.0172 189.254 81.3467 189.443C81.6801 189.629 81.9339 189.841 82.1081 190.08C82.2861 190.314 82.4244 190.508 82.5229 190.659H82.6365V186.364H83.9774V198H82.682V196.659H82.5229C82.4244 196.818 82.2842 197.019 82.1024 197.261C81.9206 197.5 81.6611 197.714 81.324 197.903C80.9869 198.089 80.538 198.182 79.9774 198.182ZM80.1592 196.977C80.6971 196.977 81.1517 196.837 81.5229 196.557C81.8941 196.273 82.1763 195.881 82.3695 195.381C82.5626 194.877 82.6592 194.295 82.6592 193.636C82.6592 192.985 82.5645 192.415 82.3751 191.926C82.1858 191.434 81.9054 191.051 81.5342 190.778C81.163 190.502 80.7047 190.364 80.1592 190.364C79.5911 190.364 79.1176 190.509 78.7388 190.801C78.3638 191.089 78.0816 191.481 77.8922 191.977C77.7066 192.47 77.6138 193.023 77.6138 193.636C77.6138 194.258 77.7085 194.822 77.8979 195.33C78.0911 195.833 78.3751 196.235 78.7501 196.534C79.1289 196.83 79.5986 196.977 80.1592 196.977ZM96.8876 198.205C96.3346 198.205 95.8327 198.1 95.382 197.892C94.9312 197.68 94.5732 197.375 94.3081 196.977C94.0429 196.576 93.9104 196.091 93.9104 195.523C93.9104 195.023 94.0089 194.617 94.2058 194.307C94.4028 193.992 94.666 193.746 94.9956 193.568C95.3251 193.39 95.6888 193.258 96.0865 193.17C96.488 193.08 96.8914 193.008 97.2967 192.955C97.827 192.886 98.257 192.835 98.5865 192.801C98.9198 192.763 99.1623 192.701 99.3138 192.614C99.4691 192.527 99.5467 192.375 99.5467 192.159V192.114C99.5467 191.553 99.3933 191.117 99.0865 190.807C98.7835 190.496 98.3232 190.341 97.7058 190.341C97.0657 190.341 96.5638 190.481 96.2001 190.761C95.8365 191.042 95.5808 191.341 95.4331 191.659L94.1604 191.205C94.3876 190.674 94.6907 190.261 95.0695 189.966C95.452 189.667 95.8687 189.458 96.3195 189.341C96.774 189.22 97.221 189.159 97.6604 189.159C97.9407 189.159 98.2626 189.193 98.6263 189.261C98.9937 189.326 99.3479 189.46 99.6888 189.665C100.033 189.869 100.319 190.178 100.547 190.591C100.774 191.004 100.888 191.557 100.888 192.25V198H99.5467V196.818H99.4785C99.3876 197.008 99.2361 197.21 99.024 197.426C98.8119 197.642 98.5297 197.826 98.1774 197.977C97.8251 198.129 97.3952 198.205 96.8876 198.205ZM97.0922 197C97.6225 197 98.0695 196.896 98.4331 196.688C98.8005 196.479 99.077 196.21 99.2626 195.881C99.452 195.551 99.5467 195.205 99.5467 194.841V193.614C99.4899 193.682 99.3649 193.744 99.1717 193.801C98.9823 193.854 98.7626 193.902 98.5126 193.943C98.2664 193.981 98.0259 194.015 97.791 194.045C97.56 194.072 97.3725 194.095 97.2285 194.114C96.8801 194.159 96.5543 194.233 96.2513 194.335C95.952 194.434 95.7096 194.583 95.524 194.784C95.3422 194.981 95.2513 195.25 95.2513 195.591C95.2513 196.057 95.4236 196.409 95.7683 196.648C96.1168 196.883 96.5581 197 97.0922 197ZM111.217 198V186.364H115.285C116.096 186.364 116.764 186.504 117.291 186.784C117.817 187.061 118.209 187.434 118.467 187.903C118.724 188.369 118.853 188.886 118.853 189.455C118.853 189.955 118.764 190.367 118.586 190.693C118.412 191.019 118.181 191.277 117.893 191.466C117.609 191.655 117.3 191.795 116.967 191.886V192C117.323 192.023 117.681 192.148 118.041 192.375C118.401 192.602 118.702 192.928 118.944 193.352C119.187 193.777 119.308 194.295 119.308 194.909C119.308 195.492 119.175 196.017 118.91 196.483C118.645 196.949 118.226 197.318 117.654 197.591C117.082 197.864 116.338 198 115.421 198H111.217ZM112.626 196.75H115.421C116.342 196.75 116.995 196.572 117.382 196.216C117.772 195.856 117.967 195.42 117.967 194.909C117.967 194.515 117.867 194.152 117.666 193.818C117.465 193.481 117.179 193.212 116.808 193.011C116.437 192.807 115.997 192.705 115.49 192.705H112.626V196.75ZM112.626 191.477H115.24C115.664 191.477 116.046 191.394 116.387 191.227C116.732 191.061 117.005 190.826 117.206 190.523C117.41 190.22 117.512 189.864 117.512 189.455C117.512 188.943 117.334 188.509 116.978 188.153C116.622 187.794 116.058 187.614 115.285 187.614H112.626V191.477ZM126.587 198.182C125.799 198.182 125.108 197.994 124.513 197.619C123.922 197.244 123.46 196.72 123.127 196.045C122.797 195.371 122.632 194.583 122.632 193.682C122.632 192.773 122.797 191.979 123.127 191.301C123.46 190.623 123.922 190.097 124.513 189.722C125.108 189.347 125.799 189.159 126.587 189.159C127.375 189.159 128.064 189.347 128.655 189.722C129.25 190.097 129.712 190.623 130.041 191.301C130.375 191.979 130.541 192.773 130.541 193.682C130.541 194.583 130.375 195.371 130.041 196.045C129.712 196.72 129.25 197.244 128.655 197.619C128.064 197.994 127.375 198.182 126.587 198.182ZM126.587 196.977C127.185 196.977 127.678 196.824 128.064 196.517C128.45 196.21 128.736 195.807 128.922 195.307C129.108 194.807 129.2 194.265 129.2 193.682C129.2 193.098 129.108 192.555 128.922 192.051C128.736 191.547 128.45 191.14 128.064 190.83C127.678 190.519 127.185 190.364 126.587 190.364C125.988 190.364 125.496 190.519 125.11 190.83C124.723 191.14 124.437 191.547 124.252 192.051C124.066 192.555 123.973 193.098 123.973 193.682C123.973 194.265 124.066 194.807 124.252 195.307C124.437 195.807 124.723 196.21 125.11 196.517C125.496 196.824 125.988 196.977 126.587 196.977ZM134.829 189.273L136.92 192.841L139.011 189.273H140.556L137.738 193.636L140.556 198H139.011L136.92 194.614L134.829 198H133.283L136.056 193.636L133.283 189.273H134.829Z" fill="#484545"/>
<defs>
<filter id="filter0_d_123_2" x="0" y="172" width="183" height="48" filterUnits="userSpaceOnUse" color-interpolation-filters="sRGB">
<feFlood flood-opacity="0" result="BackgroundImageFix"/>
<feColorMatrix in="SourceAlpha" type="matrix" values="0 0 0 0 0 0 0 0 0 0 0 0 0 0 0 0 0 0 127 0" result="hardAlpha"/>
<feOffset dy="4"/>
<feGaussianBlur stdDeviation="2"/>
<feComposite in2="hardAlpha" operator="out"/>
<feColorMatrix type="matrix" values="0 0 0 0 0 0 0 0 0 0 0 0 0 0 0 0 0 0 0.25 0"/>
<feBlend mode="normal" in2="BackgroundImageFix" result="effect1_dropShadow_123_2"/>
<feBlend mode="normal" in="SourceGraphic" in2="effect1_dropShadow_123_2" result="shape"/>
</filter>
</defs>
</svg>
