<svg width="174" height="219" viewBox="0 0 174 219" fill="none" xmlns="http://www.w3.org/2000/svg">
<path fill-rule="evenodd" clip-rule="evenodd" d="M85.3035 86.9293V168.508L85.2491 168.562L21.8044 141.429L21.75 141.337V59.7635L21.8044 59.8614L85.2437 86.9945L85.3035 86.9293Z" fill="#FCD062"/>
<path fill-rule="evenodd" clip-rule="evenodd" d="M148.852 59.7364L148.797 59.8343L85.3579 86.9674V168.541L148.797 141.408L148.852 141.31V59.7364Z" fill="#F8AA3A"/>
<path fill-rule="evenodd" clip-rule="evenodd" d="M148.797 59.769L85.3579 32.6359H85.2491L21.8044 59.769V59.8342L85.2437 86.9674L148.797 59.769Z" fill="#F8C253"/>
<path d="M112.072 129.179L96.2166 135.965M127.933 133.241L112.072 140.021L96.2166 146.813L127.933 133.241Z" stroke="#34485C" stroke-linecap="round" stroke-linejoin="round"/>
<path fill-rule="evenodd" clip-rule="evenodd" d="M21.75 59.8125L0 81.5625L63.6187 108.75L85.3687 87L21.75 59.8125ZM107.119 10.875L85.3687 32.625L148.987 59.8125L170.737 38.0625L107.119 10.875ZM148.987 59.8125L170.737 81.5625L107.119 108.75L85.3687 87L148.987 59.8125ZM63.6187 10.875L85.3687 32.625L21.75 59.8125L0 38.0625L63.6187 10.875Z" fill="#F8B84E"/>
<g filter="url(#filter0_d_123_2)">
<rect x="23" y="174" width="129" height="37" rx="5" fill="#5AA897" fill-opacity="0.4" shape-rendering="crispEdges"/>
</g>
<path d="M39.1669 198V186.364H43.2351C44.0457 186.364 44.7143 186.504 45.2408 186.784C45.7673 187.061 46.1593 187.434 46.4169 187.903C46.6745 188.369 46.8033 188.886 46.8033 189.455C46.8033 189.955 46.7143 190.367 46.5362 190.693C46.362 191.019 46.1309 191.277 45.843 191.466C45.5589 191.655 45.2502 191.795 44.9169 191.886V192C45.273 192.023 45.6309 192.148 45.9908 192.375C46.3506 192.602 46.6518 192.928 46.8942 193.352C47.1366 193.777 47.2578 194.295 47.2578 194.909C47.2578 195.492 47.1252 196.017 46.8601 196.483C46.5949 196.949 46.1764 197.318 45.6044 197.591C45.0324 197.864 44.2881 198 43.3714 198H39.1669ZM40.576 196.75H43.3714C44.2919 196.75 44.9453 196.572 45.3317 196.216C45.7218 195.856 45.9169 195.42 45.9169 194.909C45.9169 194.515 45.8165 194.152 45.6158 193.818C45.415 193.481 45.129 193.212 44.7578 193.011C44.3866 192.807 43.9472 192.705 43.4396 192.705H40.576V196.75ZM40.576 191.477H43.1896C43.6139 191.477 43.9964 191.394 44.3374 191.227C44.6821 191.061 44.9548 190.826 45.1555 190.523C45.3601 190.22 45.4624 189.864 45.4624 189.455C45.4624 188.943 45.2843 188.509 44.9283 188.153C44.5722 187.794 44.0078 187.614 43.2351 187.614H40.576V191.477ZM56.4913 194.432V189.273H57.8322V198H56.4913V196.523H56.4004C56.1959 196.966 55.8777 197.343 55.4459 197.653C55.0141 197.96 54.4686 198.114 53.8095 198.114C53.2641 198.114 52.7792 197.994 52.355 197.756C51.9307 197.513 51.5974 197.15 51.355 196.665C51.1125 196.176 50.9913 195.561 50.9913 194.818V189.273H52.3322V194.727C52.3322 195.364 52.5103 195.871 52.8663 196.25C53.2262 196.629 53.6845 196.818 54.2413 196.818C54.5747 196.818 54.9137 196.733 55.2584 196.562C55.6069 196.392 55.8985 196.131 56.1334 195.778C56.372 195.426 56.4913 194.977 56.4913 194.432ZM61.8882 198V189.273H63.2291V198H61.8882ZM62.57 187.818C62.3087 187.818 62.0833 187.729 61.8939 187.551C61.7083 187.373 61.6155 187.159 61.6155 186.909C61.6155 186.659 61.7083 186.445 61.8939 186.267C62.0833 186.089 62.3087 186 62.57 186C62.8314 186 63.0549 186.089 63.2405 186.267C63.4299 186.445 63.5246 186.659 63.5246 186.909C63.5246 187.159 63.4299 187.373 63.2405 187.551C63.0549 187.729 62.8314 187.818 62.57 187.818ZM68.626 186.364V198H67.2851V186.364H68.626ZM75.9774 198.182C75.2501 198.182 74.6081 197.998 74.0513 197.631C73.4945 197.259 73.0589 196.737 72.7445 196.062C72.4301 195.384 72.2729 194.583 72.2729 193.659C72.2729 192.742 72.4301 191.947 72.7445 191.273C73.0589 190.598 73.4964 190.078 74.057 189.71C74.6176 189.343 75.2653 189.159 76.0001 189.159C76.5683 189.159 77.0172 189.254 77.3467 189.443C77.6801 189.629 77.9339 189.841 78.1081 190.08C78.2861 190.314 78.4244 190.508 78.5229 190.659H78.6365V186.364H79.9774V198H78.682V196.659H78.5229C78.4244 196.818 78.2842 197.019 78.1024 197.261C77.9206 197.5 77.6611 197.714 77.324 197.903C76.9869 198.089 76.538 198.182 75.9774 198.182ZM76.1592 196.977C76.6971 196.977 77.1517 196.837 77.5229 196.557C77.8941 196.273 78.1763 195.881 78.3695 195.381C78.5626 194.877 78.6592 194.295 78.6592 193.636C78.6592 192.985 78.5645 192.415 78.3751 191.926C78.1858 191.434 77.9054 191.051 77.5342 190.778C77.163 190.502 76.7047 190.364 76.1592 190.364C75.5911 190.364 75.1176 190.509 74.7388 190.801C74.3638 191.089 74.0816 191.481 73.8922 191.977C73.7066 192.47 73.6138 193.023 73.6138 193.636C73.6138 194.258 73.7085 194.822 73.8979 195.33C74.0911 195.833 74.3751 196.235 74.7501 196.534C75.1289 196.83 75.5986 196.977 76.1592 196.977ZM92.8876 198.205C92.3346 198.205 91.8327 198.1 91.382 197.892C90.9312 197.68 90.5732 197.375 90.3081 196.977C90.0429 196.576 89.9104 196.091 89.9104 195.523C89.9104 195.023 90.0089 194.617 90.2058 194.307C90.4028 193.992 90.666 193.746 90.9956 193.568C91.3251 193.39 91.6888 193.258 92.0865 193.17C92.488 193.08 92.8914 193.008 93.2967 192.955C93.827 192.886 94.257 192.835 94.5865 192.801C94.9198 192.763 95.1623 192.701 95.3138 192.614C95.4691 192.527 95.5467 192.375 95.5467 192.159V192.114C95.5467 191.553 95.3933 191.117 95.0865 190.807C94.7835 190.496 94.3232 190.341 93.7058 190.341C93.0657 190.341 92.5638 190.481 92.2001 190.761C91.8365 191.042 91.5808 191.341 91.4331 191.659L90.1604 191.205C90.3876 190.674 90.6907 190.261 91.0695 189.966C91.452 189.667 91.8687 189.458 92.3195 189.341C92.774 189.22 93.221 189.159 93.6604 189.159C93.9407 189.159 94.2626 189.193 94.6263 189.261C94.9937 189.326 95.3479 189.46 95.6888 189.665C96.0335 189.869 96.3195 190.178 96.5467 190.591C96.774 191.004 96.8876 191.557 96.8876 192.25V198H95.5467V196.818H95.4785C95.3876 197.008 95.2361 197.21 95.024 197.426C94.8119 197.642 94.5297 197.826 94.1774 197.977C93.8251 198.129 93.3952 198.205 92.8876 198.205ZM93.0922 197C93.6225 197 94.0695 196.896 94.4331 196.688C94.8005 196.479 95.077 196.21 95.2626 195.881C95.452 195.551 95.5467 195.205 95.5467 194.841V193.614C95.4899 193.682 95.3649 193.744 95.1717 193.801C94.9823 193.854 94.7626 193.902 94.5126 193.943C94.2664 193.981 94.0259 194.015 93.791 194.045C93.56 194.072 93.3725 194.095 93.2285 194.114C92.8801 194.159 92.5543 194.233 92.2513 194.335C91.952 194.434 91.7096 194.583 91.524 194.784C91.3422 194.981 91.2513 195.25 91.2513 195.591C91.2513 196.057 91.4236 196.409 91.7683 196.648C92.1168 196.883 92.5581 197 93.0922 197ZM107.217 198V186.364H111.285C112.096 186.364 112.764 186.504 113.291 186.784C113.817 187.061 114.209 187.434 114.467 187.903C114.724 188.369 114.853 188.886 114.853 189.455C114.853 189.955 114.764 190.367 114.586 190.693C114.412 191.019 114.181 191.277 113.893 191.466C113.609 191.655 113.3 191.795 112.967 191.886V192C113.323 192.023 113.681 192.148 114.041 192.375C114.401 192.602 114.702 192.928 114.944 193.352C115.187 193.777 115.308 194.295 115.308 194.909C115.308 195.492 115.175 196.017 114.91 196.483C114.645 196.949 114.226 197.318 113.654 197.591C113.082 197.864 112.338 198 111.421 198H107.217ZM108.626 196.75H111.421C112.342 196.75 112.995 196.572 113.382 196.216C113.772 195.856 113.967 195.42 113.967 194.909C113.967 194.515 113.867 194.152 113.666 193.818C113.465 193.481 113.179 193.212 112.808 193.011C112.437 192.807 111.997 192.705 111.49 192.705H108.626V196.75ZM108.626 191.477H111.24C111.664 191.477 112.046 191.394 112.387 191.227C112.732 191.061 113.005 190.826 113.206 190.523C113.41 190.22 113.512 189.864 113.512 189.455C113.512 188.943 113.334 188.509 112.978 188.153C112.622 187.794 112.058 187.614 111.285 187.614H108.626V191.477ZM122.587 198.182C121.799 198.182 121.108 197.994 120.513 197.619C119.922 197.244 119.46 196.72 119.127 196.045C118.797 195.371 118.632 194.583 118.632 193.682C118.632 192.773 118.797 191.979 119.127 191.301C119.46 190.623 119.922 190.097 120.513 189.722C121.108 189.347 121.799 189.159 122.587 189.159C123.375 189.159 124.064 189.347 124.655 189.722C125.25 190.097 125.712 190.623 126.041 191.301C126.375 191.979 126.541 192.773 126.541 193.682C126.541 194.583 126.375 195.371 126.041 196.045C125.712 196.72 125.25 197.244 124.655 197.619C124.064 197.994 123.375 198.182 122.587 198.182ZM122.587 196.977C123.185 196.977 123.678 196.824 124.064 196.517C124.45 196.21 124.736 195.807 124.922 195.307C125.108 194.807 125.2 194.265 125.2 193.682C125.2 193.098 125.108 192.555 124.922 192.051C124.736 191.547 124.45 191.14 124.064 190.83C123.678 190.519 123.185 190.364 122.587 190.364C121.988 190.364 121.496 190.519 121.11 190.83C120.723 191.14 120.437 191.547 120.252 192.051C120.066 192.555 119.973 193.098 119.973 193.682C119.973 194.265 120.066 194.807 120.252 195.307C120.437 195.807 120.723 196.21 121.11 196.517C121.496 196.824 121.988 196.977 122.587 196.977ZM130.829 189.273L132.92 192.841L135.011 189.273H136.556L133.738 193.636L136.556 198H135.011L132.92 194.614L130.829 198H129.283L132.056 193.636L129.283 189.273H130.829Z" fill="#484545"/>
<defs>
<filter id="filter0_d_123_2" x="19" y="174" width="137" height="45" filterUnits="userSpaceOnUse" color-interpolation-filters="sRGB">
<feFlood flood-opacity="0" result="BackgroundImageFix"/>
<feColorMatrix in="SourceAlpha" type="matrix" values="0 0 0 0 0 0 0 0 0 0 0 0 0 0 0 0 0 0 127 0" result="hardAlpha"/>
<feOffset dy="4"/>
<feGaussianBlur stdDeviation="2"/>
<feComposite in2="hardAlpha" operator="out"/>
<feColorMatrix type="matrix" values="0 0 0 0 0 0 0 0 0 0 0 0 0 0 0 0 0 0 0.25 0"/>
<feBlend mode="normal" in2="BackgroundImageFix" result="effect1_dropShadow_123_2"/>
<feBlend mode="normal" in="SourceGraphic" in2="effect1_dropShadow_123_2" result="shape"/>
</filter>
</defs>
</svg>
