<svg width="204" height="195" viewBox="0 0 204 195" fill="none" xmlns="http://www.w3.org/2000/svg">
<path d="M152.098 21.1015L51.8969 21.0779C49.46 21.0772 47.485 19.1885 47.4858 16.8595L47.489 4.32697C47.4894 1.99763 49.4656 0.109712 51.9025 0.110474L152.103 0.134087C154.54 0.134849 156.515 2.02353 156.514 4.35249L156.511 16.885C156.51 19.2144 154.534 21.1023 152.098 21.1015ZM160.789 39.7084C154.958 36.5382 150.731 31.3371 149.387 25.2449L54.6345 25.2243C53.3771 31.2541 49.3668 36.5176 43.6006 39.5218H43.5791C36.512 43.2104 32.0901 50.2967 32.0901 57.9843V185.068C32.0901 190.476 36.7076 194.89 42.4089 194.89H161.614C167.293 194.89 171.911 190.476 171.911 185.068V57.9847C171.91 50.7785 168.142 43.8613 160.789 39.7084ZM165.407 185.068C165.407 187.057 163.694 188.674 161.613 188.674H42.4085C40.3055 188.674 38.593 187.057 38.593 185.068V67.4544H165.407V185.068Z" fill="#5AA897"/>
</svg>
