<svg width="184" height="184" viewBox="0 0 184 184" fill="none" xmlns="http://www.w3.org/2000/svg">
<g clip-path="url(#clip0_40_199)">
<path d="M151.589 58.4391C148.178 50.6643 142.343 49.9801 139.284 47.495C136.141 45.0416 134.914 41.6875 134.473 38.8316C134.09 38.87 133.726 38.889 133.343 38.889H130.621C131.1 42.5112 132.576 47.0925 136.888 50.4846C140.505 53.4017 145.242 53.5153 148.082 59.9721C148.829 61.6968 149.213 63.5752 149.213 65.4346V171.676C149.213 176.352 145.418 180.166 140.741 180.166H43.2784C38.5825 180.166 34.7875 176.352 34.7875 171.676V65.435C34.7875 59.9725 37.9884 55.0656 42.9715 52.9385C48.99 50.3704 52.459 45.6554 53.36 38.8894C50.7901 38.875 50.4584 38.925 49.5265 38.8319C48.9515 42.4925 47.0925 46.9969 41.4575 49.4119C35.075 52.1525 30.954 58.4394 30.954 65.4354V171.676C30.954 178.48 36.474 184 43.2781 184H140.741C147.526 184 153.046 178.48 153.046 171.676V65.435C153.046 63.0581 152.548 60.6435 151.589 58.4391ZM50.6575 35.056H133.343C138.019 35.056 141.814 31.261 141.814 26.6035C141.814 21.946 138.019 18.151 133.343 18.151H100.012C100.874 16.196 102.158 14.3175 103.826 12.6119C106.413 9.98595 105.915 7.49441 105.378 6.22941C103.864 2.62595 98.229 0 91.9809 0C85.5984 0 80.0784 2.54905 78.5644 6.21C77.6634 8.395 78.2385 10.7335 80.136 12.631C81.8035 14.2985 83.1069 16.1769 83.95 18.151H50.6575C46 18.151 42.205 21.946 42.205 26.6035C42.205 31.3404 46.0126 35.056 50.6575 35.056Z" fill="#5AA897"/>
</g>
<defs>
<clipPath id="clip0_40_199">
<rect width="184" height="184" fill="white"/>
</clipPath>
</defs>
</svg>
