<svg width="183" height="187" viewBox="0 0 183 187" fill="none" xmlns="http://www.w3.org/2000/svg">
<g clip-path="url(#clip0_123_5)">
<path d="M133.749 41.9237C131.302 36.3461 127.116 35.8553 124.921 34.0725C122.666 32.3124 121.786 29.9063 121.47 27.8574C121.195 27.885 120.934 27.8987 120.659 27.8987H118.706C119.05 30.4972 120.109 33.7838 123.203 36.2172C125.797 38.3099 129.196 38.3914 131.233 43.0235C131.769 44.2607 132.044 45.6083 132.044 46.9422V123.159C132.044 126.513 129.321 129.25 125.966 129.25H56.0476C52.6788 129.25 49.9563 126.513 49.9563 123.159V46.9425C49.9563 43.0238 52.2526 39.5036 55.8274 37.9776C60.145 36.1353 62.6337 32.7528 63.28 27.8989C61.4364 27.8886 61.1984 27.9244 60.5299 27.8577C60.1174 30.4838 58.7838 33.7152 54.7413 35.4477C50.1625 37.4138 47.2062 41.9239 47.2062 46.9428V123.159C47.2062 128.04 51.1662 132 56.0473 132H125.966C130.834 132 134.794 128.04 134.794 123.159V46.9425C134.794 45.2373 134.436 43.5051 133.749 41.9237ZM61.3413 25.1488H120.659C124.014 25.1488 126.736 22.4263 126.736 19.0851C126.736 15.7438 124.014 13.0213 120.659 13.0213H96.7474C97.3662 11.6188 98.2873 10.2713 99.4836 9.04767C101.34 7.16384 100.982 5.37642 100.597 4.46892C99.5112 1.88384 95.4687 0 90.9863 0C86.4076 0 82.4476 1.82866 81.3614 4.455C80.7151 6.0225 81.1276 7.70009 82.4888 9.06134C83.6851 10.2576 84.6202 11.6052 85.225 13.0213H61.3413C58 13.0213 55.2775 15.7438 55.2775 19.0851C55.2775 22.4833 58.009 25.1488 61.3413 25.1488Z" fill="#2B4B8C"/>
</g>
<g filter="url(#filter0_d_123_5)">
<rect x="4" y="139" width="175" height="40" rx="5" fill="#5AA897" fill-opacity="0.4" shape-rendering="crispEdges"/>
</g>
<path d="M43.92 153.364H45.6018L49.5564 163.023H49.6928L53.6473 153.364H55.3291V165H54.0109V156.159H53.8973L50.2609 165H48.9882L45.3518 156.159H45.2382V165H43.92V153.364ZM62.1408 165.205C61.5877 165.205 61.0858 165.1 60.6351 164.892C60.1843 164.68 59.8264 164.375 59.5612 163.977C59.2961 163.576 59.1635 163.091 59.1635 162.523C59.1635 162.023 59.262 161.617 59.4589 161.307C59.6559 160.992 59.9192 160.746 60.2487 160.568C60.5783 160.39 60.9419 160.258 61.3396 160.17C61.7411 160.08 62.1446 160.008 62.5499 159.955C63.0802 159.886 63.5101 159.835 63.8396 159.801C64.173 159.763 64.4154 159.701 64.5669 159.614C64.7222 159.527 64.7999 159.375 64.7999 159.159V159.114C64.7999 158.553 64.6464 158.117 64.3396 157.807C64.0366 157.496 63.5764 157.341 62.9589 157.341C62.3188 157.341 61.8169 157.481 61.4533 157.761C61.0896 158.042 60.8339 158.341 60.6862 158.659L59.4135 158.205C59.6408 157.674 59.9438 157.261 60.3226 156.966C60.7052 156.667 61.1218 156.458 61.5726 156.341C62.0271 156.22 62.4741 156.159 62.9135 156.159C63.1938 156.159 63.5158 156.193 63.8794 156.261C64.2468 156.326 64.601 156.46 64.9419 156.665C65.2866 156.869 65.5726 157.178 65.7999 157.591C66.0271 158.004 66.1408 158.557 66.1408 159.25V165H64.7999V163.818H64.7317C64.6408 164.008 64.4893 164.21 64.2771 164.426C64.065 164.642 63.7828 164.826 63.4305 164.977C63.0783 165.129 62.6483 165.205 62.1408 165.205ZM62.3453 164C62.8756 164 63.3226 163.896 63.6862 163.688C64.0536 163.479 64.3302 163.21 64.5158 162.881C64.7052 162.551 64.7999 162.205 64.7999 161.841V160.614C64.743 160.682 64.618 160.744 64.4249 160.801C64.2355 160.854 64.0158 160.902 63.7658 160.943C63.5196 160.981 63.279 161.015 63.0442 161.045C62.8131 161.072 62.6256 161.095 62.4817 161.114C62.1332 161.159 61.8074 161.233 61.5044 161.335C61.2052 161.434 60.9627 161.583 60.7771 161.784C60.5953 161.981 60.5044 162.25 60.5044 162.591C60.5044 163.057 60.6768 163.409 61.0214 163.648C61.3699 163.883 61.8112 164 62.3453 164ZM71.4382 161.818L71.4155 160.159H71.6882L75.5064 156.273H77.1655L73.0973 160.386H72.9837L71.4382 161.818ZM70.1882 165V153.364H71.5291V165H70.1882ZM75.7337 165L72.3246 160.682L73.2791 159.75L77.4382 165H75.7337ZM83.791 165.182C82.9501 165.182 82.2248 164.996 81.6149 164.625C81.0089 164.25 80.541 163.727 80.2115 163.057C79.8857 162.383 79.7229 161.598 79.7229 160.705C79.7229 159.811 79.8857 159.023 80.2115 158.341C80.541 157.655 80.9994 157.121 81.5865 156.739C82.1774 156.352 82.8668 156.159 83.6547 156.159C84.1092 156.159 84.5581 156.235 85.0013 156.386C85.4445 156.538 85.8479 156.784 86.2115 157.125C86.5751 157.462 86.8649 157.909 87.0808 158.466C87.2967 159.023 87.4047 159.708 87.4047 160.523V161.091H80.6774V159.932H86.041C86.041 159.439 85.9426 159 85.7456 158.614C85.5524 158.227 85.2759 157.922 84.916 157.699C84.56 157.475 84.1395 157.364 83.6547 157.364C83.1206 157.364 82.6585 157.496 82.2683 157.761C81.882 158.023 81.5846 158.364 81.3763 158.784C81.1679 159.205 81.0638 159.655 81.0638 160.136V160.909C81.0638 161.568 81.1774 162.127 81.4047 162.585C81.6357 163.04 81.9558 163.386 82.3649 163.625C82.774 163.86 83.2494 163.977 83.791 163.977C84.1433 163.977 84.4615 163.928 84.7456 163.83C85.0335 163.727 85.2816 163.576 85.4899 163.375C85.6982 163.17 85.8592 162.917 85.9729 162.614L87.2683 162.977C87.132 163.417 86.9028 163.803 86.5808 164.136C86.2589 164.466 85.8611 164.723 85.3876 164.909C84.9142 165.091 84.382 165.182 83.791 165.182ZM99.7126 165.205C99.1596 165.205 98.6577 165.1 98.207 164.892C97.7562 164.68 97.3982 164.375 97.1331 163.977C96.8679 163.576 96.7354 163.091 96.7354 162.523C96.7354 162.023 96.8339 161.617 97.0308 161.307C97.2278 160.992 97.4911 160.746 97.8206 160.568C98.1501 160.39 98.5138 160.258 98.9115 160.17C99.313 160.08 99.7164 160.008 100.122 159.955C100.652 159.886 101.082 159.835 101.412 159.801C101.745 159.763 101.987 159.701 102.139 159.614C102.294 159.527 102.372 159.375 102.372 159.159V159.114C102.372 158.553 102.218 158.117 101.912 157.807C101.608 157.496 101.148 157.341 100.531 157.341C99.8907 157.341 99.3888 157.481 99.0251 157.761C98.6615 158.042 98.4058 158.341 98.2581 158.659L96.9854 158.205C97.2126 157.674 97.5157 157.261 97.8945 156.966C98.277 156.667 98.6937 156.458 99.1445 156.341C99.599 156.22 100.046 156.159 100.485 156.159C100.766 156.159 101.088 156.193 101.451 156.261C101.819 156.326 102.173 156.46 102.514 156.665C102.858 156.869 103.144 157.178 103.372 157.591C103.599 158.004 103.713 158.557 103.713 159.25V165H102.372V163.818H102.304C102.213 164.008 102.061 164.21 101.849 164.426C101.637 164.642 101.355 164.826 101.002 164.977C100.65 165.129 100.22 165.205 99.7126 165.205ZM99.9172 164C100.447 164 100.894 163.896 101.258 163.688C101.626 163.479 101.902 163.21 102.088 162.881C102.277 162.551 102.372 162.205 102.372 161.841V160.614C102.315 160.682 102.19 160.744 101.997 160.801C101.807 160.854 101.588 160.902 101.338 160.943C101.091 160.981 100.851 161.015 100.616 161.045C100.385 161.072 100.197 161.095 100.054 161.114C99.7051 161.159 99.3793 161.233 99.0763 161.335C98.777 161.434 98.5346 161.583 98.349 161.784C98.1672 161.981 98.0763 162.25 98.0763 162.591C98.0763 163.057 98.2486 163.409 98.5933 163.648C98.9418 163.883 99.3831 164 99.9172 164ZM118.496 153.364H119.906V161.682C119.906 162.424 119.769 163.055 119.496 163.574C119.224 164.093 118.839 164.487 118.343 164.756C117.847 165.025 117.262 165.159 116.587 165.159C115.951 165.159 115.385 165.044 114.888 164.812C114.392 164.578 114.002 164.244 113.718 163.812C113.434 163.381 113.292 162.867 113.292 162.273H114.678C114.678 162.602 114.76 162.89 114.923 163.136C115.089 163.379 115.317 163.568 115.604 163.705C115.892 163.841 116.22 163.909 116.587 163.909C116.993 163.909 117.337 163.824 117.621 163.653C117.906 163.483 118.121 163.233 118.269 162.903C118.421 162.57 118.496 162.163 118.496 161.682V153.364ZM126.716 165.205C126.163 165.205 125.661 165.1 125.21 164.892C124.759 164.68 124.401 164.375 124.136 163.977C123.871 163.576 123.739 163.091 123.739 162.523C123.739 162.023 123.837 161.617 124.034 161.307C124.231 160.992 124.494 160.746 124.824 160.568C125.153 160.39 125.517 160.258 125.915 160.17C126.316 160.08 126.72 160.008 127.125 159.955C127.655 159.886 128.085 159.835 128.415 159.801C128.748 159.763 128.99 159.701 129.142 159.614C129.297 159.527 129.375 159.375 129.375 159.159V159.114C129.375 158.553 129.221 158.117 128.915 157.807C128.612 157.496 128.151 157.341 127.534 157.341C126.894 157.341 126.392 157.481 126.028 157.761C125.665 158.042 125.409 158.341 125.261 158.659L123.989 158.205C124.216 157.674 124.519 157.261 124.898 156.966C125.28 156.667 125.697 156.458 126.148 156.341C126.602 156.22 127.049 156.159 127.489 156.159C127.769 156.159 128.091 156.193 128.454 156.261C128.822 156.326 129.176 156.46 129.517 156.665C129.862 156.869 130.148 157.178 130.375 157.591C130.602 158.004 130.716 158.557 130.716 159.25V165H129.375V163.818H129.307C129.216 164.008 129.064 164.21 128.852 164.426C128.64 164.642 128.358 164.826 128.006 164.977C127.653 165.129 127.223 165.205 126.716 165.205ZM126.92 164C127.451 164 127.898 163.896 128.261 163.688C128.629 163.479 128.905 163.21 129.091 162.881C129.28 162.551 129.375 162.205 129.375 161.841V160.614C129.318 160.682 129.193 160.744 129 160.801C128.81 160.854 128.591 160.902 128.341 160.943C128.095 160.981 127.854 161.015 127.619 161.045C127.388 161.072 127.201 161.095 127.057 161.114C126.708 161.159 126.382 161.233 126.079 161.335C125.78 161.434 125.538 161.583 125.352 161.784C125.17 161.981 125.079 162.25 125.079 162.591C125.079 163.057 125.252 163.409 125.596 163.648C125.945 163.883 126.386 164 126.92 164ZM134.763 165V156.273H136.059V157.591H136.15C136.309 157.159 136.597 156.809 137.013 156.54C137.43 156.271 137.9 156.136 138.422 156.136C138.521 156.136 138.644 156.138 138.792 156.142C138.939 156.146 139.051 156.152 139.127 156.159V157.523C139.081 157.511 138.977 157.494 138.814 157.472C138.655 157.445 138.487 157.432 138.309 157.432C137.884 157.432 137.506 157.521 137.172 157.699C136.843 157.873 136.581 158.116 136.388 158.426C136.199 158.733 136.104 159.083 136.104 159.477V165H134.763Z" fill="#484545"/>
<defs>
<filter id="filter0_d_123_5" x="0" y="139" width="183" height="48" filterUnits="userSpaceOnUse" color-interpolation-filters="sRGB">
<feFlood flood-opacity="0" result="BackgroundImageFix"/>
<feColorMatrix in="SourceAlpha" type="matrix" values="0 0 0 0 0 0 0 0 0 0 0 0 0 0 0 0 0 0 127 0" result="hardAlpha"/>
<feOffset dy="4"/>
<feGaussianBlur stdDeviation="2"/>
<feComposite in2="hardAlpha" operator="out"/>
<feColorMatrix type="matrix" values="0 0 0 0 0 0 0 0 0 0 0 0 0 0 0 0 0 0 0.25 0"/>
<feBlend mode="normal" in2="BackgroundImageFix" result="effect1_dropShadow_123_5"/>
<feBlend mode="normal" in="SourceGraphic" in2="effect1_dropShadow_123_5" result="shape"/>
</filter>
<clipPath id="clip0_123_5">
<rect width="132" height="132" fill="white" transform="translate(25)"/>
</clipPath>
</defs>
</svg>
