<svg width="139" height="187" viewBox="0 0 139 187" fill="none" xmlns="http://www.w3.org/2000/svg">
<g clip-path="url(#clip0_123_5)">
<path d="M112.749 41.9237C110.302 36.3461 106.116 35.8553 103.921 34.0725C101.666 32.3124 100.786 29.9062 100.47 27.8574C100.195 27.885 99.9336 27.8987 99.6588 27.8987H97.7064C98.05 30.4972 99.1089 33.7838 102.203 36.2172C104.797 38.3099 108.196 38.3914 110.233 43.0235C110.769 44.2607 111.044 45.6083 111.044 46.9422V123.159C111.044 126.513 108.321 129.25 104.966 129.25H35.0476C31.6788 129.25 28.9563 126.513 28.9563 123.159V46.9425C28.9563 43.0238 31.2526 39.5036 34.8274 37.9776C39.145 36.1353 41.6337 32.7528 42.28 27.8989C40.4364 27.8886 40.1984 27.9244 39.5299 27.8577C39.1174 30.4837 37.7838 33.7152 33.7413 35.4477C29.1625 37.4137 26.2062 41.9239 26.2062 46.9428V123.159C26.2062 128.04 30.1662 132 35.0473 132H104.966C109.834 132 113.794 128.04 113.794 123.159V46.9425C113.794 45.2373 113.436 43.5051 112.749 41.9237ZM40.3413 25.1488H99.6588C103.014 25.1488 105.736 22.4263 105.736 19.0851C105.736 15.7438 103.014 13.0213 99.6588 13.0213H75.7474C76.3662 11.6188 77.2873 10.2713 78.4836 9.04767C80.3398 7.16384 79.9823 5.37642 79.5973 4.46892C78.5112 1.88384 74.4687 0 69.9863 0C65.4076 0 61.4476 1.82866 60.3614 4.455C59.7151 6.0225 60.1276 7.70009 61.4888 9.06134C62.6851 10.2576 63.6202 11.6052 64.225 13.0213H40.3413C37 13.0213 34.2775 15.7438 34.2775 19.0851C34.2775 22.4833 37.009 25.1488 40.3413 25.1488Z" fill="#2B4B8C"/>
</g>
<g filter="url(#filter0_d_123_5)">
<rect x="4" y="139" width="131" height="40" rx="5" fill="#5AA897" fill-opacity="0.4" shape-rendering="crispEdges"/>
</g>
<path d="M24.92 153.364H26.6018L30.5564 163.023H30.6928L34.6473 153.364H36.3291V165H35.0109V156.159H34.8973L31.2609 165H29.9882L26.3518 156.159H26.2382V165H24.92V153.364ZM43.1408 165.205C42.5877 165.205 42.0858 165.1 41.6351 164.892C41.1843 164.68 40.8264 164.375 40.5612 163.977C40.2961 163.576 40.1635 163.091 40.1635 162.523C40.1635 162.023 40.262 161.617 40.4589 161.307C40.6559 160.992 40.9192 160.746 41.2487 160.568C41.5783 160.39 41.9419 160.258 42.3396 160.17C42.7411 160.08 43.1446 160.008 43.5499 159.955C44.0802 159.886 44.5101 159.835 44.8396 159.801C45.173 159.763 45.4154 159.701 45.5669 159.614C45.7222 159.527 45.7999 159.375 45.7999 159.159V159.114C45.7999 158.553 45.6464 158.117 45.3396 157.807C45.0366 157.496 44.5764 157.341 43.9589 157.341C43.3188 157.341 42.8169 157.481 42.4533 157.761C42.0896 158.042 41.8339 158.341 41.6862 158.659L40.4135 158.205C40.6408 157.674 40.9438 157.261 41.3226 156.966C41.7052 156.667 42.1218 156.458 42.5726 156.341C43.0271 156.22 43.4741 156.159 43.9135 156.159C44.1938 156.159 44.5158 156.193 44.8794 156.261C45.2468 156.326 45.601 156.46 45.9419 156.665C46.2866 156.869 46.5726 157.178 46.7999 157.591C47.0271 158.004 47.1408 158.557 47.1408 159.25V165H45.7999V163.818H45.7317C45.6408 164.008 45.4893 164.21 45.2771 164.426C45.065 164.642 44.7828 164.826 44.4305 164.977C44.0783 165.129 43.6483 165.205 43.1408 165.205ZM43.3453 164C43.8756 164 44.3226 163.896 44.6862 163.688C45.0536 163.479 45.3302 163.21 45.5158 162.881C45.7052 162.551 45.7999 162.205 45.7999 161.841V160.614C45.743 160.682 45.618 160.744 45.4249 160.801C45.2355 160.854 45.0158 160.902 44.7658 160.943C44.5196 160.981 44.279 161.015 44.0442 161.045C43.8131 161.072 43.6256 161.095 43.4817 161.114C43.1332 161.159 42.8074 161.233 42.5044 161.335C42.2052 161.434 41.9627 161.583 41.7771 161.784C41.5953 161.981 41.5044 162.25 41.5044 162.591C41.5044 163.057 41.6768 163.409 42.0214 163.648C42.3699 163.883 42.8112 164 43.3453 164ZM52.4382 161.818L52.4155 160.159H52.6882L56.5064 156.273H58.1655L54.0973 160.386H53.9837L52.4382 161.818ZM51.1882 165V153.364H52.5291V165H51.1882ZM56.7337 165L53.3246 160.682L54.2791 159.75L58.4382 165H56.7337ZM64.791 165.182C63.9501 165.182 63.2248 164.996 62.6149 164.625C62.0089 164.25 61.541 163.727 61.2115 163.057C60.8857 162.383 60.7229 161.598 60.7229 160.705C60.7229 159.811 60.8857 159.023 61.2115 158.341C61.541 157.655 61.9994 157.121 62.5865 156.739C63.1774 156.352 63.8668 156.159 64.6547 156.159C65.1092 156.159 65.5581 156.235 66.0013 156.386C66.4445 156.538 66.8479 156.784 67.2115 157.125C67.5751 157.462 67.8649 157.909 68.0808 158.466C68.2967 159.023 68.4047 159.708 68.4047 160.523V161.091H61.6774V159.932H67.041C67.041 159.439 66.9426 159 66.7456 158.614C66.5524 158.227 66.2759 157.922 65.916 157.699C65.56 157.475 65.1395 157.364 64.6547 157.364C64.1206 157.364 63.6585 157.496 63.2683 157.761C62.882 158.023 62.5846 158.364 62.3763 158.784C62.1679 159.205 62.0638 159.655 62.0638 160.136V160.909C62.0638 161.568 62.1774 162.127 62.4047 162.585C62.6357 163.04 62.9558 163.386 63.3649 163.625C63.774 163.86 64.2494 163.977 64.791 163.977C65.1433 163.977 65.4615 163.928 65.7456 163.83C66.0335 163.727 66.2816 163.576 66.4899 163.375C66.6982 163.17 66.8592 162.917 66.9729 162.614L68.2683 162.977C68.132 163.417 67.9028 163.803 67.5808 164.136C67.2589 164.466 66.8611 164.723 66.3876 164.909C65.9142 165.091 65.382 165.182 64.791 165.182ZM80.7126 165.205C80.1596 165.205 79.6577 165.1 79.207 164.892C78.7562 164.68 78.3982 164.375 78.1331 163.977C77.8679 163.576 77.7354 163.091 77.7354 162.523C77.7354 162.023 77.8339 161.617 78.0308 161.307C78.2278 160.992 78.4911 160.746 78.8206 160.568C79.1501 160.39 79.5138 160.258 79.9115 160.17C80.313 160.08 80.7164 160.008 81.1217 159.955C81.652 159.886 82.082 159.835 82.4115 159.801C82.7448 159.763 82.9873 159.701 83.1388 159.614C83.2941 159.527 83.3717 159.375 83.3717 159.159V159.114C83.3717 158.553 83.2183 158.117 82.9115 157.807C82.6085 157.496 82.1482 157.341 81.5308 157.341C80.8907 157.341 80.3888 157.481 80.0251 157.761C79.6615 158.042 79.4058 158.341 79.2581 158.659L77.9854 158.205C78.2126 157.674 78.5157 157.261 78.8945 156.966C79.277 156.667 79.6937 156.458 80.1445 156.341C80.599 156.22 81.046 156.159 81.4854 156.159C81.7657 156.159 82.0876 156.193 82.4513 156.261C82.8187 156.326 83.1729 156.46 83.5138 156.665C83.8585 156.869 84.1445 157.178 84.3717 157.591C84.599 158.004 84.7126 158.557 84.7126 159.25V165H83.3717V163.818H83.3036C83.2126 164.008 83.0611 164.21 82.849 164.426C82.6369 164.642 82.3547 164.826 82.0024 164.977C81.6501 165.129 81.2202 165.205 80.7126 165.205ZM80.9172 164C81.4475 164 81.8945 163.896 82.2581 163.688C82.6255 163.479 82.902 163.21 83.0876 162.881C83.277 162.551 83.3717 162.205 83.3717 161.841V160.614C83.3149 160.682 83.1899 160.744 82.9967 160.801C82.8073 160.854 82.5876 160.902 82.3376 160.943C82.0914 160.981 81.8509 161.015 81.6161 161.045C81.385 161.072 81.1975 161.095 81.0536 161.114C80.7051 161.159 80.3793 161.233 80.0763 161.335C79.777 161.434 79.5346 161.583 79.349 161.784C79.1672 161.981 79.0763 162.25 79.0763 162.591C79.0763 163.057 79.2486 163.409 79.5933 163.648C79.9418 163.883 80.3831 164 80.9172 164ZM99.4964 153.364H100.906V161.682C100.906 162.424 100.769 163.055 100.496 163.574C100.224 164.093 99.8393 164.487 99.343 164.756C98.8468 165.025 98.2616 165.159 97.5874 165.159C96.951 165.159 96.3847 165.044 95.8885 164.812C95.3923 164.578 95.0021 164.244 94.718 163.812C94.4339 163.381 94.2919 162.867 94.2919 162.273H95.6783C95.6783 162.602 95.7597 162.89 95.9226 163.136C96.0893 163.379 96.3165 163.568 96.6044 163.705C96.8923 163.841 97.2199 163.909 97.5874 163.909C97.9927 163.909 98.3374 163.824 98.6214 163.653C98.9055 163.483 99.1214 163.233 99.2692 162.903C99.4207 162.57 99.4964 162.163 99.4964 161.682V153.364ZM107.716 165.205C107.163 165.205 106.661 165.1 106.21 164.892C105.759 164.68 105.401 164.375 105.136 163.977C104.871 163.576 104.739 163.091 104.739 162.523C104.739 162.023 104.837 161.617 105.034 161.307C105.231 160.992 105.494 160.746 105.824 160.568C106.153 160.39 106.517 160.258 106.915 160.17C107.316 160.08 107.72 160.008 108.125 159.955C108.655 159.886 109.085 159.835 109.415 159.801C109.748 159.763 109.99 159.701 110.142 159.614C110.297 159.527 110.375 159.375 110.375 159.159V159.114C110.375 158.553 110.221 158.117 109.915 157.807C109.612 157.496 109.151 157.341 108.534 157.341C107.894 157.341 107.392 157.481 107.028 157.761C106.665 158.042 106.409 158.341 106.261 158.659L104.989 158.205C105.216 157.674 105.519 157.261 105.898 156.966C106.28 156.667 106.697 156.458 107.148 156.341C107.602 156.22 108.049 156.159 108.489 156.159C108.769 156.159 109.091 156.193 109.454 156.261C109.822 156.326 110.176 156.46 110.517 156.665C110.862 156.869 111.148 157.178 111.375 157.591C111.602 158.004 111.716 158.557 111.716 159.25V165H110.375V163.818H110.307C110.216 164.008 110.064 164.21 109.852 164.426C109.64 164.642 109.358 164.826 109.006 164.977C108.653 165.129 108.223 165.205 107.716 165.205ZM107.92 164C108.451 164 108.898 163.896 109.261 163.688C109.629 163.479 109.905 163.21 110.091 162.881C110.28 162.551 110.375 162.205 110.375 161.841V160.614C110.318 160.682 110.193 160.744 110 160.801C109.81 160.854 109.591 160.902 109.341 160.943C109.095 160.981 108.854 161.015 108.619 161.045C108.388 161.072 108.201 161.095 108.057 161.114C107.708 161.159 107.382 161.233 107.079 161.335C106.78 161.434 106.538 161.583 106.352 161.784C106.17 161.981 106.079 162.25 106.079 162.591C106.079 163.057 106.252 163.409 106.596 163.648C106.945 163.883 107.386 164 107.92 164ZM115.763 165V156.273H117.059V157.591H117.15C117.309 157.159 117.597 156.809 118.013 156.54C118.43 156.271 118.9 156.136 119.422 156.136C119.521 156.136 119.644 156.138 119.792 156.142C119.939 156.146 120.051 156.152 120.127 156.159V157.523C120.081 157.511 119.977 157.494 119.814 157.472C119.655 157.445 119.487 157.432 119.309 157.432C118.884 157.432 118.506 157.521 118.172 157.699C117.843 157.873 117.581 158.116 117.388 158.426C117.199 158.733 117.104 159.083 117.104 159.477V165H115.763Z" fill="#484545"/>
<defs>
<filter id="filter0_d_123_5" x="0" y="139" width="139" height="48" filterUnits="userSpaceOnUse" color-interpolation-filters="sRGB">
<feFlood flood-opacity="0" result="BackgroundImageFix"/>
<feColorMatrix in="SourceAlpha" type="matrix" values="0 0 0 0 0 0 0 0 0 0 0 0 0 0 0 0 0 0 127 0" result="hardAlpha"/>
<feOffset dy="4"/>
<feGaussianBlur stdDeviation="2"/>
<feComposite in2="hardAlpha" operator="out"/>
<feColorMatrix type="matrix" values="0 0 0 0 0 0 0 0 0 0 0 0 0 0 0 0 0 0 0.25 0"/>
<feBlend mode="normal" in2="BackgroundImageFix" result="effect1_dropShadow_123_5"/>
<feBlend mode="normal" in="SourceGraphic" in2="effect1_dropShadow_123_5" result="shape"/>
</filter>
<clipPath id="clip0_123_5">
<rect width="132" height="132" fill="white" transform="translate(4)"/>
</clipPath>
</defs>
</svg>
