<svg width="275" height="257" viewBox="0 0 275 257" fill="none" xmlns="http://www.w3.org/2000/svg">
<g clip-path="url(#clip0_45_652)">
<mask id="path-3-inside-1_45_652" fill="white">
<path d="M255.355 150.73C255.382 162.188 252.987 173.538 248.308 184.129C243.629 194.719 236.757 204.341 228.088 212.443C219.418 220.545 209.122 226.967 197.79 231.34C186.457 235.713 174.313 237.952 162.052 237.926H112.948C100.687 237.953 88.5408 235.714 77.2076 231.342C65.8744 226.969 55.5771 220.548 46.9068 212.446C38.2366 204.344 31.3642 194.722 26.6844 184.131C22.0046 173.54 19.6095 162.189 19.6367 150.73"/>
</mask>
<path d="M255.355 150.73C255.382 162.188 252.987 173.538 248.308 184.129C243.629 194.719 236.757 204.341 228.088 212.443C219.418 220.545 209.122 226.967 197.79 231.34C186.457 235.713 174.313 237.952 162.052 237.926H112.948C100.687 237.953 88.5408 235.714 77.2076 231.342C65.8744 226.969 55.5771 220.548 46.9068 212.446C38.2366 204.344 31.3642 194.722 26.6844 184.131C22.0046 173.54 19.6095 162.189 19.6367 150.73" fill="#F8A488"/>
<path d="M162.052 237.926L162.054 236.926H162.052V237.926ZM112.948 237.926V236.926L112.945 236.926L112.948 237.926ZM254.355 150.733C254.381 162.049 252.016 173.261 247.393 183.725L249.223 184.533C253.958 173.816 256.382 162.327 256.355 150.728L254.355 150.733ZM247.393 183.725C242.77 194.189 235.978 203.7 227.405 211.713L228.77 213.174C237.536 204.982 244.487 195.25 249.223 184.533L247.393 183.725ZM227.405 211.713C218.831 219.725 208.645 226.079 197.43 230.407L198.15 232.273C209.599 227.855 220.005 221.365 228.77 213.174L227.405 211.713ZM197.43 230.407C186.214 234.735 174.192 236.951 162.054 236.926L162.05 238.926C174.433 238.952 186.701 236.691 198.15 232.273L197.43 230.407ZM162.052 236.926H112.948V238.926H162.052V236.926ZM112.945 236.926C100.807 236.952 88.7842 234.737 77.5675 230.409L76.8476 232.275C88.2974 236.692 100.566 238.953 112.95 238.926L112.945 236.926ZM77.5675 230.409C66.351 226.082 56.1639 219.728 47.5896 211.716L46.224 213.177C54.9902 221.368 65.3977 227.857 76.8476 232.275L77.5675 230.409ZM47.5896 211.716C39.0153 203.703 32.223 194.191 27.5991 183.727L25.7697 184.535C30.5054 195.253 37.4578 204.985 46.224 213.177L47.5896 211.716ZM27.5991 183.727C22.9753 173.262 20.6098 162.05 20.6367 150.733L18.6367 150.728C18.6092 162.328 21.034 173.817 25.7697 184.535L27.5991 183.727Z" fill="#C1B5A4" mask="url(#path-3-inside-1_45_652)"/>
<path d="M23.6971 174.256H251.351C250.611 176.717 249.717 179.124 248.755 181.503L248.477 182.191H248.495C248.485 182.224 248.475 182.257 248.465 182.288C248.453 182.325 248.442 182.361 248.431 182.396H248.344L248.216 182.704C247.1 185.387 245.934 188.03 244.563 190.556C243.418 188.26 241.633 186.292 239.394 184.86C236.861 183.24 233.864 182.382 230.801 182.396C222.36 182.396 215.565 188.699 215.564 196.667C215.55 200.354 217.072 203.895 219.796 206.541C222.255 208.93 225.52 210.423 229.011 210.786C227.142 212.596 225.158 214.306 223.121 215.975L223.118 215.977C222.836 216.211 222.569 216.462 222.316 216.7C222.283 216.731 222.25 216.763 222.217 216.794C222.004 216.993 221.798 217.184 221.587 217.36C221.566 217.357 221.544 217.356 221.521 217.356H221.352L221.217 217.459C220.88 217.717 220.552 217.983 220.231 218.244C220.186 218.28 220.141 218.317 220.097 218.353C219.774 218.615 219.456 218.871 219.13 219.115H55.867C53.7554 217.579 51.7388 215.934 49.7759 214.233L49.6349 214.111H49.6233C49.5068 214.002 49.391 213.886 49.269 213.762C49.2535 213.746 49.2378 213.73 49.2219 213.714C49.0703 213.559 48.9076 213.393 48.7368 213.238L48.7331 213.234C48.5529 213.073 48.373 212.913 48.1936 212.753C47.5072 212.142 46.8278 211.537 46.1683 210.919H46.3036L45.4336 210.062C45.0963 209.73 44.7661 209.424 44.4423 209.123C44.0952 208.8 43.7555 208.485 43.4222 208.152C47.1827 205.575 49.6046 201.404 49.6046 196.646C49.6046 188.676 42.8172 182.38 34.375 182.38C31.7652 182.38 29.339 183.015 27.2044 184.086C27.1518 183.948 27.1004 183.808 27.0483 183.664C27.0343 183.625 27.0202 183.586 27.006 183.547C26.9062 183.271 26.8022 182.983 26.6865 182.701L26.6305 182.544L26.6264 182.532L26.6217 182.521C25.8042 180.537 24.9938 178.563 24.3148 176.545H24.5076L24.298 175.892C24.1791 175.522 24.041 175.162 23.9087 174.817C23.8918 174.773 23.8749 174.729 23.8582 174.685C23.8028 174.54 23.7487 174.397 23.6971 174.256ZM23.8108 176.545C23.8107 176.545 23.8124 176.545 23.8161 176.545L23.8108 176.545ZM53.8657 182.356H52.8542L53.4684 183.159C53.5075 183.21 53.5472 183.247 53.5741 183.271C53.5845 183.28 53.5943 183.288 53.6019 183.294L53.946 183.937L54.4155 183.323C54.416 183.322 54.4165 183.322 54.4172 183.321L54.4291 183.308C54.4345 183.303 54.4427 183.294 54.4514 183.285C54.4925 183.241 54.5427 183.18 54.5901 183.091L54.9838 182.356H54.1492H53.8657ZM93.1649 182.356H92.0491L92.7917 183.188C92.8266 183.227 92.8597 183.256 92.8808 183.273C92.8813 183.274 92.8817 183.274 92.8822 183.274L93.2278 183.92L93.6841 183.323C93.6877 183.32 93.6921 183.316 93.6974 183.312C93.7186 183.293 93.7498 183.264 93.7829 183.224C93.8164 183.184 93.846 183.14 93.8722 183.091L94.2659 182.356H93.4313H93.1649ZM132.455 182.356H131.34L132.082 183.188C132.112 183.222 132.139 183.246 132.157 183.262L132.159 183.263L132.51 183.92L132.962 183.329C132.966 183.326 132.97 183.323 132.974 183.319C132.999 183.299 133.036 183.265 133.075 183.217C133.114 183.168 133.147 183.113 133.173 183.052L133.471 182.356H132.713H132.455ZM171.738 182.356H170.622L171.364 183.188C171.399 183.227 171.432 183.256 171.453 183.273C171.454 183.274 171.454 183.274 171.455 183.274L171.801 183.92L172.257 183.323C172.26 183.32 172.265 183.316 172.27 183.312C172.291 183.293 172.323 183.264 172.356 183.224C172.389 183.184 172.419 183.14 172.445 183.091L172.839 182.356H172.004H171.738ZM211.753 183.091L212.146 182.356H211.312H211.275H211.028H211.019V182.699L210.871 182.62C210.879 182.605 210.888 182.592 210.898 182.58C210.907 182.569 210.914 182.564 210.911 182.566L210.9 182.576C210.895 182.58 210.884 182.588 210.874 182.597C210.853 182.615 210.822 182.642 210.789 182.678L211.003 182.875L210.631 183.159C210.656 183.192 210.679 183.217 210.696 183.236L210.717 183.257L210.722 183.262L211.049 183.874L211.52 183.361L211.52 183.361L211.535 183.348C211.542 183.342 211.553 183.334 211.564 183.324C211.617 183.278 211.691 183.206 211.753 183.091ZM54.34 209.82L53.9602 209.376L53.5803 209.82C53.523 209.887 53.4812 209.952 53.4566 209.991L53.4532 209.996C53.4257 210.039 53.4172 210.051 53.4085 210.061L52.7021 210.886H53.7883H54.1665H55.2525L54.5464 210.061L54.34 209.82ZM93.7575 210.004C93.7485 209.994 93.7444 209.99 93.7419 209.987L93.35 209.255L92.8998 209.928C92.896 209.932 92.8909 209.937 92.8843 209.943C92.8651 209.962 92.8338 209.994 92.8016 210.037C92.7683 210.082 92.7385 210.132 92.7139 210.19L92.4156 210.886H93.1735H93.4313H94.5471L93.8045 210.054C93.7864 210.033 93.7691 210.016 93.7591 210.005L93.7575 210.004ZM133.024 209.985C133.023 209.984 133.022 209.984 133.022 209.983L132.632 209.255L132.177 209.935C132.174 209.939 132.169 209.944 132.161 209.952C132.123 209.991 132.067 210.053 132.015 210.151L131.621 210.886H132.455H132.722H133.989L133.063 210.021L133.04 210L133.024 209.985ZM172.318 209.991C172.317 209.99 172.315 209.988 172.315 209.988L171.923 209.255L171.473 209.928C171.469 209.932 171.464 209.937 171.457 209.943C171.438 209.962 171.407 209.994 171.374 210.037C171.341 210.081 171.311 210.132 171.286 210.19L170.988 210.886H171.746H172.004H173.12L172.377 210.054C172.358 210.032 172.34 210.014 172.33 210.004C172.324 209.998 172.321 209.994 172.318 209.991ZM211.577 209.983L211.224 209.322L210.753 209.91L210.751 209.911L210.741 209.921L210.739 209.923C210.734 209.928 210.726 209.935 210.718 209.943C210.671 209.989 210.614 210.053 210.562 210.151L210.168 210.886H211.002H211.277H212.545L211.619 210.021L211.595 210L211.58 209.985C211.579 209.984 211.578 209.984 211.577 209.983ZM88.8868 196.621C88.8868 188.66 82.0995 182.356 73.6572 182.356C65.2146 182.356 58.4273 188.66 58.4273 196.629C58.4273 204.598 65.2238 210.894 73.6572 210.894C82.0997 210.894 88.8868 204.59 88.8868 196.621ZM128.177 196.621C128.177 188.66 121.381 182.356 112.948 182.356C104.506 182.356 97.7095 188.66 97.7095 196.629C97.7095 204.599 104.506 210.894 112.948 210.894C121.39 210.894 128.177 204.59 128.177 196.621ZM167.459 196.621C167.459 188.66 160.672 182.356 152.23 182.356C143.787 182.356 137 188.66 137 196.629C137 204.598 143.787 210.894 152.23 210.894C160.672 210.894 167.459 204.59 167.459 196.621ZM206.75 196.621C206.75 188.66 199.954 182.356 191.512 182.356C183.069 182.356 176.282 188.66 176.282 196.629C176.282 204.598 183.078 210.894 191.512 210.894C199.954 210.894 206.75 204.59 206.75 196.621ZM211.418 210.657L211.42 210.655C211.418 210.658 211.417 210.658 211.418 210.657Z" fill="#ECE3D7" stroke="#C1B5A4"/>
<path d="M30.0781 141.551V124.878C30.4219 69.7194 78.3836 25.0981 137.5 25.0981C196.573 25.0981 244.518 69.6713 244.922 124.79V141.551" stroke="#ECE3D7" stroke-width="12" stroke-linecap="round" stroke-linejoin="round"/>
<path d="M274.5 141.551V141.553C274.506 143.292 274.143 145.016 273.432 146.626C272.721 148.236 271.676 149.702 270.354 150.937C269.033 152.172 267.461 153.152 265.729 153.82C263.996 154.488 262.139 154.83 260.263 154.825H260.262L14.7297 154.825L14.7286 154.825C12.8536 154.829 10.997 154.486 9.26559 153.818C7.53427 153.15 5.96348 152.169 4.64264 150.934C3.32191 149.699 2.27737 148.234 1.56714 146.624C0.856959 145.014 0.494615 143.292 0.500063 141.553V141.551C0.500063 134.229 6.80936 128.285 14.7297 128.285H260.262C268.182 128.285 274.5 134.237 274.5 141.551Z" fill="#ECE3D7" stroke="#C1B5A4"/>
</g>
<rect x="0.5" y="0.5" width="274" height="256" stroke="white"/>
<defs>
<clipPath id="clip0_45_652">
<rect width="275" height="257" fill="white"/>
</clipPath>
</defs>
</svg>
