<svg width="204" height="195" viewBox="0 0 204 195" fill="none" xmlns="http://www.w3.org/2000/svg">
<path d="M152.098 21.1014L51.8969 21.0778C49.46 21.077 47.485 19.1884 47.4858 16.8594L47.489 4.32685C47.4894 1.99751 49.4656 0.10959 51.9025 0.110352L152.103 0.133965C154.54 0.134727 156.515 2.02341 156.514 4.35236L156.511 16.8849C156.51 19.2143 154.534 21.1022 152.098 21.1014ZM160.789 39.7083C154.958 36.538 150.731 31.337 149.387 25.2448L54.6345 25.2242C53.3771 31.254 49.3668 36.5175 43.6006 39.5217H43.5791C36.512 43.2103 32.0901 50.2966 32.0901 57.9842V185.067C32.0901 190.476 36.7076 194.889 42.4089 194.889H161.614C167.293 194.889 171.911 190.476 171.911 185.067V57.9846C171.91 50.7784 168.142 43.8612 160.789 39.7083ZM165.407 185.068C165.407 187.057 163.694 188.673 161.613 188.673H42.4085C40.3055 188.673 38.593 187.057 38.593 185.068V67.4543H165.407V185.068Z" fill="#F8A488"/>
</svg>
