<svg width="296" height="296" viewBox="0 0 296 296" fill="none" xmlns="http://www.w3.org/2000/svg">
<path fill-rule="evenodd" clip-rule="evenodd" d="M147.943 32.9531C132.61 32.9531 120.18 45.383 120.18 60.7161V94.4346H175.706V60.7161C175.706 45.383 163.276 32.9531 147.943 32.9531ZM147.943 44.5778C139.793 44.5778 133.185 51.1851 133.185 59.336V76.5518H162.701V59.336C162.701 51.1851 156.094 44.5778 147.943 44.5778Z" fill="#F8A488"/>
<path d="M57.4719 179.593C58.1092 173.485 63.258 168.845 69.3993 168.845C76.0225 168.845 81.3917 174.215 81.3917 180.838V209.959C81.3917 217.419 75.344 223.466 67.8841 223.466C59.8695 223.466 53.6176 216.528 54.4494 208.557L57.4719 179.593Z" fill="#F8F5F1"/>
<path fill-rule="evenodd" clip-rule="evenodd" d="M86.0167 180.838V209.959C86.0167 219.973 77.8984 228.091 67.8841 228.091C57.1255 228.091 48.7329 218.778 49.8494 208.077L52.8718 179.113C53.755 170.649 60.8895 164.22 69.3993 164.22C78.5769 164.22 86.0167 171.66 86.0167 180.838ZM69.3993 168.845C63.258 168.845 58.1092 173.485 57.4719 179.593L54.4494 208.557C53.6176 216.528 59.8695 223.466 67.8841 223.466C75.344 223.466 81.3917 217.419 81.3917 209.959V180.838C81.3917 174.215 76.0225 168.845 69.3993 168.845Z" fill="#F8A488"/>
<path d="M238.527 179.593C237.892 173.485 232.742 168.845 226.6 168.845C219.977 168.845 214.608 174.215 214.608 180.838V209.959C214.608 217.419 220.656 223.466 228.116 223.466C236.129 223.466 242.382 216.528 241.55 208.557L238.527 179.593Z" fill="#F8F5F1"/>
<path fill-rule="evenodd" clip-rule="evenodd" d="M209.983 180.838V209.959C209.983 219.973 218.102 228.091 228.116 228.091C238.874 228.091 247.266 218.778 246.149 208.077L243.127 179.113C242.246 170.649 235.11 164.22 226.6 164.22C217.423 164.22 209.983 171.66 209.983 180.838ZM226.6 168.845C232.742 168.845 237.892 173.485 238.527 179.593L241.55 208.557C242.382 216.528 236.129 223.466 228.116 223.466C220.656 223.466 214.608 217.419 214.608 209.959V180.838C214.608 174.215 219.977 168.845 226.6 168.845Z" fill="#F8A488"/>
<path d="M75.8808 121.31C78.6978 87.768 106.744 61.9788 140.403 61.9788H155.897C189.557 61.9788 217.603 87.7682 220.42 121.31L228.536 217.938C230.575 242.216 211.42 263.047 187.057 263.047H109.244C84.8808 263.047 65.7259 242.216 67.7648 217.938L75.8808 121.31Z" fill="#F8F5F1"/>
<path fill-rule="evenodd" clip-rule="evenodd" d="M140.403 57.3538H155.897C191.961 57.3538 222.011 84.9854 225.029 120.923L233.144 217.551C235.41 244.526 214.127 267.672 187.057 267.672H109.244C82.1738 267.672 60.8904 244.526 63.1562 217.551L71.2719 120.923C74.2902 84.9851 104.34 57.3538 140.403 57.3538ZM140.403 61.9788C106.744 61.9788 78.6978 87.768 75.8808 121.31L67.765 217.938C65.7259 242.216 84.8808 263.047 109.244 263.047H187.057C211.42 263.047 230.575 242.216 228.536 217.938L220.42 121.31C217.603 87.7682 189.557 61.9788 155.897 61.9788H140.403Z" fill="#F8A488"/>
<path d="M117.353 106.21C117.353 101.101 121.494 96.96 126.603 96.96H169.698C174.806 96.96 178.948 101.101 178.948 106.21V115.452C178.948 120.561 174.806 124.702 169.698 124.702H126.603C121.494 124.702 117.353 120.561 117.353 115.452V106.21ZM101.843 238.486C106.061 244.108 112.781 247.743 120.349 247.743H192.312C205.084 247.743 215.437 237.39 215.437 224.618V196.984C215.437 189.416 211.801 182.697 206.181 178.478C206.709 180.197 206.993 182.023 206.993 183.915V220.799C206.993 231.016 198.711 239.3 188.493 239.3H107.28C105.388 239.3 103.562 239.015 101.843 238.486Z" fill="#F8A488"/>
<path fill-rule="evenodd" clip-rule="evenodd" d="M107.28 160.791H188.493C201.265 160.791 211.618 171.144 211.618 183.916V220.799C211.618 233.57 201.265 243.925 188.493 243.925H107.28C94.5084 243.925 84.1549 233.57 84.1549 220.799V183.916C84.1549 171.144 94.5084 160.791 107.28 160.791ZM107.28 165.416C97.0626 165.416 88.7799 173.698 88.7799 183.916V220.799C88.7799 231.016 97.0626 239.3 107.28 239.3H188.493C198.711 239.3 206.993 231.016 206.993 220.799V183.916C206.993 173.698 198.711 165.416 188.493 165.416H107.28Z" fill="#F8A488"/>
<path fill-rule="evenodd" clip-rule="evenodd" d="M86.2035 193.649C86.2035 192.372 87.2388 191.337 88.516 191.337H207.785C209.062 191.337 210.097 192.372 210.097 193.649C210.097 194.926 209.062 195.962 207.785 195.962H88.516C87.2388 195.962 86.2035 194.926 86.2035 193.649Z" fill="#F8A488"/>
<path d="M174.183 189.233C174.445 187.488 176.145 186.184 178.158 186.184H178.89C180.903 186.184 182.604 187.488 182.866 189.233L185.391 206.069C185.935 209.695 182.707 212.912 178.524 212.912C174.342 212.912 171.114 209.695 171.658 206.069L174.183 189.233Z" fill="#F8A488"/>
</svg>
