<svg width="130" height="175" viewBox="0 0 130 175" fill="none" xmlns="http://www.w3.org/2000/svg">
<path d="M0 167.5C0 171.635 3.365 175 7.5 175H122.5C126.635 175 130 171.635 130 167.5V60C130 44.8375 117.662 32.5 102.5 32.5V25H110V12.5C110 5.6075 104.393 0 97.5 0H32.5C25.6075 0 20 5.6075 20 12.5V25H27.5V32.5C12.3375 32.5 0 44.8375 0 60V167.5ZM122.5 170H7.5C6.83696 170 6.20107 169.737 5.73223 169.268C5.26339 168.799 5 168.163 5 167.5V138.75H125V167.5C125 168.163 124.737 168.799 124.268 169.268C123.799 169.737 123.163 170 122.5 170ZM5 133.75V73.75H125V133.75H5ZM25 12.5C25 8.365 28.365 5 32.5 5H97.5C101.635 5 105 8.365 105 12.5V20H25V12.5ZM32.5 25H97.5V32.5H32.5V25ZM27.5 37.5H102.5C114.908 37.5 125 47.5925 125 60V68.75H5V60C5 47.5925 15.0925 37.5 27.5 37.5Z" fill="#F8A488"/>
</svg>
