<svg width="270" height="270" viewBox="0 0 270 270" fill="none" xmlns="http://www.w3.org/2000/svg">
<path d="M250.72 217.181L242.367 153.816C240.427 139.345 228.319 127.237 213.553 124.411L210.431 66.9938C210.052 60.4969 205.875 55.1391 200.053 52.9031L201.066 42.7781C201.656 37.125 199.8 31.5141 196.003 27.2953C192.206 23.1187 186.806 20.7141 181.153 20.7141H167.906V12.0234C167.906 5.4 161.578 0 153.731 0H116.184C108.38 0 102.009 5.4 102.009 12.0234V20.7563H88.7625C83.1094 20.7563 77.7094 23.1609 73.9125 27.3375C70.1156 31.5562 68.2594 37.1672 68.85 42.8203L69.8625 52.9453C63.9984 55.1391 59.8219 60.4969 59.4844 67.0359L56.3625 124.453C41.5969 127.28 29.4891 139.388 27.5484 153.858L19.2797 217.181C18.6047 222.202 20.1234 227.306 23.4562 231.272C26.7891 235.153 31.5984 237.473 36.7453 237.684L50.2453 237.98L49.6547 248.906C49.3594 254.475 51.3 259.748 55.1391 263.756C58.9359 267.764 64.0828 270 69.6516 270H200.306C205.875 270 211.022 267.764 214.819 263.756C218.658 259.748 220.598 254.475 220.303 248.906L219.713 237.98L233.255 237.642C238.359 237.473 243.211 235.153 246.502 231.272C248.161 229.355 249.395 227.108 250.122 224.679C250.85 222.25 251.053 219.695 250.72 217.181ZM50.6672 229.795L36.9984 229.5C34.1719 229.373 31.5141 228.108 29.6578 225.956C27.8016 223.805 27.0422 221.062 27.3797 218.278L35.7328 154.955C37.125 144.534 45.4781 135.717 55.9828 132.891L50.6672 229.795ZM110.236 12.0234C110.236 10.1672 112.683 8.18437 116.227 8.18437H153.773C157.275 8.18437 159.764 10.2094 159.764 12.0234V20.7563H110.236V12.0234ZM94.3312 169.552C92.2108 170.061 90.3243 171.272 88.9769 172.987C87.6295 174.701 86.8999 176.821 86.9062 179.002V205.116C86.9062 209.714 90.1125 213.553 94.3312 214.566V261.816H69.6516C66.3609 261.816 63.3234 260.508 61.0453 258.103C58.8094 255.741 57.6281 252.619 57.7969 249.328L58.5984 234.183V234.014L67.6266 67.4156C67.7531 65.0531 68.9344 62.9438 70.7484 61.5938L74.925 102.727C75.9375 112.809 84.2062 120.361 94.2891 120.656V169.552H94.3312ZM109.772 261.816H102.516V214.903H109.772V261.816ZM117.239 205.116C117.239 206.002 116.522 206.719 115.636 206.719H96.6094C95.7656 206.719 95.0484 206.044 95.0484 205.116V179.002C95.0484 178.116 95.7234 177.398 96.6094 177.398H115.678C116.522 177.398 117.281 178.073 117.281 179.002V205.116H117.239ZM102.516 169.256V120.741H109.73V169.256H102.516ZM152.044 169.552C149.915 170.053 148.019 171.259 146.663 172.975C145.307 174.691 144.572 176.815 144.577 179.002V205.116C144.577 209.714 147.783 213.553 152.044 214.566V261.816H117.914V214.608C120.042 214.09 121.934 212.873 123.288 211.152C124.642 209.431 125.379 207.305 125.381 205.116V179.002C125.381 174.361 122.133 170.564 117.872 169.509V120.741H152.044V169.552ZM167.442 261.816H160.228V214.903H167.442V261.816ZM174.909 205.116C174.909 206.002 174.234 206.719 173.348 206.719H154.322C154.111 206.719 153.903 206.677 153.708 206.597C153.514 206.516 153.337 206.398 153.188 206.249C153.039 206.1 152.921 205.924 152.841 205.729C152.76 205.535 152.719 205.326 152.719 205.116V179.002C152.719 178.116 153.436 177.398 154.322 177.398H173.391C174.234 177.398 174.952 178.073 174.952 179.002V205.116H174.909ZM160.228 169.256V120.741H167.442V169.256H160.228ZM94.9219 112.556C91.9906 112.56 89.1624 111.475 86.9871 109.51C84.8118 107.545 83.4447 104.842 83.1516 101.925L78.4266 55.5609L77.0344 41.9344C76.6969 38.5594 77.7516 35.3531 80.0297 32.8219C82.3078 30.3328 85.4297 28.9406 88.8047 28.9406H181.195C184.57 28.9406 187.692 30.3328 189.97 32.8219C192.206 35.3531 193.303 38.6016 192.966 41.9344L191.573 55.5609L186.891 101.925C186.597 104.842 185.23 107.545 183.055 109.51C180.88 111.475 178.052 112.56 175.12 112.556H94.9219ZM208.913 258.103C206.677 260.508 203.597 261.816 200.306 261.816H175.584V214.608C177.716 214.098 179.613 212.883 180.968 211.16C182.324 209.437 183.058 207.308 183.052 205.116V179.002C183.052 174.361 179.845 170.564 175.584 169.509V120.698C180.452 120.577 185.108 118.685 188.68 115.376C192.253 112.068 194.496 107.57 194.991 102.727L199.167 61.5938C200.981 62.9438 202.163 65.0109 202.289 67.4156L211.317 234.014V234.183L212.119 249.328C212.372 252.619 211.191 255.741 208.913 258.103ZM240.342 225.956C238.486 228.108 235.828 229.373 233.044 229.5L219.291 229.795L214.017 132.891C224.522 135.717 232.875 144.492 234.267 154.913L242.578 218.278C242.958 221.062 242.198 223.763 240.342 225.956Z" fill="#F6B64E"/>
<path d="M160.228 214.903H167.442V261.816H160.228V214.903Z" fill="#F8F5F1"/>
<path d="M212.161 249.286C212.372 252.619 211.191 255.698 208.912 258.061C206.677 260.466 203.597 261.773 200.306 261.773H175.584V214.608C177.716 214.098 179.613 212.883 180.968 211.16C182.324 209.437 183.058 207.308 183.052 205.116V179.002C183.052 174.361 179.845 170.564 175.584 169.509V120.698C180.452 120.577 185.108 118.685 188.68 115.376C192.253 112.068 194.496 107.57 194.991 102.727L199.167 61.5938C200.981 62.9438 202.162 65.0109 202.289 67.4156L211.317 234.014V234.183L212.161 249.286Z" fill="#F8F5F1"/>
<path d="M174.909 179.002V205.116C174.909 206.002 174.234 206.719 173.348 206.719H154.322C154.111 206.719 153.903 206.677 153.708 206.597C153.514 206.516 153.337 206.398 153.188 206.249C153.039 206.1 152.921 205.924 152.841 205.729C152.76 205.535 152.719 205.326 152.719 205.116V179.002C152.719 178.116 153.436 177.398 154.322 177.398H173.391C174.234 177.441 174.909 178.116 174.909 179.002Z" fill="#F8F5F1"/>
<path d="M160.228 120.741H167.442V169.256H160.228V120.741Z" fill="#F8F5F1"/>
<path d="M144.577 179.002V205.116C144.577 209.714 147.783 213.553 152.044 214.566V261.816H117.914V214.608C120.042 214.09 121.934 212.873 123.288 211.152C124.642 209.431 125.379 207.306 125.381 205.116V179.002C125.381 174.361 122.133 170.564 117.872 169.509V120.741H152.044V169.594C149.925 170.098 148.036 171.3 146.682 173.006C145.328 174.712 144.586 176.823 144.577 179.002Z" fill="#F8F5F1"/>
<path d="M102.516 214.903H109.772V261.816H102.516V214.903Z" fill="#F8F5F1"/>
<path d="M160.228 255.234H167.442V261.816H160.228V255.234Z" fill="#F8F5F1"/>
<path d="M117.956 255.234H152.086V261.816H117.956V255.234Z" fill="#F8F5F1"/>
<path d="M102.516 255.234H109.772V261.816H102.516V255.234Z" fill="#F8F5F1"/>
<path d="M117.239 179.002V205.116C117.239 206.002 116.522 206.719 115.636 206.719H96.6094C95.7656 206.719 95.0484 206.044 95.0484 205.116V179.002C95.0484 178.116 95.7234 177.398 96.6094 177.398H115.678C116.522 177.441 117.239 178.116 117.239 179.002Z" fill="#F8F5F1"/>
<path d="M173.391 177.441H154.322C153.478 177.441 152.719 178.116 152.719 179.044V205.158C152.719 206.044 153.436 206.761 154.322 206.761H173.348C174.192 206.761 174.909 206.086 174.909 205.158V179.044C174.909 178.116 174.234 177.441 173.391 177.441ZM168.792 200.559H158.878V183.558H168.792V200.559ZM115.636 177.441H96.6094C95.7656 177.441 95.0484 178.116 95.0484 179.044V205.158C95.0484 206.044 95.7234 206.761 96.6094 206.761H115.636C116.48 206.761 117.239 206.086 117.239 205.158V179.044C117.239 178.116 116.522 177.441 115.636 177.441ZM111.122 200.559H101.208V183.558H111.122V200.559Z" fill="#F8F5F1"/>
<path d="M102.516 120.741H109.73V169.256H102.516V120.741ZM189.97 32.8219C187.692 30.3329 184.57 28.9407 181.195 28.9407H88.8047C85.4297 28.9407 82.3078 30.3329 80.0297 32.8219C77.7937 35.3532 76.6969 38.6016 77.0344 41.9344L78.4266 55.561L83.1516 101.925C83.4447 104.842 84.8118 107.545 86.9871 109.51C89.1624 111.475 91.9906 112.561 94.9219 112.556H175.078C178.009 112.561 180.838 111.475 183.013 109.51C185.188 107.545 186.555 104.842 186.848 101.925L191.573 55.561L192.966 41.9344C193.303 38.5594 192.248 35.3532 189.97 32.8219ZM167.695 60.075H160.27V66.4032C160.27 68.6391 158.414 70.4954 156.178 70.4954C153.942 70.4954 152.086 68.6391 152.086 66.4032V60.075H102.305C101.219 60.075 100.179 59.6439 99.4111 58.8765C98.6436 58.109 98.2125 57.0682 98.2125 55.9829C98.2125 54.8975 98.6436 53.8567 99.4111 53.0892C100.179 52.3218 101.219 51.8907 102.305 51.8907H167.695C168.781 51.8907 169.821 52.3218 170.589 53.0892C171.356 53.8567 171.788 54.8975 171.788 55.9829C171.788 57.0682 171.356 58.109 170.589 58.8765C169.821 59.6439 168.781 60.075 167.695 60.075Z" fill="#F8F5F1"/>
<path d="M189.97 32.8219C187.692 30.3329 184.57 28.9407 181.195 28.9407H88.8047C85.4297 28.9407 82.3078 30.3329 80.0297 32.8219C77.7937 35.3532 76.6969 38.6016 77.0344 41.9344L78.4266 55.561L83.1516 101.925C83.4447 104.842 84.8118 107.545 86.9871 109.51C89.1624 111.475 91.9906 112.561 94.9219 112.556H175.078C178.009 112.561 180.838 111.475 183.013 109.51C185.188 107.545 186.555 104.842 186.848 101.925L191.573 55.561L192.966 41.9344C193.303 38.5594 192.248 35.3532 189.97 32.8219ZM185.414 57.4172L181.195 98.0016C180.647 103.275 176.133 107.283 170.733 107.283H99.2672C93.8672 107.283 89.3109 103.275 88.8047 98.0016L84.5859 57.4172L83.3625 45.5204C83.0672 42.5672 84.0375 39.7407 86.0203 37.5469C88.0453 35.3954 90.8297 34.1719 93.8672 34.1719H176.091C179.128 34.1719 181.912 35.3954 183.938 37.5469C185.962 39.7407 186.891 42.5672 186.595 45.5204L185.414 57.4172Z" fill="#F8F5F1"/>
<path d="M86.9062 179.002V205.116C86.9062 209.714 90.1125 213.553 94.3312 214.566V261.816H69.6516C66.3609 261.816 63.3234 260.508 61.0453 258.103C58.8094 255.741 57.6281 252.619 57.7969 249.328L58.5984 234.183V234.014L67.6266 67.4156C67.7531 65.0531 68.9344 62.9438 70.7484 61.5938L74.925 102.727C75.9375 112.809 84.2062 120.361 94.2891 120.656V169.594C90.0703 170.606 86.9062 174.445 86.9062 179.002Z" fill="#F8F5F1"/>
<path d="M212.161 249.286C212.372 252.619 211.191 255.698 208.913 258.061C206.677 260.466 203.597 261.773 200.306 261.773H175.584V255.234H194.484C197.48 255.234 200.264 254.011 202.289 251.817C204.356 249.623 205.453 246.755 205.242 243.675L204.525 229.711V229.542L196.805 85.0078L199.167 61.5938C200.981 62.9438 202.163 65.0109 202.289 67.4156L211.317 234.014V234.183L212.161 249.286ZM94.3312 255.234V261.816H69.6516C66.3609 261.816 63.3234 260.508 61.0453 258.103C58.8094 255.741 57.6281 252.619 57.7969 249.328L58.5984 234.183V234.014L67.6266 67.4156C67.7531 65.0531 68.9344 62.9438 70.7484 61.5938L73.1109 85.0078L65.3906 229.542V229.711L64.6734 243.675C64.4625 246.755 65.5594 249.623 67.6266 251.817C69.6516 254.011 72.4359 255.234 75.4312 255.234H94.3312Z" fill="#F8F5F1"/>
<path d="M171.788 82.35C171.788 84.6281 169.973 86.4422 167.695 86.4422H160.27V92.7703C160.27 95.0062 158.414 96.8625 156.178 96.8625C153.942 96.8625 152.086 95.0062 152.086 92.7703V86.4422H102.305C101.219 86.4422 100.179 86.011 99.4111 85.2436C98.6436 84.4762 98.2125 83.4353 98.2125 82.35C98.2125 81.2647 98.6436 80.2238 99.4111 79.4564C100.179 78.689 101.219 78.2578 102.305 78.2578H167.695C169.973 78.2578 171.788 80.0719 171.788 82.35Z" fill="#F6B64E"/>
</svg>
