<svg width="226" height="226" viewBox="0 0 226 226" fill="none" xmlns="http://www.w3.org/2000/svg">
<path fill-rule="evenodd" clip-rule="evenodd" d="M110.797 112.908V218.867L110.726 218.938L28.3206 183.696L28.25 183.576V77.624L28.3206 77.7511L110.719 112.993L110.797 112.908Z" fill="#F6B64E" fill-opacity="0.8"/>
<path fill-rule="evenodd" clip-rule="evenodd" d="M193.336 77.5886L193.265 77.7157L110.867 112.958V218.909L193.265 183.667L193.336 183.54V77.5886Z" fill="#F6B64E"/>
<path fill-rule="evenodd" clip-rule="evenodd" d="M193.265 77.631L110.867 42.3892H110.726L28.3207 77.631V77.7158L110.719 112.958L193.265 77.631Z" fill="#F6B64E" fill-opacity="0.9"/>
<path fill-rule="evenodd" clip-rule="evenodd" d="M28.25 77.6875L0 105.938L82.6312 141.25L110.881 113L28.25 77.6875ZM139.131 14.125L110.881 42.375L193.512 77.6875L221.762 49.4375L139.131 14.125ZM193.512 77.6875L221.762 105.938L139.131 141.25L110.881 113L193.512 77.6875ZM82.6312 14.125L110.881 42.375L28.25 77.6875L0 49.4375L82.6312 14.125Z" fill="#F6B64E"/>
<path d="M139.32 147.142V164.888" stroke="white" stroke-width="3" stroke-linecap="round"/>
<path d="M129.64 151.982C131.787 151.713 135.237 148.693 137.303 147.545C139.735 146.194 143.151 144.789 145.773 143.915" stroke="white" stroke-width="3" stroke-linecap="round"/>
<path d="M155.452 140.689C152.368 140.689 150.188 150.317 151.598 152.609C153.117 155.076 158.536 155.386 160.292 153.192C162.879 149.958 163.519 146.947 163.519 142.75C163.519 138.588 155.913 141.495 153.839 141.495" stroke="white" stroke-width="3" stroke-linecap="round"/>
<path d="M170.778 137.462C170.872 138.21 177.345 144.375 178.038 144.722" stroke="white" stroke-width="3" stroke-linecap="round"/>
<path d="M176.425 158.435C176.425 150.039 180.458 142.539 180.458 134.236" stroke="white" stroke-width="3" stroke-linecap="round"/>
<path d="M139.32 176.18C139.32 181.662 143.353 186.76 143.353 192.313" stroke="white" stroke-width="3" stroke-linecap="round"/>
<path d="M142.546 174.567C146.303 174.567 151.291 170.506 149.761 177.39C149.271 179.597 142.636 184.906 142.636 184.65C142.636 183.333 146.513 182.633 147.386 182.633C150.168 182.633 152.268 182.114 153.66 185.053C156.362 190.757 150.398 193.926 145.773 193.926" stroke="white" stroke-width="3" stroke-linecap="round"/>
<path d="M157.872 177.794C157.872 174.533 159.073 170.534 162.712 170.534C164.592 174.294 169.518 170.988 169.165 176.987C168.972 180.261 166.471 181.827 163.519 181.827C159.804 181.827 157.872 181.8 157.872 177.794Z" stroke="white" stroke-width="3" stroke-linecap="round"/>
<path d="M172.391 166.501C176.669 166.976 180.796 172.72 184.491 174.567" stroke="white" stroke-width="3" stroke-linecap="round"/>
<path d="M174.005 181.02C174.661 175.112 180.458 170.284 180.458 164.081" stroke="white" stroke-width="3" stroke-linecap="round"/>
</svg>
