<svg width="204" height="209" viewBox="0 0 204 209" fill="none" xmlns="http://www.w3.org/2000/svg">
<g clip-path="url(#clip0_44_529)">
<path d="M48.1666 56.375V202.125H155.833V56.375H48.1666ZM128.917 152.244C128.917 160.718 122.891 167.543 115.458 167.588H88.5416C81.1094 167.543 75.1235 160.718 75.0833 152.244V106.21C75.0833 97.7365 81.1094 90.8658 88.5416 90.8658H115.458C122.891 90.8658 128.917 97.7365 128.917 106.21V152.244Z" fill="#F6B64E"/>
<path d="M126.252 148.276C126.13 154.16 122.258 159.228 116.918 159.953C114.799 160.269 112.516 160.043 110.356 160.043C103.264 160.043 96.1725 160.043 89.0806 160.043C85.3309 160.043 81.8665 158.55 79.6656 155.02C77.9945 152.395 77.7499 149.498 77.7499 146.376C77.7499 138.592 77.7499 130.808 77.7499 123.024C77.7499 116.371 77.7092 109.718 77.7499 103.111C77.7907 98.6304 79.7878 94.5574 83.3745 92.3851C85.9015 90.8464 88.5915 90.9821 91.3631 90.9821C98.6995 90.9821 105.995 90.9821 113.332 90.9821C116.429 90.9821 119.282 91.1632 121.932 93.2902C124.866 95.6888 126.211 99.3998 126.252 103.382C126.293 117.864 126.252 132.392 126.252 146.874C126.252 147.371 126.252 147.824 126.252 148.276C126.252 152.666 132.366 152.666 132.366 148.276C132.366 133.613 132.366 118.95 132.366 104.333C132.366 100.214 131.754 96.1413 129.594 92.6566C126.374 87.4069 121.198 84.3747 115.492 84.2842C108.318 84.1484 101.145 84.2842 93.9716 84.2842C91.2816 84.2842 88.51 84.1032 85.8608 84.5105C79.4618 85.5514 74.0817 90.8464 72.2884 97.7253C71.5547 100.531 71.6362 103.428 71.6362 106.279C71.6362 110.261 71.6362 114.244 71.6362 118.226C71.6362 127.142 71.6362 136.057 71.6362 144.973C71.6362 147.914 71.5547 150.856 72.3699 153.707C74.2855 160.45 79.5433 165.61 85.8608 166.605C88.5915 167.058 91.4038 166.831 94.1346 166.831C98.4142 166.831 102.694 166.831 106.973 166.831C109.826 166.831 112.679 166.877 115.533 166.831C121.32 166.741 126.578 163.618 129.757 158.233C131.469 155.291 132.284 151.806 132.366 148.322C132.447 143.932 126.333 143.932 126.252 148.276Z" fill="#F6B64E"/>
<path d="M45.3334 57.1223C45.3334 73.9096 45.3334 90.6968 45.3334 107.484C45.3334 134.064 45.3334 160.597 45.3334 187.177C45.3334 193.285 45.3334 199.394 45.3334 205.503C45.3334 207.415 46.695 209 48.3369 209C60.4311 209 72.5654 209 84.6596 209C103.922 209 123.185 209 142.488 209C146.893 209 151.258 209 155.663 209C157.305 209 158.667 207.415 158.667 205.503C158.667 188.715 158.667 171.928 158.667 155.141C158.667 128.561 158.667 102.028 158.667 75.4484C158.667 69.3397 158.667 63.231 158.667 57.1223C158.667 55.2105 157.305 53.625 155.663 53.625C143.569 53.625 131.435 53.625 119.34 53.625C100.078 53.625 80.8151 53.625 61.5124 53.625C57.1072 53.625 52.7421 53.625 48.3369 53.625C44.4523 53.625 44.4523 60.6197 48.3369 60.6197C60.4311 60.6197 72.5654 60.6197 84.6596 60.6197C103.922 60.6197 123.185 60.6197 142.488 60.6197C146.893 60.6197 151.258 60.6197 155.663 60.6197C154.662 59.4539 153.661 58.2881 152.66 57.1223C152.66 73.9096 152.66 90.6968 152.66 107.484C152.66 134.064 152.66 160.597 152.66 187.177C152.66 193.285 152.66 199.394 152.66 205.503C153.661 204.337 154.662 203.171 155.663 202.005C143.569 202.005 131.435 202.005 119.34 202.005C100.078 202.005 80.8151 202.005 61.5124 202.005C57.1072 202.005 52.7421 202.005 48.3369 202.005C49.3381 203.171 50.3393 204.337 51.3404 205.503C51.3404 188.715 51.3404 171.928 51.3404 155.141C51.3404 128.561 51.3404 102.028 51.3404 75.4484C51.3404 69.3397 51.3404 63.231 51.3404 57.1223C51.3404 52.5991 45.3334 52.5991 45.3334 57.1223Z" fill="#F6B64E"/>
<path d="M34 56.375V209C16.7886 209 2.83337 194.61 2.83337 176.863V88.5116C2.83337 70.7645 16.7886 56.375 34 56.375Z" fill="#F6B64E"/>
<path d="M29.4596 57.1226C29.4596 73.9098 29.4596 90.6969 29.4596 107.484C29.4596 134.064 29.4596 160.597 29.4596 187.177C29.4596 193.285 29.4596 199.394 29.4596 205.503C30.4524 204.337 31.4453 203.171 32.4381 202.005C19.2927 201.865 8.84788 189.322 8.80816 173.933C8.76845 166.659 8.80816 159.385 8.80816 152.11C8.80816 131.266 8.80816 110.469 8.80816 89.6244C8.80816 83.8422 9.84073 78.3863 12.5016 73.4901C16.8304 65.4695 24.4159 60.7132 32.4381 60.6199C36.2507 60.5733 36.2904 53.5786 32.4381 53.6252C16.195 53.8118 2.97017 69.2933 2.85102 88.3654C2.81131 95.4533 2.85102 102.541 2.85102 109.676C2.85102 131.033 2.81131 152.39 2.85102 173.7C2.89074 192.959 15.917 208.767 32.4381 209C34.0664 209 35.4167 207.368 35.4167 205.503C35.4167 188.715 35.4167 171.928 35.4167 155.141C35.4167 128.561 35.4167 102.028 35.4167 75.4486C35.4167 69.3399 35.4167 63.2312 35.4167 57.1226C35.4167 52.5993 29.4596 52.5993 29.4596 57.1226Z" fill="#F6B64E"/>
<path d="M198.333 88.5116V176.863C198.333 194.61 186.281 209 171.417 209V56.375C186.281 56.375 198.333 70.7645 198.333 88.5116Z" fill="#F6B64E"/>
<path d="M197.224 88.3652C197.224 102.355 197.224 116.391 197.224 130.38C197.224 144.975 197.314 159.618 197.224 174.213C197.09 189.462 185.201 201.865 170.531 202.005C171.653 203.171 172.774 204.337 173.896 205.503C173.896 188.715 173.896 171.928 173.896 155.141C173.896 128.561 173.896 102.028 173.896 75.4484C173.896 69.3397 173.896 63.231 173.896 57.1223C172.774 58.2881 171.653 59.4539 170.531 60.6197C185.201 60.7596 197.09 73.1168 197.224 88.3652C197.269 92.8418 203.998 92.8884 203.953 88.3652C203.774 69.2931 188.88 53.8115 170.531 53.625C168.692 53.625 167.167 55.2571 167.167 57.1223C167.167 73.9096 167.167 90.6968 167.167 107.484C167.167 134.064 167.167 160.597 167.167 187.177C167.167 193.285 167.167 199.394 167.167 205.503C167.167 207.368 168.692 209 170.531 209C185.425 208.86 198.839 198.461 202.787 183.399C204.357 177.477 203.953 171.229 203.953 165.167C203.953 145.302 203.953 125.437 203.953 105.525C203.953 99.7898 203.953 94.1008 203.953 88.3652C203.953 83.842 197.224 83.842 197.224 88.3652Z" fill="#F6B64E"/>
<path d="M169.691 57.1223C169.691 73.9096 169.691 90.6968 169.691 107.484C169.691 134.064 169.691 160.597 169.691 187.177C169.691 193.285 169.691 199.394 169.691 205.503C170.687 204.337 171.683 203.171 172.679 202.005C167.102 202.005 161.565 202.005 155.988 202.005C156.984 203.171 157.979 204.337 158.975 205.503C158.975 188.715 158.975 171.928 158.975 155.141C158.975 128.561 158.975 102.028 158.975 75.4484C158.975 69.3397 158.975 63.231 158.975 57.1223C157.979 58.2881 156.984 59.4539 155.988 60.6197C161.565 60.6197 167.102 60.6197 172.679 60.6197C176.543 60.6197 176.543 53.625 172.679 53.625C167.102 53.625 161.565 53.625 155.988 53.625C154.354 53.625 153 55.2105 153 57.1223C153 73.9096 153 90.6968 153 107.484C153 134.064 153 160.597 153 187.177C153 193.285 153 199.394 153 205.503C153 207.415 154.354 209 155.988 209C161.565 209 167.102 209 172.679 209C174.312 209 175.667 207.415 175.667 205.503C175.667 188.715 175.667 171.928 175.667 155.141C175.667 128.561 175.667 102.028 175.667 75.4484C175.667 69.3397 175.667 63.231 175.667 57.1223C175.667 52.5991 169.691 52.5991 169.691 57.1223Z" fill="#F6B64E"/>
<path d="M45.621 57.0951C45.621 73.8854 45.621 90.6756 45.621 107.466C45.621 134.05 45.621 160.588 45.621 187.173C45.621 193.283 45.621 199.392 45.621 205.502C46.6171 204.336 47.6132 203.17 48.6093 202.004C43.0312 202.004 37.4929 202.004 31.9148 202.004C32.9109 203.17 33.907 204.336 34.9031 205.502C34.9031 188.712 34.9031 171.922 34.9031 155.131C34.9031 128.547 34.9031 102.009 34.9031 75.4245C34.9031 69.3147 34.9031 63.2049 34.9031 57.0951C33.907 58.2611 32.9109 59.4271 31.9148 60.5931C37.4929 60.5931 43.0312 60.5931 48.6093 60.5931C52.4742 60.5931 52.4742 53.5972 48.6093 53.5972C43.0312 53.5972 37.4929 53.5972 31.9148 53.5972C30.2812 53.5972 28.9265 55.1829 28.9265 57.0951C28.9265 73.8854 28.9265 90.6756 28.9265 107.466C28.9265 134.05 28.9265 160.588 28.9265 187.173C28.9265 193.283 28.9265 199.392 28.9265 205.502C28.9265 207.414 30.2812 209 31.9148 209C37.4929 209 43.0312 209 48.6093 209C50.2429 209 51.5976 207.414 51.5976 205.502C51.5976 188.712 51.5976 171.922 51.5976 155.131C51.5976 128.547 51.5976 102.009 51.5976 75.4245C51.5976 69.3147 51.5976 63.2049 51.5976 57.0951C51.5976 52.5711 45.621 52.5711 45.621 57.0951Z" fill="#F6B64E"/>
<path d="M128.695 19.0632H75.3047C60.6023 19.1041 48.6492 31.3093 48.6094 46.4128V56.6587H61.957V46.4128C61.9969 38.8611 67.9336 32.738 75.3047 32.738H128.695C136.066 32.738 142.043 38.8611 142.043 46.4128V56.6587H155.391V46.4128C155.351 31.3093 143.398 19.1041 128.695 19.0632Z" fill="#F6B64E"/>
<path d="M128.695 16.0017C116.423 16.0017 104.152 16.0017 91.8797 16.0017C86.5406 16.0017 81.1617 16.0017 75.8227 16.0017C65.9414 16.0425 56.8172 20.7368 51.0399 28.9825C47.4938 34.0442 45.7008 40.2489 45.6211 46.4944C45.5813 49.8825 45.6211 53.2706 45.6211 56.6587C45.6211 58.3323 46.9758 59.7202 48.6094 59.7202C53.0719 59.7202 57.4945 59.7202 61.957 59.7202C63.5906 59.7202 64.9453 58.3323 64.9453 56.6587C64.9453 53.3523 64.9055 50.0458 64.9453 46.7394C64.9852 41.596 68.2125 37.1874 73.1531 36.0444C74.7867 35.6771 76.6195 35.7995 78.3328 35.7995C81.4805 35.7995 84.6281 35.7995 87.7758 35.7995C101.402 35.7995 115.029 35.5546 128.655 35.7995C134.393 35.8812 138.975 40.5347 139.095 46.4128C139.174 49.8417 139.095 53.2706 139.095 56.6587C139.095 58.3323 140.449 59.7202 142.083 59.7202C146.545 59.7202 150.968 59.7202 155.43 59.7202C157.064 59.7202 158.419 58.3323 158.419 56.6587C158.419 48.6579 158.937 40.8204 155.51 33.3503C150.649 22.7778 139.971 16.1241 128.695 16.0017C124.83 15.9608 124.83 22.0839 128.695 22.1247C138.218 22.2472 146.984 28.1253 150.649 37.2282C153.12 43.3513 152.402 50.2091 152.402 56.6587C153.398 55.6382 154.395 54.6177 155.391 53.5972C150.928 53.5972 146.505 53.5972 142.043 53.5972C143.039 54.6177 144.035 55.6382 145.031 56.6587C145.031 53.2706 145.071 49.8825 145.031 46.4944C144.912 39.9632 141.286 33.881 135.389 31.1868C130.01 28.7376 122.998 29.6765 117.26 29.6765C108.136 29.6765 99.0117 29.6765 89.8477 29.6765C86.2617 29.6765 82.7156 29.6765 79.1297 29.6765C77.3367 29.6765 75.4641 29.554 73.6711 29.7989C65.9813 30.697 59.925 36.8608 59.0883 44.7392C58.65 48.6579 58.9688 52.74 58.9688 56.6587C59.9649 55.6382 60.9609 54.6177 61.957 53.5972C57.4945 53.5972 53.0719 53.5972 48.6094 53.5972C49.6055 54.6177 50.6016 55.6382 51.5977 56.6587C51.5977 49.2294 50.8805 41.5552 54.5063 34.779C58.8094 26.819 66.9375 22.1247 75.743 22.1247C88.5727 22.0839 101.442 22.1247 114.272 22.1247C119.053 22.1247 123.874 22.1247 128.655 22.1247C132.52 22.1247 132.56 16.0017 128.695 16.0017Z" fill="#F6B64E"/>
<path d="M109.13 114.022C105.565 114.022 105.565 115.213 102 115.213C98.4346 115.213 98.4346 114.022 94.8693 114.022C90.1156 114.022 84.1735 116.403 84.1735 124.735C84.1735 137.828 91.304 148.541 96.0578 148.541C99.623 148.541 99.623 147.351 102 147.351C104.377 147.351 104.377 148.541 107.942 148.541C112.696 148.541 119.826 137.828 119.826 124.735C119.826 116.403 113.884 114.022 109.13 114.022Z" fill="#DD2E44" fill-opacity="0.95"/>
<path d="M103.188 114.022C103.188 114.022 106.754 109.261 112.696 109.261C117.45 109.261 119.826 111.642 119.826 111.642C119.826 111.642 115.073 115.213 111.507 115.213C107.942 115.213 103.188 114.022 103.188 114.022Z" fill="#77B255" fill-opacity="0.95"/>
<path d="M102 117.593C101.685 117.593 101.382 117.468 101.16 117.245C100.937 117.021 100.812 116.719 100.812 116.403C100.812 112.307 102.238 108.529 104.725 106.039C104.835 105.928 104.966 105.841 105.111 105.781C105.255 105.721 105.409 105.69 105.565 105.69C105.722 105.69 105.876 105.721 106.02 105.78C106.165 105.84 106.296 105.928 106.406 106.038C106.516 106.149 106.604 106.28 106.664 106.425C106.724 106.569 106.754 106.724 106.755 106.88C106.755 107.036 106.724 107.191 106.664 107.336C106.604 107.48 106.517 107.612 106.407 107.722C104.361 109.769 103.188 112.933 103.188 116.403C103.188 116.719 103.063 117.021 102.84 117.245C102.617 117.468 102.315 117.593 102 117.593Z" fill="#662113" fill-opacity="0.95"/>
</g>
<defs>
<clipPath id="clip0_44_529">
<rect width="204" height="209" fill="white"/>
</clipPath>
</defs>
</svg>
